<?xml version="1.0" standalone="no"?>
<!DOCTYPE svg PUBLIC "-//W3C//DTD SVG 1.1//EN" "http://www.w3.org/Graphics/SVG/1.1/DTD/svg11.dtd" >
<svg xmlns="http://www.w3.org/2000/svg" xmlns:xlink="http://www.w3.org/1999/xlink" version="1.1">
<metadata></metadata>
<defs>
<font id="hanalei_fillregular" horiz-adv-x="1255" >
<font-face units-per-em="2048" ascent="1638" descent="-410" />
<missing-glyph horiz-adv-x="409" />
<glyph unicode="&#xfb01;" horiz-adv-x="1517" d="M57 106l4 11q45 107 45 231q0 87 -20 174v13q27 111 27 192q0 96 -33 205l-2 10l4 8q43 107 43 217q0 87 -27 176l-4 13l8 10q3 6 19.5 20.5t62 33t101.5 18.5q90 0 153 -47q66 7 125 26l8 4l11 -2q95 -30 151 -30q64 0 162 36l12 5l11 -7q7 -4 21.5 -18t35 -56.5 t24.5 -95.5v-18q0 -101 -67 -168l-10 -8l-15 4q-99 22 -145 22q-56 0 -148 -30l-14 -2q-88 16 -158 16q7 -60 23 -111v-14q-9 -28 -16 -72q55 -14 108 -14q69 0 158 27l12 4l10 -8q2 -1 9 -7t18 -21t21 -34t17 -49t7 -63q0 -108 -80 -183l-10 -8l-14 4q-110 37 -183 37 q-31 0 -61 -6l6 -12l4 -9l-4 -8q-37 -104 -37 -209q0 -107 35 -202l4 -11l-4 -8q-3 -6 -7 -12.5t-20.5 -24t-37.5 -30t-58.5 -23t-81.5 -10.5t-81 10.5t-58 25.5t-35.5 31t-19.5 26t-5 13zM1030 111l4 8q45 107 45 233q0 88 -20 172v13q26 107 26 192q0 98 -32 207l-2 8l4 8 q43 110 43 219q0 87 -27 175l-4 12l8 10q1 2 7.5 9t22 18t35 21t51 17t66.5 7q57 0 104.5 -21t65 -37.5t21.5 -23.5l10 -10l-6 -13q-37 -110 -37 -213q0 -85 23 -161v-15q-31 -115 -31 -209q0 -106 33 -196l4 -9l-4 -8q-37 -101 -37 -207q0 -109 35 -204l4 -11l-4 -8 q-3 -6 -7 -12.5t-20.5 -23.5t-37.5 -29t-58.5 -22.5t-81.5 -10.5t-81 10.5t-58 25t-35.5 30.5t-19.5 25.5t-5 12.5z" />
<glyph unicode="&#xfb02;" horiz-adv-x="1931" d="M57 106l4 11q45 107 45 231q0 87 -20 174v13q27 111 27 192q0 96 -33 205l-2 10l4 8q43 107 43 217q0 87 -27 176l-4 13l8 10q3 6 19.5 20.5t62 33t101.5 18.5q90 0 153 -47q66 7 125 26l8 4l11 -2q95 -30 151 -30q64 0 162 36l12 5l11 -7q7 -4 21.5 -18t35 -56.5 t24.5 -95.5v-18q0 -101 -67 -168l-10 -8l-15 4q-99 22 -145 22q-56 0 -148 -30l-14 -2q-88 16 -158 16q7 -60 23 -111v-14q-9 -28 -16 -72q55 -14 108 -14q69 0 158 27l12 4l10 -8q2 -1 9 -7t18 -21t21 -34t17 -49t7 -63q0 -108 -80 -183l-10 -8l-14 4q-110 37 -183 37 q-31 0 -61 -6l6 -12l4 -9l-4 -8q-37 -104 -37 -209q0 -107 35 -202l4 -11l-4 -8q-3 -6 -7 -12.5t-20.5 -24t-37.5 -30t-58.5 -23t-81.5 -10.5t-81 10.5t-58 25.5t-35.5 31t-19.5 26t-5 13zM1030 111l4 8q45 107 45 233q0 88 -20 172v13q26 107 26 192q0 98 -32 207l-2 8l4 8 q43 110 43 219q0 87 -27 175l-4 12l8 10q1 2 7.5 9t22 18t35 21t51 17t66.5 7q57 0 104.5 -21t65 -37.5t21.5 -23.5l10 -10l-6 -13q-37 -110 -37 -213q0 -85 23 -161v-15q-31 -115 -31 -209q0 -106 33 -196l4 -9l-4 -8q-25 -66 -35 -145l61 10l9 4l8 -4q109 -41 217 -41 q87 0 176 27l14 4l11 -8q69 -69 71 -176q0 -18 -2 -34.5t-6 -30.5t-9 -27.5t-10.5 -24t-12 -20t-12 -16.5t-11 -13t-9.5 -9.5t-7 -6.5l-3 -3l-10 -8l-12 4q-107 37 -209 37q-80 0 -166 -25h-14q-36 11 -93 21q-62 -43 -153 -43q-44 0 -81 10.5t-58 25t-35.5 30.5t-19.5 25.5 t-5 12.5z" />
<glyph horiz-adv-x="0" />
<glyph horiz-adv-x="682" />
<glyph unicode=" "  horiz-adv-x="409" />
<glyph unicode="&#x09;" horiz-adv-x="409" />
<glyph unicode="&#xa0;" horiz-adv-x="409" />
<glyph unicode="!" horiz-adv-x="528" d="M68 1333l8 10q9 9 25 21t66.5 31.5t106.5 19.5q54 0 101.5 -20t67 -37t22.5 -23l8 -10l-4 -12q-41 -121 -41 -256q0 -89 21 -160v-14q-3 -18 -12 -60t-13.5 -65.5t-9 -59.5t-4.5 -67q0 -84 22 -146l2 -10l-4 -8q-2 -3 -7.5 -11t-21 -22.5t-34.5 -26.5t-49.5 -21t-63.5 -9 t-63 9.5t-48.5 21.5t-33.5 27t-20 22.5t-7 11.5l-4 10l4 8q22 65 22 150q0 126 -26 233v17q31 88 31 186q0 126 -37 248zM80 236l10 10q58 55 154 55q92 0 155 -53l11 -10l-4 -15q-21 -62 -21 -108q0 -33 10 -66l4 -12l-8 -10q-55 -58 -147 -58t-144 58l-10 10l4 12 q10 29 10 68q0 51 -20 104z" />
<glyph unicode="&#x22;" horiz-adv-x="974" d="M55 766l4 8q29 83 29 156q0 85 -22 155l-5 11l5 8q32 92 32 158q0 56 -28 145l-4 12l6 11q1 3 7 9.5t21.5 18.5t35 22t51 17.5t67.5 7.5q105 0 178 -73l10 -11l-4 -14q-30 -102 -30 -150q0 -50 26 -135l2 -12q-24 -59 -24 -158q0 -71 37 -172l4 -8l-4 -10q-4 -8 -7 -13 t-20 -25t-37.5 -32t-58 -23.5t-82.5 -11.5q-40 0 -73.5 10t-53 23.5t-33.5 29.5t-18.5 24.5t-6.5 13.5zM526 766l4 8q29 83 29 156q0 85 -22 155l-5 11l5 8q32 92 32 158q0 56 -28 145l-4 12l6 11q1 3 7 9.5t21.5 18.5t35 22t51 17.5t67.5 7.5q105 0 178 -73l10 -11l-4 -14 q-30 -102 -30 -150q0 -50 26 -135l2 -12q-24 -59 -24 -158q0 -71 37 -172l4 -8l-4 -10q-4 -8 -7 -13t-20 -25t-37.5 -32t-58 -23.5t-82.5 -11.5q-40 0 -73.5 10t-53 23.5t-33.5 29.5t-18.5 24.5t-6.5 13.5z" />
<glyph unicode="#" horiz-adv-x="2203" d="M68 106l4 9q45 107 45 233q0 84 -21 172v12q27 111 27 193q0 95 -33 207l-2 8l4 8q43 110 43 219q0 89 -26 174l-5 13l9 10q1 2 7.5 9t22 18t35 21t51 17t66.5 7q73 0 133 -35h16q25 0 48 -5t34 -9.5t13 -6.5l12 -6l2 -12q21 -206 143 -346l6 -6v-6q23 -158 103 -283v2 q0 101 -31 209v16q43 110 43 223q0 85 -24 170l-5 13l9 10q1 2 7.5 9t22 18t35 21t51 17t66.5 7t67.5 -8t53 -19.5t37.5 -24t24 -20.5t8 -10l9 -11l-4 -12q-39 -115 -39 -215q0 -80 24 -160v-14q-31 -112 -31 -207q0 -108 33 -198v-17q-39 -101 -39 -211q0 -100 35 -200 l4 -11l-4 -8q-3 -6 -7 -12.5t-20.5 -23.5t-37 -29t-57.5 -22.5t-81 -10.5q-85 0 -139 35h-10q-32 0 -60 9.5t-39.5 17.5t-13.5 12l-8 6v10q-9 199 -149 379l-5 10q-23 131 -86 244q3 -93 33 -178l4 -9l-4 -8q-37 -101 -37 -207q0 -109 35 -204l4 -11l-4 -8q-3 -6 -7 -12.5 t-20.5 -23.5t-37.5 -29t-58.5 -22.5t-81.5 -10.5t-81 10.5t-57.5 25t-35 30.5t-19.5 25.5t-5 12.5zM1260 682l4 12q30 105 30 219q0 105 -24 187l-2 10l4 8q0 11 12 25q-10 42 -10 88q0 135 98 184l10 4l9 -4q83 -29 155 -29q88 0 156 23h16q95 -33 160 -33q53 0 145 29 l13 4l10 -8l1 -1q60 -49 73 -143l2 -30q0 -19 -2 -29q10 -11 18 -23.5t11 -19t3 -8.5l5 -8l-5 -11q-45 -117 -45 -262q0 -73 19 -147l2 -12l-6 -11q-2 0 -13 -14q10 -34 13 -72q0 -35 -7.5 -66.5t-17.5 -51.5t-22 -36t-18.5 -23t-10.5 -9l-10 -8l-13 4q-99 29 -149 29 t-135 -27h-15q-116 22 -157 22q-72 0 -170 -36l-11 -2l-8 4q-3 0 -13 5.5t-26 21t-30 37.5t-24.5 61t-10.5 86q0 24 2 36l-10 13zM1350 186q0 115 86 164q10 5 21 9l1 1h17q120 -45 292 -45q91 0 158 17l12 4l11 -8q4 -3 9.5 -7.5t17 -18.5t20 -31t15.5 -44.5t7 -58.5 q0 -20 -3.5 -39t-9 -33.5t-12.5 -28.5t-14.5 -23.5t-15 -18t-13 -13t-9.5 -8.5l-5 -4l-10 -6l-12 4q-100 33 -244 33q-117 0 -203 -25l-8 -4l-10 4q-98 49 -98 180zM1581 770q63 3 121 23h16q50 -19 82 -27q23 100 23 186q0 62 -8 109q-10 -2 -76 -23h-15q-87 16 -110 19 q-33 -112 -33 -232v-55z" />
<glyph unicode="$" horiz-adv-x="927" d="M47 223q0 74 45 119l6 6h11q81 1 141 23t137 69l14 13l9 6h8q23 0 59 4q-27 17 -137 65l-12 9q-58 72 -98 97.5t-140 55.5l-14 4l-4 15l-2 7q-1 7 -2.5 19.5t-1.5 26.5q0 52 20 98q-13 25 -16 37q-23 56 -23 100q0 74 45 119l6 6h11q108 0 204 49q6 61 6 125 q0 124 -22 197l-4 10l4 10q2 5 6 13t18 23.5t32.5 28t51 22.5t72.5 10q132 0 173 -106l1 -1l2 -8l-2 -10q-30 -79 -43 -211q41 21 94 65l11 9l12 -5q6 0 26 -9t53.5 -42.5t53.5 -83.5q21 -56 21 -100q0 -26 -5.5 -51t-10.5 -36t-7 -13l-8 -13h-12q-104 -7 -148.5 -24 t-118.5 -76l-14 -4q-43 -8 -109 -25q58 -22 103 -32l14 -9q41 -62 110.5 -104t151.5 -62l11 -2l6 -8l2 -5q3 -4 6 -11.5t6 -17.5t5.5 -24t2.5 -28q0 -52 -22 -98l16 -31q21 -55 21 -100q0 -26 -5.5 -51t-10.5 -36.5t-7 -13.5l-8 -12l-12 -2q-86 -5 -128 -16t-87 -43 q-15 -82 -15 -174t17 -156l4 -12l-9 -11l-1 -1q-48 -61 -139 -67l-19 -1q-31 0 -59.5 8.5t-46.5 19.5t-32.5 23.5t-20.5 20t-7 10.5l-8 10l4 14q24 84 30 195q-27 -19 -65 -53l-8 -6h-10q-5 0 -13.5 1.5t-30 9.5t-41 21.5t-42.5 42.5t-39 68q-23 56 -23 100z" />
<glyph unicode="%" horiz-adv-x="1820" d="M45 768v14q29 96 29 281q0 117 -17 178l-4 8l6 11q10 16 33 30q10 98 86 129h15q88 -37 231 -37q72 0 127 15l10 2l8 -4l2 -2q2 -2 5 -4t7 -6t7.5 -9t8 -11.5t8.5 -13.5t7.5 -16.5t6.5 -19.5q50 -12 94 -56l6 -10l-2 -10q-21 -73 -21 -213q0 -163 25 -240l2 -8l-4 -6 q0 -3 -5.5 -13t-22.5 -26t-40 -26q-4 -10 -8.5 -19t-9.5 -15.5t-10 -12.5t-9 -10.5t-7.5 -7.5t-6.5 -5l-2 -2l-8 -6l-10 4q-83 24 -193 24q-97 0 -164 -18h-16q-2 0 -10 4.5t-21.5 17t-23.5 29.5q-17 2 -32 8t-26 13t-19.5 15t-14 15.5t-9.5 13.5t-6 11zM305 1024 q0 -51 4 -125q79 -14 148 -14q10 85 10 174q0 16 -1 45t-1 43q-52 8 -117 8h-37q-6 -61 -6 -131zM637 178l4 8q41 63 66.5 154.5t25.5 179.5v19l2 10q33 65 53.5 158.5t20.5 173.5q0 31 -2 45l-2 6l4 6q41 62 66.5 158.5t25.5 181.5q0 6 -1 18.5t-1 18.5l-2 12l8 6 q3 3 12.5 9t36.5 14t58 8q22 0 42 -3.5t35.5 -9t29.5 -12.5t24.5 -15t19 -16t15 -15.5t10 -13t6.5 -9.5l2 -4l6 -11l-6 -8q-38 -64 -62 -156.5t-24 -170.5q0 -25 2 -35l-2 -13q-36 -68 -58 -158.5t-22 -168.5q0 -21 4 -53l2 -7l-4 -6q-37 -63 -58.5 -145t-21.5 -158 q0 -23 4 -59l2 -8l-6 -7q-18 -18 -26 -24q-40 -27 -97 -27q-48 0 -85.5 12.5t-56 30.5t-30.5 35.5t-15 30.5l-3 12zM1096 152v14q28 93 28 280q0 122 -16 179l-4 8l6 10q10 17 33 31q10 98 86 129h14q88 -37 232 -37q74 0 129 14l8 2l8 -4l3 -2q3 -2 6 -5.5t8 -8.5 t9.5 -11.5t9.5 -14.5t9 -18.5t6 -21.5q51 -12 94 -55l7 -10l-3 -10q-20 -70 -20 -213q0 -163 25 -240l2 -6l-2 -8q-24 -47 -70 -68q-4 -11 -10 -21t-11.5 -17t-11 -13t-9.5 -9.5t-8 -6.5l-3 -3l-9 -6l-10 4q-86 25 -192 25q-93 0 -164 -19h-14q-3 0 -11.5 5t-22.5 17.5 t-24 29.5q-17 2 -31.5 8t-25.5 13t-19.5 15t-14 15.5t-9.5 13.5t-6 11zM1356 408q0 -51 4 -125q84 -15 147 -15q11 93 11 174q0 16 -1 45t-1 43q-58 9 -117 9h-37q-6 -62 -6 -131z" />
<glyph unicode="&#x26;" horiz-adv-x="1286" d="M-2 389q0 9 1 17.5t2 13.5l1 6l2 8l8 6q75 53 159 158t118 199l6 12l10 4l7 1q6 2 17.5 3.5t24.5 1.5q3 0 10.5 -1t10.5 -1l-6 6l-9 17q-18 209 -157 370l-8 9l2 14q0 5 5.5 21t28.5 46.5t58 53.5q4 19 10 36t14 30t16.5 24t17.5 19t17.5 14t16.5 10l13 6.5t10 4.5l4 1 l8 2l10 -4q101 -49 213 -49q14 0 45.5 3t48.5 3l10 2l9 -4q110 -51 190 -51q46 0 111 12l12 2l10 -8q55 -55 55 -147v-25q-8 -75 -51 -125q11 -37 11 -39v-12l-11 -8q-80 -63 -154 -168.5t-104 -194.5l-2 -4q18 -26 55 -63l9 -17q4 -42 8 -61q132 9 248 90l10 6l12 -4 q1 0 8.5 -4t21 -15t27.5 -27t29 -43t25 -59q12 -46 12 -81q0 -30 -7 -58.5t-13 -40t-9 -14.5l-6 -12l-12 2h-35q-89 0 -172 -25l31 -33l6 -8v-16q0 -13 -4.5 -29.5t-16 -42t-40.5 -51.5t-70 -45q-55 -27 -107 -27q-32 0 -60 10t-39 18.5t-13 12.5l-6 8v8q-7 58 -17 99 q-74 -25 -143 -78l-14 -4q-7 0 -21.5 1t-21.5 1q-173 0 -312 -109l-16 -4q-3 0 -12 2.5t-27 13t-35.5 26.5t-36.5 47t-32 71q-15 49 -15 84q0 46 21 88q-31 54 -31 88zM391 408l39 20l10 4q69 0 115 10q-2 2 -2 4l-6 13q-5 30 -27 102q-68 -62 -129 -153zM600 1137 q23 -50 70 -111q33 36 61 78h-2h-14q-78 27 -115 33z" />
<glyph unicode="'" horiz-adv-x="503" d="M55 766l4 8q29 83 29 156q0 85 -22 155l-5 11l5 8q32 92 32 158q0 56 -28 145l-4 12l6 11q1 3 7 9.5t21.5 18.5t35 22t51 17.5t67.5 7.5q105 0 178 -73l10 -11l-4 -14q-30 -102 -30 -150q0 -50 26 -135l2 -12q-24 -59 -24 -158q0 -71 37 -172l4 -8l-4 -10q-4 -8 -7 -13 t-20 -25t-37.5 -32t-58 -23.5t-82.5 -11.5q-40 0 -73.5 10t-53 23.5t-33.5 29.5t-18.5 24.5t-6.5 13.5z" />
<glyph unicode="(" horiz-adv-x="792" d="M-25 793v8l2 10l7 6q114 97 200 348v11l9 6q152 137 192 342l2 14l12 4l4 2q4 1 10 3t14.5 4t20 3.5t23.5 1.5q147 0 219 -127q11 -21 25 -59l4 -14l-10 -8q-149 -149 -185 -328v-8l-6 -4q-122 -161 -160 -260q62 -158 185 -250l8 -13q39 -100 102 -192t142 -148l8 -6 l2 -10v-20q0 -12 -7 -35.5t-25 -56.5t-44 -62t-68.5 -49.5t-93.5 -20.5q-23 0 -43.5 5.5t-29.5 10.5t-11 7l-10 14q-37 154 -217 338l-8 6l-2 8q-52 202 -215 330l-11 8v13q0 15 9 43q-20 24 -33.5 54t-17 47t-3.5 24z" />
<glyph unicode=")" horiz-adv-x="790" d="M-14 109q0 5 0.5 9.5t1 7t0.5 3.5l2 10l8 6q77 56 141 149.5t103 190.5l8 13q120 95 182 245q-28 76 -71.5 148t-88.5 117l-6 12q-37 183 -182 328l-10 8l2 14q0 -1 1 3q36 112 129 158q51 25 113 25q12 0 23.5 -1.5t20 -3.5t14.5 -4t10 -3l4 -2l12 -4l3 -14 q41 -206 194 -342l6 -6l2 -11q80 -244 199 -348l8 -6l2 -10v-8q0 -8 -3.5 -24.5t-17 -47t-34.5 -55.5q10 -29 10 -41v-13l-10 -8q-161 -124 -217 -330l-8 -14q-68 -44 -133 -149t-87 -189l-2 -8l-8 -6q-2 -2 -11 -7t-29.5 -10.5t-43.5 -5.5q-50 0 -92 20t-68 49t-44 62 t-25.5 57t-7.5 36z" />
<glyph unicode="*" horiz-adv-x="1058" d="M43 1083q0 54 31.5 101t81.5 67l12 4l10 -8q110 -84 230 -123l12 -4l2 -12q4 -28 4 -39q0 -84 -76 -135l-10 -6l-12 6q-125 61 -248 70l-12 2l-7 10q-18 30 -18 67zM164 700l10 9q103 87 168 198l6 13h14q113 -3 154 -107l4 -12l-8 -10q-84 -109 -121 -228l-2 -12l-12 -4 q-18 -6 -41 -6q-60 0 -110 43t-60 104zM393 1417l8 8q46 56 123 56q78 0 131 -56l9 -8l-5 -12q-30 -105 -30 -211q0 -33 2 -49v-15l-10 -6q-48 -28 -93 -28q-53 0 -96 32l-10 7v14q2 23 2 68q0 99 -27 188zM539 805l6 12q46 101 160 101h12l6 -13q66 -126 162 -200l8 -9 l-2 -12q-5 -59 -55.5 -101t-116.5 -42q-21 0 -39 6l-12 2l-4 12q-40 129 -117 234zM635 1065q0 25 6 49l2 12l12 4q134 37 232 113l10 6l12 -2q63 -22 90 -88q15 -38 15 -74q0 -42 -17 -75l-6 -13h-12q-138 -12 -254 -63l-12 -4l-11 6q-67 52 -67 129z" />
<glyph unicode="+" horiz-adv-x="940" d="M45 676q0 41 10 75t24 53.5t29 33.5t25 19t12 5l9 4l10 -2q74 -30 158 -30h12q-6 87 -25 155v19q4 7 6.5 12t18 23.5t33.5 30t51 22t71 10.5q39 0 71.5 -11t50.5 -26t31 -31.5t17.5 -26.5t4.5 -12l4 -10l-4 -8q-24 -61 -37 -158h22q54 0 146 29l12 4l10 -6 q7 -4 21.5 -18.5t34.5 -58t22 -97.5q0 -111 -76 -187l-10 -8l-14 4q-99 29 -148 29q-18 0 -26 -2v-31q0 -95 16 -155l2 -15l-6 -10l-1 -1q-49 -60 -138 -68q-12 -1 -23 -1q-31 0 -59.5 8.5t-47 20.5t-32 24t-20.5 20l-7 9l-8 13l4 12q21 75 31 172q-70 -3 -164 -37h-18 q-8 4 -13 7t-25 20t-32 37t-23.5 57.5t-11.5 81.5z" />
<glyph unicode="," horiz-adv-x="466" d="M-55 -74q0 8 1 15t2 11l1 5l2 8l8 6q132 88 203 279l6 12l10 4l6 2q6 1 16.5 2.5t22.5 1.5q136 0 193 -129q22 -49 22 -77v-13l-10 -8q-82 -63 -133 -131.5t-82 -155.5l-2 -8l-8 -6q-1 -1 -10 -4.5t-26.5 -6.5t-35.5 -3q-50 0 -89.5 26.5t-58.5 63t-28.5 65t-9.5 41.5z " />
<glyph unicode="-" horiz-adv-x="954" d="M51 686q0 136 101 186l8 5l10 -5q80 -28 156 -28q65 0 155 22l8 4l9 -4q92 -32 157 -32q57 0 146 28l12 4l10 -6q7 -4 21.5 -18.5t34.5 -58t22 -97.5q0 -110 -76 -186l-10 -8l-14 2q-102 30 -150 30q-50 0 -135 -26l-12 -2q-59 24 -158 24q-71 0 -172 -37h-18q-8 4 -13 7 t-25 20t-32 37t-23.5 57.5t-11.5 81.5z" />
<glyph unicode="." horiz-adv-x="413" d="M41 236l10 10q58 55 154 55q92 0 155 -53l11 -10l-4 -15q-21 -62 -21 -108q0 -33 10 -66l4 -12l-8 -10q-55 -58 -145 -58q-94 0 -146 58l-10 10l4 12q13 37 13 72q0 47 -21 100z" />
<glyph unicode="/" horiz-adv-x="927" d="M33 221v10l8 9q140 143 174 364l6 12q131 172 146 371l8 14q146 156 164 359l2 14l10 6q2 2 11.5 6t31 8.5t45.5 4.5q41 0 77 -9.5t61 -24.5t46 -33.5t33.5 -36.5t21 -33.5t12.5 -23.5l3 -9l4 -12l-8 -11q-138 -156 -156 -342l-6 -12q-140 -180 -152 -377v-8l-6 -6 q-145 -165 -157 -381v-10l-9 -7q-38 -38 -114 -38q-54 0 -111 24q-41 17 -71 40.5t-43.5 43t-21.5 42.5t-8.5 31t-0.5 15z" />
<glyph unicode="0" horiz-adv-x="1325" d="M-12 750q0 5 0.5 10t1 8t0.5 4l2 10l8 4q68 52 132 146t95 186l9 15q165 122 221 325l4 12l12 7l3 1q3 1 8 2t11 2t15 2t18 1q120 0 191 -94q27 6 49 6q9 0 17 -0.5t13 -0.5l5 -1l12 -4l6 -13q75 -186 232 -295l10 -10q47 -96 116.5 -181.5t153.5 -137.5l8 -4l5 -11v-5 q1 -4 1.5 -11.5t0.5 -15.5q0 -94 -88 -170q-64 -53 -123 -60q-55 -61 -97 -143l-8 -10q-72 -30 -157.5 -128t-120.5 -184l-4 -10l-11 -4q-10 -10 -55 -10q-82 0 -156 67q-47 40 -71 97q-18 16 -39.5 31t-48 32.5t-39.5 26.5l-8 2l-5 8q-100 187 -286 270l-11 6l-4 13 q-2 8 -2 22q0 35 15 76q-41 48 -41 111zM362 680q81 -90 193 -143l10 -9q66 -87 82 -104q47 55 90 121q4 6 8 18l5 8l8 4q96 47 164 121q-67 84 -136 129l-8 4l-2 9q-53 147 -162 245q-38 -65 -59 -139l-6 -12q-51 -36 -101.5 -106.5t-85.5 -145.5z" />
<glyph unicode="1" horiz-adv-x="821" d="M-18 1077q0 20 5 39.5t9 28t6 10.5l6 8l8 2q87 29 197 106.5t170 158.5l6 10l12 2q56 0 109 -37q24 6 59 6q111 0 191 -80l8 -10l-4 -14q-39 -107 -39 -215q0 -84 23 -160l2 -14q-33 -106 -33 -209q0 -101 35 -197l2 -8l-4 -8q-37 -104 -37 -209q0 -100 35 -203l4 -8 l-4 -10q-3 -6 -7 -12.5t-20.5 -23.5t-37.5 -29.5t-58.5 -23t-81.5 -10.5q-145 0 -199 107l-4 8l4 10q45 107 45 232q0 88 -20 172v12q26 98 26 199t-30 200l-5 8l5 9q26 69 34 129q-98 -73 -166 -166l-4 -8l-10 -5l-5 -1q-5 -1 -13 -2t-17 -1q-20 0 -52.5 13.5t-66.5 37.5 t-58.5 65.5t-24.5 90.5z" />
<glyph unicode="2" horiz-adv-x="1030" d="M23 1012q0 16 2.5 30.5t5.5 22t4 8.5l4 8l8 4q83 42 183.5 131t148.5 175l8 12l12 2q9 2 21 2q56 0 110 -37q49 19 80 19q10 0 19.5 -1.5t17 -3.5t13 -3.5t8.5 -2.5l4 -2l8 -4l4 -8q36 -84 123 -187t174 -153l10 -6l2 -12v-15q0 -59 -37 -114q37 -61 37 -123v-17l-2 -12 l-12 -6q-183 -94 -274 -256l-9 -10q-90 -55 -155 -117q79 -23 151 -23q70 0 172 31l13 4l12 -8l1 -1q62 -49 74 -143q2 -15 3 -30q0 -18 -2 -35t-5.5 -31t-8.5 -27.5t-10.5 -23.5t-11.5 -20t-11 -16.5t-11 -13t-9.5 -10t-7.5 -6.5l-3 -3l-10 -9l-15 4q-112 31 -176 31 q-72 0 -160 -26h-14q-27 4 -67 11.5t-65.5 11t-49.5 3.5q-64 0 -150 -29l-10 -4l-8 4q-5 2 -14 6t-27 19t-32 35t-25 55t-11 78q0 85 58 147q-7 21 -7 48q0 44 11 55l4 10l10 4q74 32 150.5 102t134.5 152q9 13 10 17l4 8l8 4q133 62 219 164q-75 101 -174 174 q-125 -109 -184 -221l-4 -9l-10 -4q-10 -10 -54 -10q-77 0 -143 66q-63 61 -63 135z" />
<glyph unicode="3" horiz-adv-x="933" d="M33 184q0 35 11.5 68t21.5 48t14 17l6 7h10q85 0 135 15t138 64l14 13l16 4q53 0 78 2q-94 63 -176 88l-4 2q-60 15 -109 61q-71 66 -71 166q0 8 0.5 15.5t0.5 12.5l1 5l4 10l8 4q73 38 111 76.5t90 122.5q3 5 8 19l4 8l8 4q36 18 56 33q-53 6 -103 6q-64 0 -137 -15 l-10 -2l-8 4q-4 2 -10.5 6.5t-21.5 18.5t-26 32t-20 48.5t-9 66.5q0 48 13 86.5t28 58.5t37 36t29 18.5t16 5.5l9 2l10 -4q61 -31 157 -51t189 -20q59 0 100 8l13 2l10 -8q31 -31 47 -88q42 -20 73 -50.5t45.5 -57t22.5 -56t9 -40.5t1 -18l-2 -14l-10 -6 q-90 -54 -136.5 -103.5t-86.5 -134.5l-8 -10l-43 -31q64 -64 142.5 -118t148.5 -78l12 -4l4 -13l2 -6q2 -6 4 -17t2 -24q0 -44 -22 -92q16 -41 16 -84q0 -29 -7 -56.5t-13 -39t-9 -14.5l-6 -13h-14q-104 -5 -168.5 -26t-138.5 -76l-15 -6q-10 0 -30 -4q-100 -12 -151 -29.5 t-118 -71.5l-8 -6h-10q-4 0 -13.5 1.5t-31 10.5t-41 23.5t-41 44.5t-35.5 70q-12 32 -12 73z" />
<glyph unicode="4" horiz-adv-x="1052" d="M-20 655q0 5 0.5 9.5t0.5 7.5t0.5 5t0.5 3l2 10l8 6q64 50 122 134t99 178q4 16 4 20l10 14q161 127 222 326l2 12l12 6l3 1q3 1 8.5 2t12 2.5t16 2.5t19.5 1q48 0 88 -19q60 35 140 35q110 0 190 -80l8 -10l-4 -14q-39 -115 -39 -215q0 -77 25 -160v-14 q-25 -80 -31 -150q4 0 12 4l13 4l10 -6l3 -2q3 -2 7 -5.5t10 -9t12.5 -13t13 -16.5t12.5 -21t11.5 -25.5t9 -30.5t5.5 -35v-22q0 -90 -66 -156l-10 -8l-14 2q-7 0 -19 4q-16 -65 -16 -145q0 -100 35 -203l4 -8l-4 -10q-3 -6 -7 -12.5t-20.5 -23.5t-37.5 -29.5t-58.5 -23 t-81.5 -10.5q-145 0 -199 107l-4 8l4 10q47 112 47 232q0 30 -8 92q-78 10 -84 10q-78 0 -186 -43l-8 -4l-11 4q-3 0 -15 6t-33.5 25t-37.5 45q-46 2 -84 19.5t-60.5 41.5t-37.5 52t-20.5 49t-5.5 34zM403 727q79 0 166 31h4q-6 70 -28 149v13q-14 -32 -19 -54l-8 -12 q-50 -37 -115 -127z" />
<glyph unicode="5" horiz-adv-x="1026" d="M41 186q0 36 10 68t23.5 52t29.5 36.5t24.5 22.5t12.5 8h19q80 -31 147 -31q86 0 154 23l8 4l8 -4q98 -37 172 -37q17 93 17 186q0 39 -2 57h-11q-49 0 -125 -20h-14q-33 6 -88.5 20.5t-81.5 14.5q-33 0 -117 -23l-10 -4l-10 4l-3 2q-4 2 -9.5 5.5t-12.5 9t-15 13.5 t-15.5 17.5t-14.5 23t-12.5 28.5t-8.5 34.5t-3 40.5t2 29q-15 12 -26 27t-15 24t-4 12l-4 9l4 10q36 103 36 268q0 106 -20 182l-4 13l8 10l1 1q50 65 140 72l21 1q57 0 106 -29q100 0 150 35h16q94 -23 135 -23q58 0 168 43l13 6l12 -6l3 -2q3 -2 7.5 -5.5t10.5 -9 t12.5 -13t13.5 -16.5t13.5 -21t12 -25.5t9.5 -31t6 -35.5q0 -5 1 -14t1 -13q0 -95 -63 -158l-11 -8l-12 2q-90 19 -131 19q-56 0 -154 -39l-12 -2q-69 14 -139 14q-17 0 -25 -2q0 -87 17 -170q43 0 98 14h16q107 -43 164 -43q47 0 139 25l13 2l10 -8q53 -53 63 -121 q24 -15 60 -51l8 -11l-4 -12q-27 -94 -27 -219q0 -132 31 -227l2 -9l-4 -10q0 -2 -5.5 -12.5t-21 -28t-36.5 -30.5q-9 -89 -74 -154l-10 -8l-13 4q-105 31 -172 31q-58 0 -153 -29h-15q-24 4 -63 13t-62.5 12.5t-46.5 3.5q-65 0 -145 -31l-10 -2l-9 4q-3 0 -12.5 5t-25.5 19 t-30.5 34.5t-25 55.5t-10.5 78z" />
<glyph unicode="6" horiz-adv-x="1067" d="M-14 170l6 8q106 153 106 367v24l4 13q80 154 80 325q0 43 -2 66l-2 8l6 8q101 149 101 324q0 39 -2 57l-2 14l10 9q4 4 16 11t44 16.5t69 9.5q55 0 101 -16t73.5 -41t40 -39.5t19.5 -26.5v-1l1 -1l7 -13l-9 -12q-94 -155 -94 -315v-27q94 -136 248 -188l8 -2l6 -9 q58 -83 105.5 -117t138.5 -63l12 -4l4 -12l1 -6q1 -6 2 -16.5t1 -22.5q0 -75 -45 -142q-36 -55 -100 -88v-6q0 -24 -5 -46.5t-9 -33t-6 -12.5l-9 -12l-12 -2q-106 -17 -228 -77t-192 -128l-18 -8q-90 0 -150 80q-43 -15 -82 -15q-35 0 -65.5 5.5t-52.5 14t-41 20.5t-31 24 t-22 25.5t-15 24t-8.5 20t-4.5 14.5l-1 4zM397 311q141 40 254 107l-30 10l-13 8q-65 83 -137 127q0 -30 6 -57l-4 -17q-56 -91 -76 -178z" />
<glyph unicode="7" horiz-adv-x="868" d="M-4 1221q0 34 9.5 65t21.5 50.5t27 35t23 21.5t11 8l8 4l8 -2q82 -27 136 -27q76 0 159 29h17q95 -31 159 -31q76 0 177 37l12 4l10 -8l1 -1q62 -49 76 -146l3 -25v-14v-13q8 -10 15 -20.5t10 -16t4 -6.5l4 -14l-8 -10q-59 -84 -82 -152.5t-25 -163.5l-2 -14 q-57 -88 -80.5 -157t-23.5 -152q0 -6 1 -18.5t1 -18.5v-10l-4 -6q-121 -165 -121 -365v-39l-6 -8q-51 -51 -136 -51q-167 0 -229 118q-11 21 -20 56v10l6 6q124 154 139 381v8l4 4q56 90 76 164.5t20 177.5v11l6 6q54 70 74 119l-31 -11l-14 -2q-130 23 -162 23 q-69 0 -147 -33l-10 -4l-9 2q-2 0 -12 5t-26.5 19.5t-32 35.5t-26.5 58t-11 81z" />
<glyph unicode="8" horiz-adv-x="1081" d="M16 242v16l9 14q67 62 137 177.5t92 212.5l2 14l10 4q16 10 45 14l-37 33l-8 14q-49 205 -207 338l-8 8v13q0 36 33 84q-4 28 -4 51q0 37 9 66.5t19.5 45t27.5 28.5t22.5 15.5t15.5 5.5l2 1l8 4l11 -4q80 -27 157 -27q110 0 193 29h18q104 -33 168 -33q73 0 174 37l13 4 l12 -8l3 -1q3 -2 7 -5l10 -7.5t12 -11t12.5 -15t12.5 -20t10.5 -25t8 -31t4.5 -36.5q0 -72 -29 -121q5 -8 10.5 -17.5t9 -17t6.5 -15.5t5 -13.5t3.5 -10t2.5 -6.5v-2l2 -12l-10 -10q-70 -73 -131 -187.5t-78 -205.5v-11l-8 -6l-2 -2l8 -6l8 -14q55 -207 227 -344l8 -6l2 -9 v-16q0 -6 -2 -10q9 -31 9 -49v-15q0 -31 -7.5 -58t-16.5 -43t-21 -29t-18 -17l-9 -6l-10 -8l-13 2q-63 18 -92 20q-32 -4 -51 -4q-33 0 -65 12q-47 -11 -76 -22h-15q-99 18 -157 18q-104 0 -211 -39l-8 -4l-11 4q-5 0 -18.5 5t-37 28t-36.5 59q-48 9 -83 35t-50.5 57.5 t-22 54t-6.5 36.5zM403 289h31q68 0 150 16q-31 39 -76 84l-6 10l-13 33q-44 -57 -86 -143zM446 1087q49 -81 117 -137l8 -10l11 -33q67 92 106 189q-44 -9 -98 -27h-15q-91 16 -129 18z" />
<glyph unicode="9" horiz-adv-x="1024" d="M6 1096q0 38 12.5 69.5t23 43.5t15.5 14l9 6h8q91 0 157.5 21t141.5 71l6 4h10q102 0 157.5 18t131.5 72l10 8l12 -4q3 0 15 -5t34 -22t39 -42h7q150 0 230 -119q11 -16 26 -49l4 -13l-11 -10q-136 -157 -151 -342l-6 -14q-139 -183 -148 -377v-8l-6 -8 q-143 -158 -155 -381v-11l-7 -6q-39 -39 -116 -39q-52 0 -111 23q-41 17 -70.5 40.5t-43.5 44t-21.5 43t-8.5 30.5t-1 14v10l6 6q126 129 166 322q-53 86 -146 173.5t-174 129.5l-10 4l-4 8q-1 1 -4 8t-5.5 21t-2.5 29q0 39 18 79q-8 12 -20 48q-17 47 -17 90zM367 956 q60 -78 139 -145q14 55 20 125v8l6 6q36 39 62 78q-30 -18 -72 -47l-6 -6h-8q-76 0 -141 -19z" />
<glyph unicode=":" horiz-adv-x="501" d="M86 236l10 10q58 55 154 55q93 0 156 -53l10 -10l-4 -15q-21 -62 -21 -108q0 -33 10 -66l5 -12l-9 -10q-55 -58 -145 -58q-94 0 -146 58l-10 10l4 12q13 37 13 72q0 47 -21 100zM86 993l10 11q58 55 154 55q93 0 156 -53l10 -11l-4 -14q-21 -61 -21 -109q0 -32 10 -65 l5 -12l-9 -11q-54 -57 -145 -57q-95 0 -146 57l-10 11l4 12q13 37 13 72q0 47 -21 100z" />
<glyph unicode=";" horiz-adv-x="552" d="M-23 -74q0 8 1.5 15t2.5 11l1 5l2 8l8 6q132 88 203 279l6 12l10 4l6 2q6 1 16.5 2.5t22.5 1.5q136 0 193 -129q22 -49 22 -77v-13l-10 -8q-82 -63 -133 -131.5t-82 -155.5l-2 -8l-8 -6q-1 -1 -10 -4.5t-26.5 -6.5t-35.5 -3q-50 0 -89.5 26.5t-59 63t-29 65t-9.5 41.5z M141 993l11 11q58 55 153 55q93 0 156 -53l10 -11l-4 -14q-21 -61 -21 -109q0 -28 11 -65l4 -12l-8 -11q-54 -57 -146 -57q-94 0 -145 57l-10 11l4 12q12 35 12 72q0 47 -21 100z" />
<glyph unicode="&#x3c;" horiz-adv-x="913" d="M47 573q0 61 39 132q-35 58 -35 120q0 22 6 42.5t11 28.5t8 11l4 8l10 3q182 46 262 167l15 9q97 25 146.5 58.5t109.5 107.5l8 10l12 -2q10 0 28.5 -4t59.5 -29.5t72 -69.5q47 -64 47 -143q0 -14 -1.5 -26.5t-2.5 -19.5l-2 -7l-4 -13l-15 -4q-99 -31 -138 -56.5 t-99 -98.5l-4 -6l-9 -3q-4 -2 -14 -5t-14 -5q-95 -39 -144 -78q91 -57 146 -57l8 -2l6 -8q65 -77 116 -107t142 -51l15 -2l4 -12l1 -3l2.5 -10t3 -13t2.5 -17.5t1 -20.5q0 -141 -124 -217q-45 -27 -69 -30l-14 -3l-8 11q-70 76 -111 100.5t-133 46.5l-12 6 q-74 74 -133.5 106.5t-155.5 51.5l-10 2l-6 6q-3 3 -8 12.5t-12 33.5t-7 50z" />
<glyph unicode="=" horiz-adv-x="993" d="M72 481q0 41 11 75t22.5 52.5t30.5 34.5t23 18.5t13 6.5l8 4l10 -4q83 -29 156 -29q62 0 156 23l8 4l8 -4q95 -33 158 -33q56 0 145 28l13 5l10 -7q7 -4 21.5 -18.5t34.5 -58t22 -97.5q0 -110 -76 -186l-10 -8l-15 2q-102 30 -149 30q-50 0 -135 -26l-13 -2 q-59 24 -157 24q-74 0 -172 -36h-19l-13 6.5t-24.5 20t-32 37t-23.5 57t-11 81.5zM72 993q0 41 11 75t22.5 52.5t30.5 34.5t23 18.5t13 6.5l8 4l10 -4q83 -29 156 -29q62 0 156 23l8 4l8 -4q95 -33 158 -33q56 0 145 28l13 5l10 -7q7 -4 21.5 -18.5t34.5 -58t22 -97.5 q0 -110 -76 -186l-10 -8l-15 2q-102 30 -149 30q-50 0 -135 -26l-13 -2q-59 24 -157 24q-74 0 -172 -36h-19l-13 6.5t-24.5 20t-32 37t-23.5 57t-11 81.5z" />
<glyph unicode="&#x3e;" horiz-adv-x="913" d="M63 397q0 10 1 20.5t2.5 17.5t3.5 13t3 10l1 3l6 12l12 2q92 21 143.5 51t116.5 107l6 8l9 2q51 0 141 55q-50 41 -170 90l-12 9q-58 73 -97.5 98.5t-140.5 56.5l-12 4l-4 13q-9 9 -9 55q0 150 139 219q18 9 68 25l15 2l8 -10q58 -74 107.5 -107.5t146.5 -58.5l10 -2 l4 -7q80 -120 264 -167l9 -3l6 -8l2 -5q3 -4 6 -11t6 -16.5t5.5 -23.5t2.5 -28q0 -60 -35 -118q39 -66 39 -134q0 -25 -6.5 -48.5t-11.5 -33t-8 -12.5l-6 -6l-11 -2q-88 -17 -142 -45t-122 -90q-19 -19 -22 -23l-13 -6q-93 -22 -133.5 -46.5t-109.5 -100.5l-11 -11l-12 3 l-38 14q-110 50 -144 151q-13 38 -13 82z" />
<glyph unicode="?" horiz-adv-x="931" d="M51 1206q0 163 115 220q18 9 53 18h10l7 -6q135 -103 294 -103l17 -4q80 -62 136 -80t151 -18h14l6 -10l2 -3q3 -4 5.5 -9t5.5 -12t6 -16t6 -19.5t4.5 -24t1.5 -27.5q0 -33 -13 -80q-1 -2 -2 -5.5t-2 -4.5q23 -50 23 -94q0 -10 -1 -20.5t-2.5 -17.5t-3 -13t-2.5 -9l-1 -4 l-4 -12l-15 -4q-94 -29 -199.5 -97.5t-166.5 -138.5q-2 -20 -2 -61q0 -51 10 -82l4 -12l-8 -11q-1 -3 -6.5 -10t-19 -17.5t-31.5 -20t-46.5 -16.5t-60.5 -7q-103 0 -163 77l-1 1l-8 12l4 12q25 54 25 115q0 47 -23 129v18q28 55 84 82q7 50 29 72l6 8l8 2q65 13 170 70h-16 l-15 4q-67 51 -133.5 70.5t-150.5 19.5h-41l-7 6q-5 3 -16 15t-24 45t-13 73zM150 236l10 10q58 55 151 55q97 0 156 -53l12 -10l-4 -15q-20 -59 -20 -110q0 -31 10 -64l4 -12l-10 -10q-52 -58 -146 -58q-90 0 -145 58l-8 10l4 12q10 29 10 68q0 51 -20 104z" />
<glyph unicode="@" horiz-adv-x="1662" d="M70 190l4 9q41 106 41 202q0 56 -21 156l2 12q25 98 25 174q0 81 -31 179l-2 8l4 8q39 101 39 195q0 72 -25 161l-2 13l7 10l2 3q2 3 5 7t7 9t11 10.5t15 11t19.5 10.5t24.5 8q15 83 88 119h16q89 -41 182 -41q58 0 142 19h10q89 -25 158 -25q78 0 161 29h15 q100 -41 182 -41q67 0 143 24l11 4l8 -8l3 -2q2 -2 6 -4.5t8.5 -7t9.5 -11.5t10 -15t10 -19.5t8 -24.5q14 -4 26.5 -11.5t19.5 -12.5l7 -5l8 -8v-12q-2 -25 -2 -66q0 -56 11 -95t43 -101l4 -12q0 -103 11 -146.5t56 -122.5l4 -6l-2 -8q-2 -20 -2 -55q0 -64 14.5 -109.5 t55.5 -118.5l4 -8v-8l-2 -6q-1 -6 -6 -18t-12 -24.5t-20.5 -27.5t-29.5 -26q-4 -24 -13.5 -45t-19.5 -34.5t-21 -24.5t-16.5 -15.5t-8.5 -5.5l-11 -7l-10 7q-107 36 -166 36q-38 0 -102 -12l-12 2q-106 33 -156 33q-35 0 -123 -20l-8 -3l-6 5q-101 36 -160 36 q-41 0 -133 -20l-10 -2l-9 4l-5 3q-4 2 -10 6.5t-14 11.5t-16 17.5t-15.5 23t-13.5 30t-8 37.5q-22 12 -38.5 30t-22.5 29.5t-6 14.5l-4 8l4 10q35 62 56.5 149t21.5 160q0 7 -1 20t-1 19l4 15l4 4q-25 41 -25 100q0 29 8 53.5t19 38.5t23 24t19 13.5t9 3.5l8 4l6 -2 q62 -22 125 -22q70 0 123 18h12q68 -24 125 -24q50 0 117 20l10 4l9 -6q3 0 15.5 -12t27.5 -44t16 -71q0 -19 -4 -43q10 -10 18.5 -21.5t11.5 -18t3 -7.5l4 -6l-4 -8q-25 -88 -25 -199q0 -66 8 -113q5 0 17 4l14 -2q17 -7 40 -14t50.5 -14.5t36.5 -10.5q-5 63 -53 164l-2 13 q-1 95 -12.5 137.5t-55.5 122.5l-4 6l2 8q4 62 4 80q0 63 -22 119q-38 6 -72 6q-64 0 -131 -21h-12q-95 27 -168 27q-78 0 -158 -29l-6 -4l-8 4q-90 35 -166 35q-34 0 -68 -6q-10 -62 -10 -104q0 -66 22 -146v-12q-28 -109 -28 -184q0 -84 30 -175l3 -8l-3 -8 q-34 -98 -34 -184q0 -53 8 -97q71 -36 180 -36l6 2l6 -4q60 -41 100.5 -55.5t94.5 -14.5q6 0 18.5 1t18.5 1h10l6 -8q3 -3 8.5 -12t13 -33t7.5 -51q0 -25 -6 -52q-10 -42 -34.5 -73.5t-41.5 -42.5t-21 -11l-10 -4l-10 6q-63 38 -95 50t-83 12h-37l-12 2q-93 61 -201 61 q-33 0 -51 -2l-8 -2l-7 6q-4 2 -10.5 8.5t-17 23t-15.5 36.5q-38 9 -66 33.5t-37 42t-9 22.5zM692 588q47 -15 94 -15q25 0 111 11h10h2v49q0 131 -28 223l-33 -8h-12q-37 9 -76 12q5 -9 9 -19t5 -16l2 -6l2 -6l-4 -8q-57 -88 -82 -217z" />
<glyph unicode="A" horiz-adv-x="1040" d="M-8 162l6 8q100 153 100 358v35l4 12q76 152 76 312q0 26 -4 80l-2 10l6 8q96 149 96 318q0 19 -4 65v12l9 9l4 3q4 3 9.5 6t14 7.5t19.5 9t24 8t29.5 5.5t34.5 2q54 0 98.5 -15.5t71.5 -40t39 -39t19 -26.5v-1l1 -1l6 -13l-6 -12q-4 -4 -4 -6h14q16 0 31.5 -1t27 -3 t20 -4t13.5 -3l5 -1l12 -9l-2 -14q-2 -16 -2 -47q0 -176 84 -326l4 -12v-27q0 -119 20 -190q29 11 76 37l10 6l13 -4l3 -2l7.5 -5t11 -8t13.5 -12.5t15 -16t15.5 -20.5t14.5 -25.5t13.5 -30.5t10.5 -36q6 -34 6 -61q0 -17 -2 -33t-5.5 -29.5t-8 -24.5t-9 -20l-7.5 -15 t-6 -11l-3 -4l-8 -11l-14 2q-18 2 -56 2q25 -91 82 -184l11 -16l-13 -15q-60 -60 -157 -82q-42 -10 -74 -10q-20 0 -39 3t-32.5 7t-23.5 7.5t-16 6.5l-6 3l-14 8l2 16q0 8 1 25t1 25q0 69 -12 137q-4 -4 -7 -4l-14 -4q-150 0 -260 -37v-31q0 -42 6 -86l2 -10l-6 -8 q-20 -20 -22 -21q-53 -43 -134 -43q-60 0 -106 15.5t-69.5 37.5t-39 44t-18.5 37l-4 16zM471 563q43 15 82 35l16 4q16 -4 27 -4q-19 79 -66 180l-14 47q-45 -116 -45 -235v-27z" />
<glyph unicode="B" horiz-adv-x="1091" d="M57 111l4 8q45 107 45 233q0 88 -20 172v13q27 111 27 192q0 95 -33 207l-2 8l4 8q43 110 43 219q0 87 -27 175l-4 12l8 10l2 2q1 2 3 4t6 5.5l8 7t10 8t12.5 8.5t15 8.5t17.5 8t20 7t23 5.5q9 14 19 26t20.5 20.5t21.5 15.5t21 11.5t19.5 8t17 5.5t13.5 3t9 2h2h11l8 -6 q62 -56 127 -85t162 -47q6 -2 20 -2h8l9 -6q81 -69 154 -100t175 -37h13l8 -12l3 -5q2 -5 5 -14t6 -20t5.5 -27t2.5 -33q0 -43 -16 -90q-14 -40 -35 -67q10 -42 10 -66q0 -10 -1 -20.5t-2.5 -17.5t-3 -12.5t-2.5 -8.5l-1 -4l-4 -13l-12 -4q-136 -39 -228 -110 q102 -89 236 -125l12 -4l6 -13l2 -7q1 -7 2.5 -19.5t1.5 -26.5q0 -34 -10 -67q31 -55 31 -121q0 -24 -4 -46.5t-8 -33t-6 -12.5l-7 -11l-14 -2q-204 -24 -344 -149l-12 -6q-111 -23 -182 -53.5t-138 -96.5l-18 -8q-5 0 -11.5 0.5t-24 5.5t-34.5 13t-38.5 26t-39.5 43 q-43 10 -73.5 34t-40 40.5t-9.5 21.5zM430 356q35 19 55 35l15 12l6 7l10 2q60 3 129 22q-73 40 -139 62l-12 6l-17 16q-2 -1 -16 -10q-25 -81 -31 -152zM442 1106q0 -68 23 -145v-15q-15 -61 -16 -69l28 28l6 8l9 2q118 27 210 93q-54 12 -112 18l-12 6q-110 63 -136 74z " />
<glyph unicode="C" horiz-adv-x="1054" d="M16 227l4 9q40 73 57 126t17 119q0 39 -6 92l2 13q51 122 51 225q0 49 -14 131l-2 10l4 6q48 91 61 158q-36 49 -36 135q0 48 11 87t26.5 60.5t32.5 36t27 19t13 4.5l10 4l9 -4q98 -49 217 -49q85 0 114 10l9 2l8 -4q118 -53 207 -53q58 0 129 18l12 2l8 -8 q5 -3 17.5 -18t27.5 -55.5t15 -90.5v-16q-5 -108 -86 -178l-13 -8l-12 4q-116 49 -199 49q-47 0 -116 -16l-15 2q-8 1 -102 24q-2 -20 -2 -57q0 -36 10 -94v-9l-2 -6q-55 -127 -55 -233q0 -56 16 -131l2 -8l-4 -9q-58 -113 -63 -194q24 4 43.5 9t49 16t44.5 16q12 4 18 8 l8 4l9 -2q63 -14 122 -14q106 0 230 59l12 6l10 -6q4 -2 10.5 -6.5t20.5 -18t26.5 -31t24.5 -46.5t17 -62q2 -14 2 -41q0 -19 -3 -37.5t-7.5 -33t-10 -27.5t-11.5 -22.5t-10.5 -16.5t-8.5 -12l-3 -4l-10 -11l-12 4q-75 11 -113 11q-101 0 -219 -56l-8 -4l-6 2q-16 0 -45 2 t-43 2q-153 0 -285 -69l-10 -4l-8 2q-27 7 -62 35q-61 50 -69 131q-32 17 -54.5 43t-29.5 40.5t-7 18.5z" />
<glyph unicode="D" horiz-adv-x="1064" d="M57 106l4 11q45 107 45 231q0 87 -20 174v13q27 111 27 192q0 96 -33 205l-2 10l4 8q43 107 43 217q0 87 -27 176l-4 13l8 10q3 6 19.5 20.5t62 33t101.5 18.5h20q59 47 127 47q13 0 25 -1.5t19 -3.5l7 -1l9 -4l4 -11q35 -72 107.5 -145.5t156.5 -130.5l18 -8l8 -4l5 -9 q91 -187 276 -280l12 -4l2 -15q2 -8 2 -18q0 -60 -41 -123q43 -61 43 -131v-10l-2 -15l-12 -6q-178 -97 -264 -264l-2 -8l-6 -2q-84 -50 -164.5 -135.5t-120.5 -173.5l-4 -9l-10 -4q-10 -10 -54 -10q-58 0 -118 41q-40 -8 -68 -8q-44 0 -81 10.5t-58 25.5t-35.5 31t-19.5 26 t-5 13zM434 735q0 -106 33 -196l4 -9l-4 -8q-18 -52 -25 -86q15 20 42 53.5t34 42.5l4 9l8 4q129 65 215 176q-80 105 -200 168l-10 10q-49 65 -80 100q2 -12 10 -41v-14q-31 -115 -31 -209z" />
<glyph unicode="E" horiz-adv-x="1003" d="M57 106l4 11q45 107 45 231q0 87 -20 174v13q27 111 27 192q0 96 -33 205l-2 10l4 8q43 107 43 217q0 87 -27 176l-4 13l8 10q3 6 19.5 20.5t62 33t101.5 18.5q90 0 153 -47q66 7 125 26l8 4l11 -2q95 -30 151 -30q64 0 162 36l12 5l11 -7q7 -4 21.5 -18t35 -56.5 t24.5 -95.5v-18q0 -101 -67 -168l-10 -8l-15 4q-99 22 -145 22q-56 0 -148 -30l-14 -2q-88 16 -158 16q7 -60 23 -111v-14q-9 -28 -16 -72q55 -14 108 -14q69 0 158 27l12 4l10 -8q2 -1 9 -7t18 -21t21 -34t17 -49t7 -63q0 -108 -80 -183l-10 -8l-14 4q-110 37 -183 37 q-31 0 -61 -6l6 -12l4 -9l-4 -8q-24 -68 -33 -135q19 4 48 8t48 6t21 2l8 3l8 -5q115 -47 178 -47q46 0 136 23l12 4l10 -8q66 -66 66 -176q0 -24 -5 -47t-12.5 -40.5t-16 -32.5t-17.5 -25.5t-16 -18.5t-12 -13l-5 -4l-13 -6l-12 4q-110 41 -174 41q-46 0 -119 -18h-14 q-16 3 -34.5 7t-41.5 9t-35 8q-60 -69 -182 -69q-44 0 -81 10.5t-58 25.5t-35.5 31t-19.5 26t-5 13z" />
<glyph unicode="F" horiz-adv-x="972" d="M57 106l4 11q45 107 45 231q0 87 -20 174v13q27 111 27 192q0 96 -33 205l-2 10l4 8q43 107 43 217q0 87 -27 176l-4 13l8 10q3 6 19.5 20.5t62 33t101.5 18.5q90 0 153 -47q66 7 125 26l8 4l11 -2q95 -30 151 -30q64 0 162 36l12 5l11 -7q7 -4 21.5 -18t35 -56.5 t24.5 -95.5v-18q0 -101 -67 -168l-10 -8l-15 4q-99 22 -145 22q-56 0 -148 -30l-14 -2q-88 16 -158 16q7 -60 23 -111v-14q-9 -28 -16 -72q55 -14 108 -14q69 0 158 27l12 4l10 -8q2 -1 9 -7t18 -21t21 -34t17 -49t7 -63q0 -108 -80 -183l-10 -8l-14 4q-110 37 -183 37 q-31 0 -61 -6l6 -12l4 -9l-4 -8q-37 -104 -37 -209q0 -107 35 -202l4 -11l-4 -8q-3 -6 -7 -12.5t-20.5 -24t-37.5 -30t-58.5 -23t-81.5 -10.5t-81 10.5t-58 25.5t-35.5 31t-19.5 26t-5 13z" />
<glyph unicode="G" horiz-adv-x="1140" d="M16 227l4 9q40 73 57 126t17 119q0 39 -6 92l2 13q51 122 51 225q0 49 -14 131l-2 10l4 6q48 91 61 158q-36 49 -36 135q0 48 11 87t26.5 60.5t32.5 36t27 19t13 4.5l10 4l9 -4q98 -49 217 -49q85 0 114 10l9 2l8 -4q118 -53 207 -53q58 0 129 18l12 2l8 -8 q5 -3 17.5 -18t27.5 -55.5t15 -90.5v-16q-5 -108 -86 -178l-13 -8l-12 4q-116 49 -199 49q-47 0 -116 -16l-15 2q-8 1 -102 24q-2 -20 -2 -57q0 -36 10 -94v-9l-2 -6q-55 -127 -55 -233q0 -56 16 -131l2 -8l-4 -9q-58 -113 -63 -194q24 4 43.5 9t49 16t44.5 16q12 4 18 8 l8 4l9 -2q60 -14 118 -14h39q-2 10 -10 39v16q27 85 27 147q0 70 -39 168l-4 13l6 10q0 1 6.5 9.5t22.5 21t37 24.5t55.5 20.5t72.5 8.5q46 0 88.5 -16.5t55.5 -26.5t22 -19l8 -8l-4 -12q-22 -90 -22 -143q0 -66 37 -156v-14q-15 -76 -15 -136q0 -87 43 -184l4 -8l-2 -10 l-2 -5q-2 -4 -6 -10t-10.5 -15t-16 -18t-21.5 -18.5t-28.5 -17.5t-36 -14.5t-45 -10.5t-53.5 -4q-99 0 -153 59q-36 -10 -107 -41l-8 -4l-6 2q-16 0 -45 2t-43 2q-153 0 -285 -69l-10 -4l-8 2q-27 7 -62 35q-61 50 -69 131q-32 17 -54.5 43t-29.5 40.5t-7 18.5z" />
<glyph unicode="H" horiz-adv-x="1253" d="M57 111l4 8q45 107 45 233q0 88 -20 172v13q27 111 27 192q0 95 -33 207l-2 8l4 8q43 110 43 219q0 87 -27 175l-4 12l8 10q3 6 19.5 20.5t62 33t101.5 18.5q57 0 104.5 -21t64.5 -37.5t21 -23.5l10 -10l-6 -13q-37 -110 -37 -213q0 -85 23 -161v-15q-27 -94 -27 -182 q0 -81 21 -186l33 18l14 2q18 -4 51 -4q108 0 213 55q4 50 4 76q0 98 -29 205v16q31 95 31 182q0 107 -39 205l-6 13l6 10q2 4 7.5 11.5t22 23t37 28t54.5 22t72 9.5q123 0 213 -90l10 -12l-4 -13q-41 -113 -41 -233q0 -85 20 -158v-14q-30 -87 -32 -162q16 12 24 20l10 -4 l4 -2q3 -1 7.5 -3t11.5 -5.5t13.5 -8t15 -11.5t15.5 -15t15 -19t14 -23t11 -27.5t8 -32.5q4 -32 4 -47q0 -82 -37 -156l-8 -14q-40 4 -69 4q-21 0 -31 -2q-4 -27 -4 -82q0 -107 28 -217l2 -8l-4 -9q-1 -4 -7.5 -13.5t-22.5 -26t-37.5 -31t-56.5 -25t-76 -10.5t-77 9.5 t-57.5 22t-39 27.5t-23.5 23.5t-8 11.5l-6 10l4 11q38 101 45 227q-107 -21 -209 -80l-12 -4q-12 0 -49.5 -1t-57.5 -1q8 -96 29 -143l4 -11l-4 -8q-3 -6 -7 -12.5t-20.5 -23.5t-37.5 -29t-58.5 -22.5t-81.5 -10.5t-81 10.5t-58 25t-35.5 30.5t-19.5 25.5t-5 12.5z" />
<glyph unicode="I" horiz-adv-x="544" d="M57 111l4 8q45 107 45 233q0 88 -20 172v13q27 111 27 192q0 95 -33 207l-2 8l4 8q43 110 43 219q0 87 -27 175l-4 12l8 10q3 6 19.5 20.5t62 33t101.5 18.5q57 0 104.5 -21t64.5 -37.5t21 -23.5l10 -10l-6 -13q-37 -110 -37 -213q0 -85 23 -161v-15q-31 -115 -31 -209 q0 -106 33 -196l4 -9l-4 -8q-37 -101 -37 -207q0 -109 35 -204l4 -11l-4 -8q-3 -6 -7 -12.5t-20.5 -23.5t-37.5 -29t-58.5 -22.5t-81.5 -10.5t-81 10.5t-58 25t-35.5 30.5t-19.5 25.5t-5 12.5z" />
<glyph unicode="J" horiz-adv-x="993" d="M-35 512q0 94 84 170q73 66 162 66q5 0 10.5 -0.5t9 -1t6 -1t3.5 -0.5l14 -4l4 -12q40 -93 84.5 -144.5t126.5 -103.5l8 -10q63 -108 80 -131v6q0 84 -18 176v13q26 107 26 192q0 96 -33 205l-2 10l5 8q43 107 43 217q0 87 -27 176l-4 13l8 10q1 2 7.5 9t22 18t35 21 t51 17t66.5 7q57 0 104.5 -21t65 -37.5t21.5 -23.5l10 -10l-6 -13q-37 -110 -37 -213q0 -86 23 -162v-14q-31 -115 -31 -209q0 -106 33 -196l4 -9l-4 -8q-37 -104 -37 -209q0 -107 35 -202l2 -11l-5 -8q0 -2 -5.5 -12t-20.5 -25t-36.5 -29t-58.5 -24t-81 -10q-32 0 -72 8 l-8 -8q-74 -66 -150 -66q-17 0 -32 3.5t-22 6.5t-9 5l-8 4l-4 10q-31 87 -75.5 147t-123.5 113l-8 4l-2 8q-38 97 -85 153t-137 112l-10 6z" />
<glyph unicode="K" horiz-adv-x="1110" d="M57 106l4 11q45 107 45 231q0 87 -20 174v13q27 111 27 192q0 96 -33 205l-2 10l4 8q43 107 43 217q0 87 -27 176l-4 13l8 10q3 6 19.5 20.5t62 33t101.5 18.5q57 0 104.5 -21t64.5 -37.5t21 -23.5l10 -10l-6 -13q-37 -110 -37 -213q0 -86 23 -162v-14q-1 -5 -19 -78 q71 83 117 199l4 8l8 4q185 107 259 297l6 12l12 3l4 1q4 1 11 2t14 1q80 0 157 -62q44 -36 68.5 -83t27.5 -66.5t3 -32.5v-14l-13 -9q-174 -110 -243 -282l-11 -10q-29 -20 -79 -66q34 -140 124 -246l5 -12q22 -114 49 -178t90 -133l8 -9v-10q0 -5 -1 -13.5t-8.5 -30 t-21 -41.5t-42 -44t-66.5 -41q-55 -24 -105 -24q-33 0 -61 10.5t-39.5 19.5t-13.5 13l-7 6l-2 10q-3 83 -25 144.5t-75 144.5l-20 20v11q-3 54 -15 106q-79 -59 -135 -135v-23q0 -107 35 -202l4 -11l-4 -8q-3 -6 -7 -12.5t-20.5 -24t-37.5 -30t-58.5 -23t-81.5 -10.5 t-81 10.5t-58 25.5t-35.5 31t-19.5 26t-5 13z" />
<glyph unicode="L" horiz-adv-x="958" d="M57 111l4 8q45 107 45 233q0 88 -20 172v13q27 111 27 192q0 95 -33 207l-2 8l4 8q43 110 43 219q0 87 -27 175l-4 12l8 10q3 6 19.5 20.5t62 33t101.5 18.5q57 0 104.5 -21t64.5 -37.5t21 -23.5l10 -10l-6 -13q-37 -110 -37 -213q0 -85 23 -161v-15q-31 -115 -31 -209 q0 -106 33 -196l4 -9l-4 -8q-25 -66 -35 -145l62 10l8 4l8 -4q109 -41 217 -41q87 0 176 27l15 4l10 -8q69 -69 71 -176q0 -114 -80 -184l-1 -1l-11 -8l-12 4q-107 37 -209 37q-80 0 -166 -25h-14q-37 11 -92 21q-62 -43 -154 -43q-44 0 -81 10.5t-58 25t-35.5 30.5 t-19.5 25.5t-5 12.5z" />
<glyph unicode="M" horiz-adv-x="1503" d="M-10 150l4 8q90 148 90 336q0 41 -2 61l2 12q66 150 66 295q0 27 -9 101l-2 8l4 8q84 144 84 297q0 42 -6 88l-2 14l10 8q5 5 17.5 13.5t49 20.5t77.5 12q44 0 83.5 -11.5t63 -26.5t42.5 -33.5t25.5 -28t8.5 -13.5l8 -12l-6 -13l-12 -20q12 -3 23.5 -6.5t17 -5.5t6.5 -2 l12 -9v-14q0 -201 103 -367l4 -12q0 -66 12 -127q31 102 31 201q0 33 -2 51l-2 8l6 8q106 153 106 340v39l-2 13l10 8q4 4 15.5 11t43 16.5t66.5 9.5q46 0 86 -12t65 -28t45.5 -37t28 -32t12.5 -20l1 -2l6 -13l-8 -12l-10 -14q12 -4 22.5 -9.5t15 -8.5t5.5 -3l12 -10l-2 -14 q-8 -66 -8 -99q0 -143 63 -278l2 -15q-4 -29 -4 -86q0 -155 64 -286l4 -4v-9q0 -6 -1 -17t-1 -17q0 -162 82 -314l8 -16l-13 -12q-32 -32 -95 -56q-59 -22 -122 -22q-37 0 -71 9.5t-48.5 17t-17.5 10.5l-12 8l2 16q8 47 8 105q0 116 -43 241v11q2 18 2 57q0 100 -31 215 q-8 -47 -8 -105q0 -19 4 -65l-4 -16q-100 -150 -100 -332q3 -8 10 -15l12 -14l-12 -16l-22 -23q-93 -81 -220 -82q-62 0 -104 21l-14 6l2 16q0 177 -78 340l-2 11q-6 152 -86 317q-8 -49 -8 -109q0 -55 8 -102l2 -8l-4 -8q-76 -137 -76 -291q0 -66 10 -115l2 -10l-6 -8 q-1 -3 -6 -9t-19 -17.5t-31.5 -21.5t-46 -17t-61.5 -7q-57 0 -102 14.5t-68.5 35t-38.5 41.5t-20 35l-4 15z" />
<glyph unicode="N" horiz-adv-x="1224" d="M57 106l4 9q45 107 45 233q0 88 -20 172v12q27 111 27 193q0 95 -33 207l-2 8l4 8q43 110 43 219q0 85 -27 174l-4 13l8 10q3 6 19.5 20.5t62 33t101.5 18.5q73 0 133 -35h16q25 0 48 -5t33.5 -9.5t12.5 -6.5l13 -6l2 -12q21 -206 143 -346l6 -6v-6q23 -158 103 -283v2 q0 101 -31 209v16q43 110 43 223q0 81 -25 170l-4 13l8 10q3 6 19.5 20.5t62 33t101.5 18.5q35 0 67.5 -8t53 -19.5t37.5 -24t24 -20.5t8 -10l8 -11l-4 -12q-39 -115 -39 -215q0 -77 25 -160v-14q-31 -112 -31 -207q0 -108 33 -198v-17q-39 -101 -39 -211q0 -100 35 -200 l4 -11l-4 -8q-3 -6 -7 -12.5t-20.5 -23.5t-37 -29t-57.5 -22.5t-81 -10.5q-85 0 -139 35h-10q-32 0 -60 9.5t-39.5 17.5t-13.5 12l-8 6v10q-9 197 -150 379l-4 10q-23 131 -86 244q3 -93 33 -178l4 -9l-4 -8q-37 -101 -37 -207q0 -109 35 -204l4 -11l-4 -8q-3 -6 -7 -12.5 t-20.5 -23.5t-37.5 -29t-58.5 -22.5t-81.5 -10.5t-81 10.5t-58 25t-35.5 30.5t-19.5 25.5t-5 12.5z" />
<glyph unicode="O" d="M16 227l4 9q40 73 57 126t17 119q0 39 -6 92l2 13q51 122 51 225q0 49 -14 131l-2 10l4 6q48 91 61 158q-36 49 -36 135q0 48 11 87t26.5 60.5t32.5 36t27 19t13 4.5l10 4l9 -4q98 -49 217 -49q85 0 114 10l9 2l8 -4q110 -50 192 -53q68 29 127 29q22 0 42.5 -3.5t37 -9 t30.5 -12t25 -13.5t18 -12.5t12 -9.5l5 -4l10 -10l-4 -12q-22 -90 -22 -160q0 -93 41 -193l4 -6l-2 -8q-14 -89 -14 -141q0 -125 55 -244l4 -6l-4 -10q-23 -94 -23 -154q0 -99 54 -213l4 -8l-4 -10q0 -2 -5.5 -13.5t-22 -30t-40.5 -35.5t-66 -29.5t-94 -12.5q-75 0 -129 37 q-94 -12 -178 -52l-6 -4l-6 2q-16 0 -47 2t-47 2q-188 0 -320 -69l-10 -4l-8 2q-27 7 -62 35q-61 50 -69 131q-32 17 -54.5 43t-29.5 40.5t-7 18.5zM406 332q150 18 196 49l8 4l8 -2q63 -14 134 -14q44 0 88 6q-7 47 -31 127l-2 12q12 67 12 131q0 122 -53 246l-4 8l2 10 q25 89 27 150q-36 4 -54 4q-47 0 -116 -16l-15 2q-8 1 -102 24q-2 -20 -2 -57q0 -36 10 -94v-9l-2 -6q-55 -127 -55 -233q0 -56 16 -131l2 -8l-4 -9q-58 -116 -63 -194z" />
<glyph unicode="P" horiz-adv-x="1050" d="M55 88l4 8q45 107 45 234q0 88 -20 172v12q27 111 27 193q0 94 -33 206l-2 9l4 8q43 110 43 219q0 85 -27 174l-4 12l8 11q50 50 117 65q10 16 23.5 30t26.5 22.5t26 15.5t24.5 11t20 6t15.5 4l7 1h11l8 -6q63 -55 128 -84t161 -47q3 0 10 -1t10 -1h8l9 -6 q81 -69 154 -100t175 -37h13l8 -11l5 -12q6 -13 11.5 -36.5t5.5 -49.5q0 -45 -16 -92q-15 -45 -35 -70q18 -45 18 -90q0 -9 -1 -17.5t-2 -14.5l-1 -5l-2 -12l-12 -4q-188 -82 -293 -234l-10 -10q-74 -31 -157 -96.5t-138 -138.5v-31q0 -110 35 -205l4 -10l-4 -8 q-3 -6 -7 -12.5t-20.5 -23.5t-37.5 -29.5t-58.5 -23t-81.5 -10.5t-81 10.5t-58 25t-35.5 30.5t-19.5 26t-5 13zM432 758q46 46 51 63l6 8l9 2q130 49 227 146q-66 21 -137 27l-13 6q-106 60 -135 73q0 -65 23 -145v-14q-25 -90 -31 -166z" />
<glyph unicode="Q" d="M16 227l4 9q40 73 57 126t17 119q0 39 -6 92l2 13q51 122 51 225q0 49 -14 131l-2 10l4 6q48 91 61 158q-36 49 -36 135q0 48 11 87t26.5 60.5t32.5 36t27 19t13 4.5l10 4l9 -4q98 -49 217 -49q85 0 114 10l9 2l8 -4q110 -50 192 -53q68 29 127 29q22 0 42.5 -3.5t37 -9 t30.5 -12t25 -13.5t18 -12.5t12 -9.5l5 -4l10 -10l-4 -12q-22 -90 -22 -160q0 -93 41 -193l4 -6l-2 -8q-14 -89 -14 -141q0 -125 55 -244l4 -6l-4 -10q-23 -94 -23 -154q0 -99 54 -213l4 -8l-4 -10q0 -2 -5.5 -13.5t-22 -30t-40.5 -35.5t-66 -29.5t-94 -12.5q-75 0 -129 37 q-52 -9 -65 -13v-12q0 -104 45 -203l4 -10l-4 -8q0 -2 -5 -12.5t-20.5 -28.5t-38 -34t-63 -28t-90.5 -12q-36 0 -66.5 8.5t-48 19.5t-31.5 25t-18 20.5t-6 10.5l-4 8l2 11q22 67 22 141q0 23 -4 59q-132 -17 -213 -61l-10 -4l-8 2q-27 7 -62 35q-61 50 -69 131 q-32 17 -54.5 43t-29.5 40.5t-7 18.5zM406 332q150 18 196 49l8 4l8 -2q63 -14 134 -14q44 0 88 6q-7 47 -31 127l-2 12q12 67 12 131q0 122 -53 246l-4 8l2 10q25 89 27 150q-36 4 -54 4q-47 0 -116 -16l-15 2q-8 1 -102 24q-2 -20 -2 -57q0 -36 10 -94v-9l-2 -6 q-55 -127 -55 -233q0 -56 16 -131l2 -8l-4 -9q-58 -116 -63 -194z" />
<glyph unicode="R" horiz-adv-x="1089" d="M55 74l4 8q45 107 45 233q0 88 -20 172v13q27 111 27 192q0 95 -33 207l-2 8l4 8q43 110 43 220q0 87 -27 176l-4 12l8 10l2 2q1 2 3 4t6 5.5l8 7t10 8t12.5 8.5t15 8.5t17.5 8t20 7t23 5.5q10 16 23.5 30t26.5 22.5t26 15.5t24.5 11t20 6t15.5 4l7 1h11l8 -6 q146 -131 309 -131l17 -7q80 -70 153 -100.5t176 -36.5l13 -2l8 -10l5 -12q6 -13 11.5 -36.5t5.5 -49.5q0 -45 -16 -92q-14 -41 -35 -68q18 -45 18 -88q0 -10 -1 -19.5t-2 -14.5l-1 -5l-2 -12l-12 -6q-133 -57 -215 -142q31 -82 115 -160l6 -10q34 -172 164 -284l8 -5v-10 q0 -8 -0.5 -14t-6 -28t-16.5 -40.5t-35.5 -43t-58.5 -44.5q-61 -35 -119 -35q-25 0 -47 7t-30 12t-11 8l-6 4l-2 10q-9 72 -39.5 133.5t-87.5 131.5q-10 10 -14 12l-6 6v8q-16 99 -47 152q-84 -63 -150 -148v-30q0 -110 35 -205l4 -8l-4 -11q-3 -6 -7 -12.5t-20.5 -23.5 t-37.5 -29t-58.5 -22.5t-81.5 -10.5t-81 10.5t-58 25t-35.5 30.5t-19.5 25.5t-5 12.5zM432 745q37 37 51 62l15 12q140 52 229 146q-62 20 -139 26l-13 4q-126 71 -135 76q0 -67 23 -147v-15q-25 -91 -31 -164z" />
<glyph unicode="S" horiz-adv-x="907" d="M4 176q0 50 20.5 88.5t34.5 49.5t23 16l8 6l10 -2q61 -12 97 -12q24 0 51.5 6t45.5 12t79 27l8 4l8 -2q62 -11 84 -13q-16 26 -63 76l-7 10q-28 101 -70.5 172t-113.5 136l-8 6v8q-35 205 -182 340l-9 8v12q0 4 3 15t15.5 35t31.5 45q-2 6 -2 18q0 31 8 58.5t18 43.5 t22.5 29t18.5 17t10 6l9 4l10 -2q63 -13 94 -13q12 0 24 1.5t20.5 3t25 6t24 7l31.5 10.5t35 11q12 4 18 8l8 5l9 -2q73 -15 118 -15q74 0 189 53l12 7l12 -7l3 -2q3 -2 8 -5t11 -8t13 -12.5t14.5 -16t14.5 -20t13.5 -24.5t11.5 -30t8 -35q4 -28 4 -43q0 -18 -3 -36 t-7.5 -32t-10 -26t-11.5 -21t-10.5 -15.5t-8.5 -11.5l-3 -4l-10 -8l-14 2q-75 10 -109 10q-44 0 -81 -10.5t-97 -38.5l-6 -4l-8 2q-18 0 -45 1t-37 1q43 -71 100 -123l6 -10q29 -109 71.5 -180.5t115.5 -134.5l8 -15q21 -106 58.5 -172.5t117.5 -134.5l6 -6l2 -10 q0 -105 -108 -176q-13 -29 -35 -51l-8 -11l-15 2q-86 11 -110 11q-42 0 -79.5 -11t-96.5 -39l-15 -2q-19 0 -51 2.5t-43 2.5q-51 0 -86.5 -11.5t-105.5 -46.5l-11 -6l-8 2q-5 1 -14 4.5t-32 19.5t-40.5 37.5t-32 62.5t-14.5 91z" />
<glyph unicode="T" horiz-adv-x="927" d="M-16 1264q0 132 100 182l8 4l10 -4q83 -29 179 -29q116 0 182 23l8 4l8 -4q98 -33 187 -33q76 0 178 31l12 4l10 -8q7 -4 21.5 -18t34 -56t20.5 -94q0 -29 -5.5 -55.5t-13 -44.5t-17 -34.5t-17.5 -25.5t-15 -16l-6 -7l-10 -8l-14 4q-99 29 -178 29h-29v-51q0 -79 22 -162 v-12q-30 -111 -30 -195q0 -92 33 -182l4 -8l-4 -9q-37 -104 -37 -194q0 -85 34 -186l5 -11l-5 -8q-3 -6 -7 -12.5t-20.5 -23.5t-37 -29t-58 -22.5t-81.5 -10.5q-147 0 -199 104l-4 10l4 9q45 107 45 213q0 77 -20 161v13q26 98 26 184t-31 184l-4 9l4 8q40 99 43 217h-10 q-102 0 -203 -37l-8 -2l-10 4q-3 0 -12.5 5t-25.5 19.5t-30.5 35t-25 56.5t-10.5 79z" />
<glyph unicode="U" horiz-adv-x="1193" d="M20 203l5 8q63 126 63 238q0 42 -10 114v12q43 119 43 222q0 54 -21 147l-2 8l4 9q62 127 62 256q0 58 -17 135l-4 14l11 8q3 5 17.5 17.5t55 27.5t90.5 15q46 0 85.5 -12t65.5 -32t36.5 -29.5t18.5 -20.5l1 -1l8 -12l-6 -12q-53 -123 -53 -252q0 -59 12 -121v-14 q-47 -133 -47 -232q0 -66 21 -143v-16q-53 -115 -53 -209q19 4 39 11t48 17.5l44 16.5l16 4q66 -8 92 -8q67 0 129 18q-10 68 -26 121l-3 12q15 73 15 148q0 129 -47 250v16q28 85 28 182q0 107 -39 211l-6 12l9 13l1 1q48 61 145 77q26 4 54 4q106 0 172 -66l10 -10l-4 -15 q-24 -88 -24 -174q0 -102 37 -200v-15q-19 -90 -19 -161q0 -129 49 -242l4 -8l-2 -8q-24 -86 -24 -170q0 -125 51 -242l4 -8l-4 -11l-2 -4q-2 -5 -6 -11t-10.5 -14.5t-16 -18t-21.5 -18.5t-28.5 -17.5t-36 -15t-45 -10t-53.5 -3.5q-123 0 -174 76q-59 -17 -121 -52l-12 -2 q-86 0 -132 -2.5t-109.5 -19t-117.5 -49.5l-8 -6l-10 2q-1 1 -12 5t-20 8.5t-24 16t-27.5 26.5t-26.5 40.5t-25 58.5q-33 16 -56.5 40.5t-30.5 39t-7 19.5z" />
<glyph unicode="V" horiz-adv-x="1038" d="M-6 1247l6 13l4 6q3 6 11 17.5t19.5 24.5t30.5 26.5t41.5 24.5t54.5 18t68 7q16 0 32 -2t28.5 -5.5t24 -7t20 -7.5t14.5 -7.5t10 -6.5l4 -2l11 -9v-14q-2 -18 -2 -55q0 -174 84 -310l2 -14q0 -196 73 -336q66 138 66 271q0 40 -2 63l4 16q49 74 68.5 139t19.5 148 q0 9 -1 28.5t-1 29.5v12l8 8l5 3q5 4 11.5 8t18.5 9t24.5 9t30.5 7t37 3q25 0 48.5 -4t41.5 -11.5t34.5 -16.5t29 -19.5t22.5 -20.5t17 -19.5t12 -16.5t8 -12l2 -5l4 -12l-6 -13q-45 -77 -63.5 -139.5t-18.5 -138.5q0 -29 2 -45l-4 -15q-43 -84 -61.5 -150.5t-18.5 -139.5 q0 -20 4 -70l-4 -16q-94 -157 -94 -334q0 -22 4 -68v-8l-6 -8q-3 -6 -15.5 -18.5t-48 -29t-79.5 -16.5h-29q-84 -55 -174 -55q-92 0 -142 61l-1 1l-7 8l3 10q4 54 4 78q0 163 -84 319l-4 13q0 214 -107 385l-4 16q4 54 4 78q0 164 -88 307z" />
<glyph unicode="W" horiz-adv-x="1507" d="M-12 1247l6 13l4 6q3 6 11 17.5t19.5 24.5t30.5 26.5t41.5 24.5t54.5 18t68 7q16 0 32 -2t28.5 -5.5t24 -7t20 -7.5t14.5 -7.5t10 -6.5l4 -2l11 -9v-14q-2 -18 -2 -55q0 -174 84 -310l2 -14q0 -164 45 -276q26 85 26 174q0 44 -6 94l-2 8l4 8q64 110 72 207v2l-6 13l4 10 l3 6q3 6 10.5 17t18 23t27 25.5t36.5 24t48.5 17t59.5 6.5q18 0 35.5 -3t30.5 -7t24.5 -9.5t18.5 -10t12 -7.5l6 -4l10 -9v-14q-2 -18 -2 -49q0 -72 17.5 -122.5t62.5 -127.5l4 -14q0 -123 18 -183q6 43 6 84q0 33 -8 99v10l4 6q86 145 86 303q0 41 -6 84l-2 12l10 11 q5 5 17 13t47 19t75 11q45 0 85 -11.5t65 -27t43.5 -33.5t26 -28.5t8.5 -14.5l6 -10l-6 -13q-80 -148 -80 -294q0 -37 6 -74l-4 -12q-70 -152 -70 -299q0 -50 9 -103l-5 -16q-77 -142 -77 -295q0 -49 10 -111l2 -10l-6 -8q-4 -7 -17 -20.5t-54 -31.5t-93 -18q-41 0 -76 8 t-58.5 20t-42 27t-29 30.5t-17 27.5t-9.5 20l-2 8l-2 9l7 10q-14 7 -25.5 17t-16 16t-4.5 8l-6 8v10q4 31 4 86q0 90 -41 189q-57 -120 -57 -260q0 -33 8 -99l2 -10l-6 -8q-4 -7 -16 -20t-48.5 -31t-82.5 -19q-74 -51 -168 -51q-93 0 -143 61l-1 1l-6 8l2 10q4 54 4 78 q0 165 -83 319l-5 13q0 216 -106 385l-4 16q4 54 4 78q0 164 -88 307z" />
<glyph unicode="X" horiz-adv-x="991" d="M0 217v14l2 11l8 6q156 135 219 356l7 10q20 21 73 93q-23 33 -80 90l-6 6l-2 10q-34 207 -188 361l-10 8l2 14q0 2 2 10.5t9 26t19 35.5t34.5 39.5t51.5 38.5q57 34 123 34q13 0 25.5 -1.5t21 -3.5t16 -4t11.5 -3l4 -2l12 -6l4 -12q38 -180 138 -297q113 125 149 292 l4 13l13 6q26 12 67 12q142 0 216 -128q15 -26 28 -64l2 -15l-10 -10q-152 -143 -199 -332l-6 -14q-40 -43 -82 -98q39 -48 78 -82l8 -6l2 -11q45 -220 209 -368l8 -6l2 -11q0 -117 -121 -186q-58 -35 -119 -35q-28 0 -53.5 8.5t-34 14.5t-12.5 10l-8 6l-2 10 q-27 171 -139 312q-118 -137 -148 -314l-2 -10l-8 -6q-3 -3 -13 -8.5t-35 -13t-52 -7.5q-58 0 -103 19.5t-69.5 46.5t-40.5 58.5t-20.5 52t-4.5 30.5z" />
<glyph unicode="Y" horiz-adv-x="993" d="M-49 1157v12l1 3q32 132 127 185q52 29 118 29q12 0 23 -1.5t18 -2.5l6 -2l12 -4l4 -12q67 -194 217 -305l8 -12q14 -40 33 -74q0 2 1 6.5t1 7.5v8l6 6q145 151 166 359v14l13 6q2 2 11 6t30 8.5t45 4.5q40 0 76 -9.5t61 -24.5t46 -33.5t34 -36.5t22.5 -33.5t13.5 -23.5 l3 -9l2 -12l-9 -11q-137 -155 -155 -342v-6l-6 -6q-140 -180 -152 -377v-8l-6 -6q-146 -166 -158 -381v-10l-8 -7q-2 -4 -13.5 -12t-40 -17t-61.5 -9q-53 0 -110 24q-41 17 -71 40.5t-44 43.5t-21.5 42.5t-8.5 30.5t-1 15l9 19q139 142 176 364v2q-83 146 -172 207l-7 4 l-2 10q-62 203 -227 322z" />
<glyph unicode="Z" horiz-adv-x="937" d="M-18 246v10l2 10l6 6q158 130 215 344l6 13q148 150 186 352l9 14q43 36 73 72q-82 16 -119 16q-51 0 -149 -39l-10 -4l-8 4q-2 0 -12 5t-26 19.5t-30.5 35.5t-25.5 57t-11 80q0 28 5 52.5t12 41t18 31.5t18.5 23t18.5 16t13.5 9t6.5 3l8 4l11 -4q68 -24 116 -24 q120 0 146 26h16q91 -30 146 -30q59 0 151 32l12 4l11 -6q23 -23 31 -33q29 -41 40 -94q13 -12 25 -25t19.5 -25t14 -23.5t10 -21t6 -17t3.5 -12.5l2 -5l2 -12l-10 -10q-152 -140 -192 -322l-7 -12q-157 -160 -192 -358l-8 -15l-58 -55q95 -29 142 -29q54 0 149 33l12 4 l11 -6l1 -1q61 -48 72 -144l2 -21v-14q0 -97 -67 -164l-10 -8l-13 2q-88 26 -141 26q-51 0 -137 -30h-15q-85 18 -129 18q-51 0 -149 -39h-18l-4 2q-4 2 -10.5 6t-14 9t-16.5 13.5t-17 18.5q-15 7 -25 15q-124 67 -124 176z" />
<glyph unicode="[" horiz-adv-x="862" d="M39 82l4 8q45 107 45 234q0 88 -20 172v12q26 107 26 192q0 95 -33 207l-2 8l4 9q43 110 43 219q0 89 -26 174l-4 12l8 10q0 2 10 12t35 25.5t55 24.5q8 20 21 37t21 23.5t12 8.5l16 5q5 0 16.5 -1t16.5 -1q96 0 212.5 27.5t194.5 74.5l11 6l12 -4q2 0 10 -3.5t22 -13.5 t28 -24.5t28.5 -39t23.5 -54.5q9 -34 9 -60q0 -32 -10 -62.5t-17.5 -43t-11.5 -16.5l-8 -11h-15q-82 0 -176 -19.5t-172 -53.5q-4 -29 -4 -82q0 -89 22 -162v-14q-30 -111 -30 -209q0 -107 33 -197l4 -8l-4 -8q-37 -101 -37 -207q0 -49 4 -74q74 -14 172 -14q90 0 160 18 l12 2l10 -6l1 -1q60 -49 68 -138l1 -23q0 -31 -8.5 -59.5t-19.5 -46.5t-23.5 -32.5t-20 -20.5t-10.5 -7l-10 -8l-13 4q-100 33 -246 33q-117 0 -200 -25h-19q-52 26 -77 80q-33 5 -60.5 17t-43 25t-27 26.5t-15.5 22t-4 10.5z" />
<glyph unicode="\" horiz-adv-x="927" d="M31 1217l4 12l3 9q4 8 12.5 23.5t20.5 33.5t33 36.5t46 33.5t61.5 24.5t77.5 9.5q24 0 45.5 -4.5t31 -8.5t11.5 -6l10 -6l2 -14q18 -203 164 -359l8 -14q15 -199 146 -371l6 -12q34 -222 176 -364l6 -9v-10q0 -6 -1 -14.5t-8.5 -31t-21.5 -42.5t-43.5 -43.5t-70.5 -40.5 q-57 -24 -111 -24q-33 0 -61.5 9t-40 17t-13.5 12l-6 7l-2 10q-12 215 -158 381l-6 6v8q-12 198 -151 377l-6 12q-18 186 -156 342z" />
<glyph unicode="]" horiz-adv-x="862" d="M20 53q0 105 69 161l1 1l10 6l13 -2q70 -18 159 -18q98 0 172 14q5 62 5 74q0 106 -37 207l-4 8l4 8q32 88 32 197q0 98 -30 209v14q22 83 22 162q0 38 -6 82q-172 73 -346 73h-12l-9 11q-3 2 -12 16t-18.5 44t-9.5 62q0 31 7 59t17.5 47t23.5 35t25.5 26t23.5 16.5 t17 8.5l6 3l13 4l10 -6q77 -47 194 -74.5t211 -27.5q6 0 18 1t17 1l17 -5l3 -2q4 -3 8 -6.5t9.5 -10t10.5 -13t10.5 -16.5t9.5 -21q57 -17 102 -62l8 -10l-4 -12q-26 -85 -26 -174q0 -109 43 -219l4 -9l-2 -8q-33 -98 -33 -207q0 -93 27 -192v-12q-21 -89 -21 -174 q0 -125 45 -232l4 -8l-4 -10q0 -2 -4 -10t-15 -22t-26.5 -27t-43 -25t-60.5 -17q-28 -55 -78 -80h-19q-86 25 -200 25q-144 0 -244 -33l-14 -4l-11 8q-3 1 -10.5 7t-20 20.5t-23.5 32.5t-19.5 46.5t-8.5 59.5z" />
<glyph unicode="^" horiz-adv-x="722" d="M47 989v8l6 7q134 140 195 305l4 10l8 2q27 12 57 12q31 0 58 -12q8 2 22 2q37 0 74 -18l8 -5l2 -8q73 -192 191 -307l6 -8v-10q-6 -66 -54 -107t-104 -41q-32 0 -63 17l-8 4l-3 8q-39 104 -88 186q-57 -80 -100 -184l-10 -10q-30 -15 -53 -15q-61 0 -104.5 49.5 t-43.5 114.5z" />
<glyph unicode="_" horiz-adv-x="1021" d="M86 -338q0 136 100 186l9 5l10 -5q80 -28 155 -28q66 0 156 22l8 4l8 -4q92 -32 158 -32q57 0 146 28l12 4l10 -6q7 -4 21.5 -18.5t34.5 -58t22 -97.5q0 -110 -76 -186l-10 -8l-14 2q-102 30 -150 30q-50 0 -135 -26l-12 -2q-59 24 -158 24q-71 0 -172 -37h-19 q-8 4 -13 7t-24.5 20t-32 37t-23.5 57.5t-11 81.5z" />
<glyph unicode="`" horiz-adv-x="374" d="M0 1851l4 13q19 55 77 91t126 36q27 0 41 -2l16 -4l2 -17q12 -157 105 -309l4 -8l-2 -9q-13 -50 -56.5 -76t-93.5 -26q-23 0 -33 4l-10 2l-4 10q-65 161 -168 287z" />
<glyph unicode="a" horiz-adv-x="1040" d="M-8 162l6 8q100 153 100 358v35l4 12q76 152 76 312q0 26 -4 80l-2 10l6 8q96 149 96 318q0 19 -4 65v12l9 9l4 3q4 3 9.5 6t14 7.5t19.5 9t24 8t29.5 5.5t34.5 2q54 0 98.5 -15.5t71.5 -40t39 -39t19 -26.5v-1l1 -1l6 -13l-6 -12q-4 -4 -4 -6h14q16 0 31.5 -1t27 -3 t20 -4t13.5 -3l5 -1l12 -9l-2 -14q-2 -16 -2 -47q0 -176 84 -326l4 -12v-27q0 -119 20 -190q29 11 76 37l10 6l13 -4l3 -2l7.5 -5t11 -8t13.5 -12.5t15 -16t15.5 -20.5t14.5 -25.5t13.5 -30.5t10.5 -36q6 -34 6 -61q0 -17 -2 -33t-5.5 -29.5t-8 -24.5t-9 -20l-7.5 -15 t-6 -11l-3 -4l-8 -11l-14 2q-18 2 -56 2q25 -91 82 -184l11 -16l-13 -15q-60 -60 -157 -82q-42 -10 -74 -10q-20 0 -39 3t-32.5 7t-23.5 7.5t-16 6.5l-6 3l-14 8l2 16q0 8 1 25t1 25q0 69 -12 137q-4 -4 -7 -4l-14 -4q-150 0 -260 -37v-31q0 -42 6 -86l2 -10l-6 -8 q-20 -20 -22 -21q-53 -43 -134 -43q-60 0 -106 15.5t-69.5 37.5t-39 44t-18.5 37l-4 16zM471 563q43 15 82 35l16 4q16 -4 27 -4q-19 79 -66 180l-14 47q-45 -116 -45 -235v-27z" />
<glyph unicode="b" horiz-adv-x="1091" d="M57 111l4 8q45 107 45 233q0 88 -20 172v13q27 111 27 192q0 95 -33 207l-2 8l4 8q43 110 43 219q0 87 -27 175l-4 12l8 10l2 2q1 2 3 4t6 5.5l8 7t10 8t12.5 8.5t15 8.5t17.5 8t20 7t23 5.5q9 14 19 26t20.5 20.5t21.5 15.5t21 11.5t19.5 8t17 5.5t13.5 3t9 2h2h11l8 -6 q62 -56 127 -85t162 -47q6 -2 20 -2h8l9 -6q81 -69 154 -100t175 -37h13l8 -12l3 -5q2 -5 5 -14t6 -20t5.5 -27t2.5 -33q0 -43 -16 -90q-14 -40 -35 -67q10 -42 10 -66q0 -10 -1 -20.5t-2.5 -17.5t-3 -12.5t-2.5 -8.5l-1 -4l-4 -13l-12 -4q-136 -39 -228 -110 q102 -89 236 -125l12 -4l6 -13l2 -7q1 -7 2.5 -19.5t1.5 -26.5q0 -34 -10 -67q31 -55 31 -121q0 -24 -4 -46.5t-8 -33t-6 -12.5l-7 -11l-14 -2q-204 -24 -344 -149l-12 -6q-111 -23 -182 -53.5t-138 -96.5l-18 -8q-5 0 -11.5 0.5t-24 5.5t-34.5 13t-38.5 26t-39.5 43 q-43 10 -73.5 34t-40 40.5t-9.5 21.5zM430 356q35 19 55 35l15 12l6 7l10 2q60 3 129 22q-73 40 -139 62l-12 6l-17 16q-2 -1 -16 -10q-25 -81 -31 -152zM442 1106q0 -68 23 -145v-15q-15 -61 -16 -69l28 28l6 8l9 2q118 27 210 93q-54 12 -112 18l-12 6q-110 63 -136 74z " />
<glyph unicode="c" horiz-adv-x="1054" d="M16 227l4 9q40 73 57 126t17 119q0 39 -6 92l2 13q51 122 51 225q0 49 -14 131l-2 10l4 6q48 91 61 158q-36 49 -36 135q0 48 11 87t26.5 60.5t32.5 36t27 19t13 4.5l10 4l9 -4q98 -49 217 -49q85 0 114 10l9 2l8 -4q118 -53 207 -53q58 0 129 18l12 2l8 -8 q5 -3 17.5 -18t27.5 -55.5t15 -90.5v-16q-5 -108 -86 -178l-13 -8l-12 4q-116 49 -199 49q-47 0 -116 -16l-15 2q-8 1 -102 24q-2 -20 -2 -57q0 -36 10 -94v-9l-2 -6q-55 -127 -55 -233q0 -56 16 -131l2 -8l-4 -9q-58 -113 -63 -194q24 4 43.5 9t49 16t44.5 16q12 4 18 8 l8 4l9 -2q63 -14 122 -14q106 0 230 59l12 6l10 -6q4 -2 10.5 -6.5t20.5 -18t26.5 -31t24.5 -46.5t17 -62q2 -14 2 -41q0 -19 -3 -37.5t-7.5 -33t-10 -27.5t-11.5 -22.5t-10.5 -16.5t-8.5 -12l-3 -4l-10 -11l-12 4q-75 11 -113 11q-101 0 -219 -56l-8 -4l-6 2q-16 0 -45 2 t-43 2q-153 0 -285 -69l-10 -4l-8 2q-27 7 -62 35q-61 50 -69 131q-32 17 -54.5 43t-29.5 40.5t-7 18.5z" />
<glyph unicode="d" horiz-adv-x="1064" d="M57 106l4 11q45 107 45 231q0 87 -20 174v13q27 111 27 192q0 96 -33 205l-2 10l4 8q43 107 43 217q0 87 -27 176l-4 13l8 10q3 6 19.5 20.5t62 33t101.5 18.5h20q59 47 127 47q13 0 25 -1.5t19 -3.5l7 -1l9 -4l4 -11q35 -72 107.5 -145.5t156.5 -130.5l18 -8l8 -4l5 -9 q91 -187 276 -280l12 -4l2 -15q2 -8 2 -18q0 -60 -41 -123q43 -61 43 -131v-10l-2 -15l-12 -6q-178 -97 -264 -264l-2 -8l-6 -2q-84 -50 -164.5 -135.5t-120.5 -173.5l-4 -9l-10 -4q-10 -10 -54 -10q-58 0 -118 41q-40 -8 -68 -8q-44 0 -81 10.5t-58 25.5t-35.5 31t-19.5 26 t-5 13zM434 735q0 -106 33 -196l4 -9l-4 -8q-18 -52 -25 -86q15 20 42 53.5t34 42.5l4 9l8 4q129 65 215 176q-80 105 -200 168l-10 10q-49 65 -80 100q2 -12 10 -41v-14q-31 -115 -31 -209z" />
<glyph unicode="e" horiz-adv-x="1003" d="M57 106l4 11q45 107 45 231q0 87 -20 174v13q27 111 27 192q0 96 -33 205l-2 10l4 8q43 107 43 217q0 87 -27 176l-4 13l8 10q3 6 19.5 20.5t62 33t101.5 18.5q90 0 153 -47q66 7 125 26l8 4l11 -2q95 -30 151 -30q64 0 162 36l12 5l11 -7q7 -4 21.5 -18t35 -56.5 t24.5 -95.5v-18q0 -101 -67 -168l-10 -8l-15 4q-99 22 -145 22q-56 0 -148 -30l-14 -2q-88 16 -158 16q7 -60 23 -111v-14q-9 -28 -16 -72q55 -14 108 -14q69 0 158 27l12 4l10 -8q2 -1 9 -7t18 -21t21 -34t17 -49t7 -63q0 -108 -80 -183l-10 -8l-14 4q-110 37 -183 37 q-31 0 -61 -6l6 -12l4 -9l-4 -8q-24 -68 -33 -135q19 4 48 8t48 6t21 2l8 3l8 -5q115 -47 178 -47q46 0 136 23l12 4l10 -8q66 -66 66 -176q0 -24 -5 -47t-12.5 -40.5t-16 -32.5t-17.5 -25.5t-16 -18.5t-12 -13l-5 -4l-13 -6l-12 4q-110 41 -174 41q-46 0 -119 -18h-14 q-16 3 -34.5 7t-41.5 9t-35 8q-60 -69 -182 -69q-44 0 -81 10.5t-58 25.5t-35.5 31t-19.5 26t-5 13z" />
<glyph unicode="f" horiz-adv-x="972" d="M57 106l4 11q45 107 45 231q0 87 -20 174v13q27 111 27 192q0 96 -33 205l-2 10l4 8q43 107 43 217q0 87 -27 176l-4 13l8 10q3 6 19.5 20.5t62 33t101.5 18.5q90 0 153 -47q66 7 125 26l8 4l11 -2q95 -30 151 -30q64 0 162 36l12 5l11 -7q7 -4 21.5 -18t35 -56.5 t24.5 -95.5v-18q0 -101 -67 -168l-10 -8l-15 4q-99 22 -145 22q-56 0 -148 -30l-14 -2q-88 16 -158 16q7 -60 23 -111v-14q-9 -28 -16 -72q55 -14 108 -14q69 0 158 27l12 4l10 -8q2 -1 9 -7t18 -21t21 -34t17 -49t7 -63q0 -108 -80 -183l-10 -8l-14 4q-110 37 -183 37 q-31 0 -61 -6l6 -12l4 -9l-4 -8q-37 -104 -37 -209q0 -107 35 -202l4 -11l-4 -8q-3 -6 -7 -12.5t-20.5 -24t-37.5 -30t-58.5 -23t-81.5 -10.5t-81 10.5t-58 25.5t-35.5 31t-19.5 26t-5 13z" />
<glyph unicode="g" horiz-adv-x="1140" d="M16 227l4 9q40 73 57 126t17 119q0 39 -6 92l2 13q51 122 51 225q0 49 -14 131l-2 10l4 6q48 91 61 158q-36 49 -36 135q0 48 11 87t26.5 60.5t32.5 36t27 19t13 4.5l10 4l9 -4q98 -49 217 -49q85 0 114 10l9 2l8 -4q118 -53 207 -53q58 0 129 18l12 2l8 -8 q5 -3 17.5 -18t27.5 -55.5t15 -90.5v-16q-5 -108 -86 -178l-13 -8l-12 4q-116 49 -199 49q-47 0 -116 -16l-15 2q-8 1 -102 24q-2 -20 -2 -57q0 -36 10 -94v-9l-2 -6q-55 -127 -55 -233q0 -56 16 -131l2 -8l-4 -9q-58 -113 -63 -194q24 4 43.5 9t49 16t44.5 16q12 4 18 8 l8 4l9 -2q60 -14 118 -14h39q-2 10 -10 39v16q27 85 27 147q0 70 -39 168l-4 13l6 10q0 1 6.5 9.5t22.5 21t37 24.5t55.5 20.5t72.5 8.5q46 0 88.5 -16.5t55.5 -26.5t22 -19l8 -8l-4 -12q-22 -90 -22 -143q0 -66 37 -156v-14q-15 -76 -15 -136q0 -87 43 -184l4 -8l-2 -10 l-2 -5q-2 -4 -6 -10t-10.5 -15t-16 -18t-21.5 -18.5t-28.5 -17.5t-36 -14.5t-45 -10.5t-53.5 -4q-99 0 -153 59q-36 -10 -107 -41l-8 -4l-6 2q-16 0 -45 2t-43 2q-153 0 -285 -69l-10 -4l-8 2q-27 7 -62 35q-61 50 -69 131q-32 17 -54.5 43t-29.5 40.5t-7 18.5z" />
<glyph unicode="h" horiz-adv-x="1253" d="M57 111l4 8q45 107 45 233q0 88 -20 172v13q27 111 27 192q0 95 -33 207l-2 8l4 8q43 110 43 219q0 87 -27 175l-4 12l8 10q3 6 19.5 20.5t62 33t101.5 18.5q57 0 104.5 -21t64.5 -37.5t21 -23.5l10 -10l-6 -13q-37 -110 -37 -213q0 -85 23 -161v-15q-27 -94 -27 -182 q0 -81 21 -186l33 18l14 2q18 -4 51 -4q108 0 213 55q4 50 4 76q0 98 -29 205v16q31 95 31 182q0 107 -39 205l-6 13l6 10q2 4 7.5 11.5t22 23t37 28t54.5 22t72 9.5q123 0 213 -90l10 -12l-4 -13q-41 -113 -41 -233q0 -85 20 -158v-14q-30 -87 -32 -162q16 12 24 20l10 -4 l4 -2q3 -1 7.5 -3t11.5 -5.5t13.5 -8t15 -11.5t15.5 -15t15 -19t14 -23t11 -27.5t8 -32.5q4 -32 4 -47q0 -82 -37 -156l-8 -14q-40 4 -69 4q-21 0 -31 -2q-4 -27 -4 -82q0 -107 28 -217l2 -8l-4 -9q-1 -4 -7.5 -13.5t-22.5 -26t-37.5 -31t-56.5 -25t-76 -10.5t-77 9.5 t-57.5 22t-39 27.5t-23.5 23.5t-8 11.5l-6 10l4 11q38 101 45 227q-107 -21 -209 -80l-12 -4q-12 0 -49.5 -1t-57.5 -1q8 -96 29 -143l4 -11l-4 -8q-3 -6 -7 -12.5t-20.5 -23.5t-37.5 -29t-58.5 -22.5t-81.5 -10.5t-81 10.5t-58 25t-35.5 30.5t-19.5 25.5t-5 12.5z" />
<glyph unicode="i" horiz-adv-x="544" d="M57 111l4 8q45 107 45 233q0 88 -20 172v13q27 111 27 192q0 95 -33 207l-2 8l4 8q43 110 43 219q0 87 -27 175l-4 12l8 10q3 6 19.5 20.5t62 33t101.5 18.5q57 0 104.5 -21t64.5 -37.5t21 -23.5l10 -10l-6 -13q-37 -110 -37 -213q0 -85 23 -161v-15q-31 -115 -31 -209 q0 -106 33 -196l4 -9l-4 -8q-37 -101 -37 -207q0 -109 35 -204l4 -11l-4 -8q-3 -6 -7 -12.5t-20.5 -23.5t-37.5 -29t-58.5 -22.5t-81.5 -10.5t-81 10.5t-58 25t-35.5 30.5t-19.5 25.5t-5 12.5z" />
<glyph unicode="j" horiz-adv-x="989" d="M-35 512q0 94 84 170q73 66 162 66q5 0 10.5 -0.5t9 -1t6 -1t3.5 -0.5l14 -4l4 -12q40 -93 84.5 -144.5t126.5 -103.5l8 -10q63 -108 80 -131v6q0 84 -18 176v13q26 107 26 192q0 96 -33 205l-2 10l5 8q43 107 43 217q0 87 -27 176l-4 13l8 10q1 2 7.5 9t22 18t35 21 t51 17t66.5 7q57 0 104.5 -21t65 -37.5t21.5 -23.5l10 -10l-6 -13q-37 -110 -37 -213q0 -86 23 -162v-14q-31 -115 -31 -209q0 -106 33 -196l4 -9l-4 -8q-37 -104 -37 -209q0 -107 35 -202l2 -11l-5 -8q0 -2 -5.5 -12t-20.5 -25t-36.5 -29t-58.5 -24t-81 -10q-32 0 -72 8 l-8 -8q-74 -66 -150 -66q-17 0 -32 3.5t-22 6.5t-9 5l-8 4l-4 10q-31 87 -75.5 147t-123.5 113l-8 4l-2 8q-38 97 -85 153t-137 112l-10 6z" />
<glyph unicode="k" horiz-adv-x="1110" d="M57 106l4 11q45 107 45 231q0 87 -20 174v13q27 111 27 192q0 96 -33 205l-2 10l4 8q43 107 43 217q0 87 -27 176l-4 13l8 10q3 6 19.5 20.5t62 33t101.5 18.5q57 0 104.5 -21t64.5 -37.5t21 -23.5l10 -10l-6 -13q-37 -110 -37 -213q0 -86 23 -162v-14q-1 -5 -19 -78 q71 83 117 199l4 8l8 4q185 107 259 297l6 12l12 3l4 1q4 1 11 2t14 1q80 0 157 -62q44 -36 68.5 -83t27.5 -66.5t3 -32.5v-14l-13 -9q-174 -110 -243 -282l-11 -10q-29 -20 -79 -66q34 -140 124 -246l5 -12q22 -114 49 -178t90 -133l8 -9v-10q0 -5 -1 -13.5t-8.5 -30 t-21 -41.5t-42 -44t-66.5 -41q-55 -24 -105 -24q-33 0 -61 10.5t-39.5 19.5t-13.5 13l-7 6l-2 10q-3 83 -25 144.5t-75 144.5l-20 20v11q-3 54 -15 106q-79 -59 -135 -135v-23q0 -107 35 -202l4 -11l-4 -8q-3 -6 -7 -12.5t-20.5 -24t-37.5 -30t-58.5 -23t-81.5 -10.5 t-81 10.5t-58 25.5t-35.5 31t-19.5 26t-5 13z" />
<glyph unicode="l" horiz-adv-x="958" d="M57 111l4 8q45 107 45 233q0 88 -20 172v13q27 111 27 192q0 95 -33 207l-2 8l4 8q43 110 43 219q0 87 -27 175l-4 12l8 10q3 6 19.5 20.5t62 33t101.5 18.5q57 0 104.5 -21t64.5 -37.5t21 -23.5l10 -10l-6 -13q-37 -110 -37 -213q0 -85 23 -161v-15q-31 -115 -31 -209 q0 -106 33 -196l4 -9l-4 -8q-25 -66 -35 -145l62 10l8 4l8 -4q109 -41 217 -41q87 0 176 27l15 4l10 -8q69 -69 71 -176q0 -114 -80 -184l-1 -1l-11 -8l-12 4q-107 37 -209 37q-80 0 -166 -25h-14q-37 11 -92 21q-62 -43 -154 -43q-44 0 -81 10.5t-58 25t-35.5 30.5 t-19.5 25.5t-5 12.5z" />
<glyph unicode="m" horiz-adv-x="1503" d="M-10 150l4 8q90 148 90 336q0 41 -2 61l2 12q66 150 66 295q0 27 -9 101l-2 8l4 8q84 144 84 297q0 42 -6 88l-2 14l10 8q5 5 17.5 13.5t49 20.5t77.5 12q44 0 83.5 -11.5t63 -26.5t42.5 -33.5t25.5 -28t8.5 -13.5l8 -12l-6 -13l-12 -20q12 -3 23.5 -6.5t17 -5.5t6.5 -2 l12 -9v-14q0 -201 103 -367l4 -12q0 -66 12 -127q31 102 31 201q0 33 -2 51l-2 8l6 8q106 153 106 340v39l-2 13l10 8q4 4 15.5 11t43 16.5t66.5 9.5q46 0 86 -12t65 -28t45.5 -37t28 -32t12.5 -20l1 -2l6 -13l-8 -12l-10 -14q12 -4 22.5 -9.5t15 -8.5t5.5 -3l12 -10l-2 -14 q-8 -66 -8 -99q0 -143 63 -278l2 -15q-4 -29 -4 -86q0 -155 64 -286l4 -4v-9q0 -6 -1 -17t-1 -17q0 -162 82 -314l8 -16l-13 -12q-32 -32 -95 -56q-59 -22 -122 -22q-37 0 -71 9.5t-48.5 17t-17.5 10.5l-12 8l2 16q8 47 8 105q0 116 -43 241v11q2 18 2 57q0 100 -31 215 q-8 -47 -8 -105q0 -19 4 -65l-4 -16q-100 -150 -100 -332q3 -8 10 -15l12 -14l-12 -16l-22 -23q-93 -81 -220 -82q-62 0 -104 21l-14 6l2 16q0 177 -78 340l-2 11q-6 152 -86 317q-8 -49 -8 -109q0 -55 8 -102l2 -8l-4 -8q-76 -137 -76 -291q0 -66 10 -115l2 -10l-6 -8 q-1 -3 -6 -9t-19 -17.5t-31.5 -21.5t-46 -17t-61.5 -7q-57 0 -102 14.5t-68.5 35t-38.5 41.5t-20 35l-4 15z" />
<glyph unicode="n" horiz-adv-x="1224" d="M57 106l4 9q45 107 45 233q0 88 -20 172v12q27 111 27 193q0 95 -33 207l-2 8l4 8q43 110 43 219q0 85 -27 174l-4 13l8 10q3 6 19.5 20.5t62 33t101.5 18.5q73 0 133 -35h16q25 0 48 -5t33.5 -9.5t12.5 -6.5l13 -6l2 -12q21 -206 143 -346l6 -6v-6q23 -158 103 -283v2 q0 101 -31 209v16q43 110 43 223q0 81 -25 170l-4 13l8 10q3 6 19.5 20.5t62 33t101.5 18.5q35 0 67.5 -8t53 -19.5t37.5 -24t24 -20.5t8 -10l8 -11l-4 -12q-39 -115 -39 -215q0 -77 25 -160v-14q-31 -112 -31 -207q0 -108 33 -198v-17q-39 -101 -39 -211q0 -100 35 -200 l4 -11l-4 -8q-3 -6 -7 -12.5t-20.5 -23.5t-37 -29t-57.5 -22.5t-81 -10.5q-85 0 -139 35h-10q-32 0 -60 9.5t-39.5 17.5t-13.5 12l-8 6v10q-9 197 -150 379l-4 10q-23 131 -86 244q3 -93 33 -178l4 -9l-4 -8q-37 -101 -37 -207q0 -109 35 -204l4 -11l-4 -8q-3 -6 -7 -12.5 t-20.5 -23.5t-37.5 -29t-58.5 -22.5t-81.5 -10.5t-81 10.5t-58 25t-35.5 30.5t-19.5 25.5t-5 12.5z" />
<glyph unicode="o" d="M16 227l4 9q40 73 57 126t17 119q0 39 -6 92l2 13q51 122 51 225q0 49 -14 131l-2 10l4 6q48 91 61 158q-36 49 -36 135q0 48 11 87t26.5 60.5t32.5 36t27 19t13 4.5l10 4l9 -4q98 -49 217 -49q85 0 114 10l9 2l8 -4q110 -50 192 -53q68 29 127 29q22 0 42.5 -3.5t37 -9 t30.5 -12t25 -13.5t18 -12.5t12 -9.5l5 -4l10 -10l-4 -12q-22 -90 -22 -160q0 -93 41 -193l4 -6l-2 -8q-14 -89 -14 -141q0 -125 55 -244l4 -6l-4 -10q-23 -94 -23 -154q0 -99 54 -213l4 -8l-4 -10q0 -2 -5.5 -13.5t-22 -30t-40.5 -35.5t-66 -29.5t-94 -12.5q-75 0 -129 37 q-94 -12 -178 -52l-6 -4l-6 2q-16 0 -47 2t-47 2q-188 0 -320 -69l-10 -4l-8 2q-27 7 -62 35q-61 50 -69 131q-32 17 -54.5 43t-29.5 40.5t-7 18.5zM406 332q150 18 196 49l8 4l8 -2q63 -14 134 -14q44 0 88 6q-7 47 -31 127l-2 12q12 67 12 131q0 122 -53 246l-4 8l2 10 q25 89 27 150q-36 4 -54 4q-47 0 -116 -16l-15 2q-8 1 -102 24q-2 -20 -2 -57q0 -36 10 -94v-9l-2 -6q-55 -127 -55 -233q0 -56 16 -131l2 -8l-4 -9q-58 -116 -63 -194z" />
<glyph unicode="p" horiz-adv-x="1050" d="M55 88l4 8q45 107 45 234q0 88 -20 172v12q27 111 27 193q0 94 -33 206l-2 9l4 8q43 110 43 219q0 85 -27 174l-4 12l8 11q50 50 117 65q10 16 23.5 30t26.5 22.5t26 15.5t24.5 11t20 6t15.5 4l7 1h11l8 -6q63 -55 128 -84t161 -47q3 0 10 -1t10 -1h8l9 -6 q81 -69 154 -100t175 -37h13l8 -11l5 -12q6 -13 11.5 -36.5t5.5 -49.5q0 -45 -16 -92q-15 -45 -35 -70q18 -45 18 -90q0 -9 -1 -17.5t-2 -14.5l-1 -5l-2 -12l-12 -4q-188 -82 -293 -234l-10 -10q-74 -31 -157 -96.5t-138 -138.5v-31q0 -110 35 -205l4 -10l-4 -8 q-3 -6 -7 -12.5t-20.5 -23.5t-37.5 -29.5t-58.5 -23t-81.5 -10.5t-81 10.5t-58 25t-35.5 30.5t-19.5 26t-5 13zM432 758q46 46 51 63l6 8l9 2q130 49 227 146q-66 21 -137 27l-13 6q-106 60 -135 73q0 -65 23 -145v-14q-25 -90 -31 -166z" />
<glyph unicode="q" d="M16 227l4 9q40 73 57 126t17 119q0 39 -6 92l2 13q51 122 51 225q0 49 -14 131l-2 10l4 6q48 91 61 158q-36 49 -36 135q0 48 11 87t26.5 60.5t32.5 36t27 19t13 4.5l10 4l9 -4q98 -49 217 -49q85 0 114 10l9 2l8 -4q110 -50 192 -53q68 29 127 29q22 0 42.5 -3.5t37 -9 t30.5 -12t25 -13.5t18 -12.5t12 -9.5l5 -4l10 -10l-4 -12q-22 -90 -22 -160q0 -93 41 -193l4 -6l-2 -8q-14 -89 -14 -141q0 -125 55 -244l4 -6l-4 -10q-23 -94 -23 -154q0 -99 54 -213l4 -8l-4 -10q0 -2 -5.5 -13.5t-22 -30t-40.5 -35.5t-66 -29.5t-94 -12.5q-75 0 -129 37 q-52 -9 -65 -13v-12q0 -104 45 -203l4 -10l-4 -8q0 -2 -5 -12.5t-20.5 -28.5t-38 -34t-63 -28t-90.5 -12q-36 0 -66.5 8.5t-48 19.5t-31.5 25t-18 20.5t-6 10.5l-4 8l2 11q22 67 22 141q0 23 -4 59q-132 -17 -213 -61l-10 -4l-8 2q-27 7 -62 35q-61 50 -69 131 q-32 17 -54.5 43t-29.5 40.5t-7 18.5zM406 332q150 18 196 49l8 4l8 -2q63 -14 134 -14q44 0 88 6q-7 47 -31 127l-2 12q12 67 12 131q0 122 -53 246l-4 8l2 10q25 89 27 150q-36 4 -54 4q-47 0 -116 -16l-15 2q-8 1 -102 24q-2 -20 -2 -57q0 -36 10 -94v-9l-2 -6 q-55 -127 -55 -233q0 -56 16 -131l2 -8l-4 -9q-58 -116 -63 -194z" />
<glyph unicode="r" horiz-adv-x="1089" d="M55 74l4 8q45 107 45 233q0 88 -20 172v13q27 111 27 192q0 95 -33 207l-2 8l4 8q43 110 43 220q0 87 -27 176l-4 12l8 10l2 2q1 2 3 4t6 5.5l8 7t10 8t12.5 8.5t15 8.5t17.5 8t20 7t23 5.5q10 16 23.5 30t26.5 22.5t26 15.5t24.5 11t20 6t15.5 4l7 1h11l8 -6 q146 -131 309 -131l17 -7q80 -70 153 -100.5t176 -36.5l13 -2l8 -10l5 -12q6 -13 11.5 -36.5t5.5 -49.5q0 -45 -16 -92q-14 -41 -35 -68q18 -45 18 -88q0 -10 -1 -19.5t-2 -14.5l-1 -5l-2 -12l-12 -6q-133 -57 -215 -142q31 -82 115 -160l6 -10q34 -172 164 -284l8 -5v-10 q0 -8 -0.5 -14t-6 -28t-16.5 -40.5t-35.5 -43t-58.5 -44.5q-61 -35 -119 -35q-25 0 -47 7t-30 12t-11 8l-6 4l-2 10q-9 72 -39.5 133.5t-87.5 131.5q-10 10 -14 12l-6 6v8q-16 99 -47 152q-84 -63 -150 -148v-30q0 -110 35 -205l4 -8l-4 -11q-3 -6 -7 -12.5t-20.5 -23.5 t-37.5 -29t-58.5 -22.5t-81.5 -10.5t-81 10.5t-58 25t-35.5 30.5t-19.5 25.5t-5 12.5zM432 745q37 37 51 62l15 12q140 52 229 146q-62 20 -139 26l-13 4q-126 71 -135 76q0 -67 23 -147v-15q-25 -91 -31 -164z" />
<glyph unicode="s" horiz-adv-x="907" d="M4 176q0 50 20.5 88.5t34.5 49.5t23 16l8 6l10 -2q61 -12 97 -12q24 0 51.5 6t45.5 12t79 27l8 4l8 -2q62 -11 84 -13q-16 26 -63 76l-7 10q-28 101 -70.5 172t-113.5 136l-8 6v8q-35 205 -182 340l-9 8v12q0 4 3 15t15.5 35t31.5 45q-2 6 -2 18q0 31 8 58.5t18 43.5 t22.5 29t18.5 17t10 6l9 4l10 -2q63 -13 94 -13q12 0 24 1.5t20.5 3t25 6t24 7l31.5 10.5t35 11q12 4 18 8l8 5l9 -2q73 -15 118 -15q74 0 189 53l12 7l12 -7l3 -2q3 -2 8 -5t11 -8t13 -12.5t14.5 -16t14.5 -20t13.5 -24.5t11.5 -30t8 -35q4 -28 4 -43q0 -18 -3 -36 t-7.5 -32t-10 -26t-11.5 -21t-10.5 -15.5t-8.5 -11.5l-3 -4l-10 -8l-14 2q-75 10 -109 10q-44 0 -81 -10.5t-97 -38.5l-6 -4l-8 2q-18 0 -45 1t-37 1q43 -71 100 -123l6 -10q29 -109 71.5 -180.5t115.5 -134.5l8 -15q21 -106 58.5 -172.5t117.5 -134.5l6 -6l2 -10 q0 -105 -108 -176q-13 -29 -35 -51l-8 -11l-15 2q-86 11 -110 11q-42 0 -79.5 -11t-96.5 -39l-15 -2q-19 0 -51 2.5t-43 2.5q-51 0 -86.5 -11.5t-105.5 -46.5l-11 -6l-8 2q-5 1 -14 4.5t-32 19.5t-40.5 37.5t-32 62.5t-14.5 91z" />
<glyph unicode="t" horiz-adv-x="927" d="M-16 1264q0 132 100 182l8 4l10 -4q83 -29 179 -29q116 0 182 23l8 4l8 -4q98 -33 187 -33q76 0 178 31l12 4l10 -8q7 -4 21.5 -18t34 -56t20.5 -94q0 -29 -5.5 -55.5t-13 -44.5t-17 -34.5t-17.5 -25.5t-15 -16l-6 -7l-10 -8l-14 4q-99 29 -178 29h-29v-51q0 -79 22 -162 v-12q-30 -111 -30 -195q0 -92 33 -182l4 -8l-4 -9q-37 -104 -37 -194q0 -85 34 -186l5 -11l-5 -8q-3 -6 -7 -12.5t-20.5 -23.5t-37 -29t-58 -22.5t-81.5 -10.5q-147 0 -199 104l-4 10l4 9q45 107 45 213q0 77 -20 161v13q26 98 26 184t-31 184l-4 9l4 8q40 99 43 217h-10 q-102 0 -203 -37l-8 -2l-10 4q-3 0 -12.5 5t-25.5 19.5t-30.5 35t-25 56.5t-10.5 79z" />
<glyph unicode="u" horiz-adv-x="1193" d="M20 203l5 8q63 126 63 238q0 42 -10 114v12q43 119 43 222q0 54 -21 147l-2 8l4 9q62 127 62 256q0 58 -17 135l-4 14l11 8q3 5 17.5 17.5t55 27.5t90.5 15q46 0 85.5 -12t65.5 -32t36.5 -29.5t18.5 -20.5l1 -1l8 -12l-6 -12q-53 -123 -53 -252q0 -59 12 -121v-14 q-47 -133 -47 -232q0 -66 21 -143v-16q-53 -115 -53 -209q19 4 39 11t48 17.5l44 16.5l16 4q66 -8 92 -8q67 0 129 18q-10 68 -26 121l-3 12q15 73 15 148q0 129 -47 250v16q28 85 28 182q0 107 -39 211l-6 12l9 13l1 1q48 61 145 77q26 4 54 4q106 0 172 -66l10 -10l-4 -15 q-24 -88 -24 -174q0 -102 37 -200v-15q-19 -90 -19 -161q0 -129 49 -242l4 -8l-2 -8q-24 -86 -24 -170q0 -125 51 -242l4 -8l-4 -11l-2 -4q-2 -5 -6 -11t-10.5 -14.5t-16 -18t-21.5 -18.5t-28.5 -17.5t-36 -15t-45 -10t-53.5 -3.5q-123 0 -174 76q-59 -17 -121 -52l-12 -2 q-86 0 -132 -2.5t-109.5 -19t-117.5 -49.5l-8 -6l-10 2q-1 1 -12 5t-20 8.5t-24 16t-27.5 26.5t-26.5 40.5t-25 58.5q-33 16 -56.5 40.5t-30.5 39t-7 19.5z" />
<glyph unicode="v" horiz-adv-x="1038" d="M-6 1247l6 13l4 6q3 6 11 17.5t19.5 24.5t30.5 26.5t41.5 24.5t54.5 18t68 7q16 0 32 -2t28.5 -5.5t24 -7t20 -7.5t14.5 -7.5t10 -6.5l4 -2l11 -9v-14q-2 -18 -2 -55q0 -174 84 -310l2 -14q0 -196 73 -336q66 138 66 271q0 40 -2 63l4 16q49 74 68.5 139t19.5 148 q0 9 -1 28.5t-1 29.5v12l8 8l5 3q5 4 11.5 8t18.5 9t24.5 9t30.5 7t37 3q25 0 48.5 -4t41.5 -11.5t34.5 -16.5t29 -19.5t22.5 -20.5t17 -19.5t12 -16.5t8 -12l2 -5l4 -12l-6 -13q-45 -77 -63.5 -139.5t-18.5 -138.5q0 -29 2 -45l-4 -15q-43 -84 -61.5 -150.5t-18.5 -139.5 q0 -20 4 -70l-4 -16q-94 -157 -94 -334q0 -22 4 -68v-8l-6 -8q-3 -6 -15.5 -18.5t-48 -29t-79.5 -16.5h-29q-84 -55 -174 -55q-92 0 -142 61l-1 1l-7 8l3 10q4 54 4 78q0 163 -84 319l-4 13q0 214 -107 385l-4 16q4 54 4 78q0 164 -88 307z" />
<glyph unicode="w" horiz-adv-x="1507" d="M-12 1247l6 13l4 6q3 6 11 17.5t19.5 24.5t30.5 26.5t41.5 24.5t54.5 18t68 7q16 0 32 -2t28.5 -5.5t24 -7t20 -7.5t14.5 -7.5t10 -6.5l4 -2l11 -9v-14q-2 -18 -2 -55q0 -174 84 -310l2 -14q0 -164 45 -276q26 85 26 174q0 44 -6 94l-2 8l4 8q64 110 72 207v2l-6 13l4 10 l3 6q3 6 10.5 17t18 23t27 25.5t36.5 24t48.5 17t59.5 6.5q18 0 35.5 -3t30.5 -7t24.5 -9.5t18.5 -10t12 -7.5l6 -4l10 -9v-14q-2 -18 -2 -49q0 -72 17.5 -122.5t62.5 -127.5l4 -14q0 -123 18 -183q6 43 6 84q0 33 -8 99v10l4 6q86 145 86 303q0 41 -6 84l-2 12l10 11 q5 5 17 13t47 19t75 11q45 0 85 -11.5t65 -27t43.5 -33.5t26 -28.5t8.5 -14.5l6 -10l-6 -13q-80 -148 -80 -294q0 -37 6 -74l-4 -12q-70 -152 -70 -299q0 -50 9 -103l-5 -16q-77 -142 -77 -295q0 -49 10 -111l2 -10l-6 -8q-4 -7 -17 -20.5t-54 -31.5t-93 -18q-41 0 -76 8 t-58.5 20t-42 27t-29 30.5t-17 27.5t-9.5 20l-2 8l-2 9l7 10q-14 7 -25.5 17t-16 16t-4.5 8l-6 8v10q4 31 4 86q0 90 -41 189q-57 -120 -57 -260q0 -33 8 -99l2 -10l-6 -8q-4 -7 -16 -20t-48.5 -31t-82.5 -19q-74 -51 -168 -51q-93 0 -143 61l-1 1l-6 8l2 10q4 54 4 78 q0 165 -83 319l-5 13q0 216 -106 385l-4 16q4 54 4 78q0 164 -88 307z" />
<glyph unicode="x" horiz-adv-x="991" d="M0 217v14l2 11l8 6q156 135 219 356l7 10q20 21 73 93q-23 33 -80 90l-6 6l-2 10q-34 207 -188 361l-10 8l2 14q0 2 2 10.5t9 26t19 35.5t34.5 39.5t51.5 38.5q57 34 123 34q13 0 25.5 -1.5t21 -3.5t16 -4t11.5 -3l4 -2l12 -6l4 -12q38 -180 138 -297q113 125 149 292 l4 13l13 6q26 12 67 12q142 0 216 -128q15 -26 28 -64l2 -15l-10 -10q-152 -143 -199 -332l-6 -14q-40 -43 -82 -98q39 -48 78 -82l8 -6l2 -11q45 -220 209 -368l8 -6l2 -11q0 -117 -121 -186q-58 -35 -119 -35q-28 0 -53.5 8.5t-34 14.5t-12.5 10l-8 6l-2 10 q-27 171 -139 312q-118 -137 -148 -314l-2 -10l-8 -6q-3 -3 -13 -8.5t-35 -13t-52 -7.5q-58 0 -103 19.5t-69.5 46.5t-40.5 58.5t-20.5 52t-4.5 30.5z" />
<glyph unicode="y" horiz-adv-x="993" d="M-49 1157v12l1 3q32 132 127 185q52 29 118 29q12 0 23 -1.5t18 -2.5l6 -2l12 -4l4 -12q67 -194 217 -305l8 -12q14 -40 33 -74q0 2 1 6.5t1 7.5v8l6 6q145 151 166 359v14l13 6q2 2 11 6t30 8.5t45 4.5q40 0 76 -9.5t61 -24.5t46 -33.5t34 -36.5t22.5 -33.5t13.5 -23.5 l3 -9l2 -12l-9 -11q-137 -155 -155 -342v-6l-6 -6q-140 -180 -152 -377v-8l-6 -6q-146 -166 -158 -381v-10l-8 -7q-2 -4 -13.5 -12t-40 -17t-61.5 -9q-53 0 -110 24q-41 17 -71 40.5t-44 43.5t-21.5 42.5t-8.5 30.5t-1 15l9 19q139 142 176 364v2q-83 146 -172 207l-7 4 l-2 10q-62 203 -227 322z" />
<glyph unicode="z" horiz-adv-x="937" d="M-18 246v10l2 10l6 6q158 130 215 344l6 13q148 150 186 352l9 14q43 36 73 72q-82 16 -119 16q-51 0 -149 -39l-10 -4l-8 4q-2 0 -12 5t-26 19.5t-30.5 35.5t-25.5 57t-11 80q0 28 5 52.5t12 41t18 31.5t18.5 23t18.5 16t13.5 9t6.5 3l8 4l11 -4q68 -24 116 -24 q120 0 146 26h16q91 -30 146 -30q59 0 151 32l12 4l11 -6q23 -23 31 -33q29 -41 40 -94q13 -12 25 -25t19.5 -25t14 -23.5t10 -21t6 -17t3.5 -12.5l2 -5l2 -12l-10 -10q-152 -140 -192 -322l-7 -12q-157 -160 -192 -358l-8 -15l-58 -55q95 -29 142 -29q54 0 149 33l12 4 l11 -6l1 -1q61 -48 72 -144l2 -21v-14q0 -97 -67 -164l-10 -8l-13 2q-88 26 -141 26q-51 0 -137 -30h-15q-85 18 -129 18q-51 0 -149 -39h-18l-4 2q-4 2 -10.5 6t-14 9t-16.5 13.5t-17 18.5q-15 7 -25 15q-124 67 -124 176z" />
<glyph unicode="{" horiz-adv-x="968" d="M-6 754q0 39 10.5 71t25.5 50.5t31 31t26 17t13 4.5l11 4l8 -4q101 -37 241 -37h27q-33 90 -72 131l-6 8v8q-1 102 -21 158.5t-77 128.5l-8 10l2 13q11 34 48 73q72 76 185 76q48 0 88 -18q155 20 279 88l10 6l12 -4l5 -3q5 -2 12.5 -6.5t17 -11.5t20 -18t20.5 -24.5 t19 -32.5t15 -41q8 -27 8 -58q0 -33 -11 -64.5t-19.5 -44t-12.5 -16.5l-10 -10h-37q-106 0 -219 -37q4 -8 16 -20l4 -13q2 -8 8 -40t7.5 -37.5t7 -30.5t7.5 -30.5t8.5 -26t11 -28t12.5 -24.5t16.5 -28.5t19.5 -27t25 -32.5l6 -6v-10q0 -3 -1 -10t-6 -23t-14 -32t-27 -35.5 t-42 -34.5q13 -11 24 -24.5t17.5 -24.5t11.5 -20t8 -15l3 -6l4 -13l-8 -12q-65 -83 -83 -126t-24 -136l-4 -14q-42 -57 -63 -101q132 -33 227 -33q11 0 61 5l13 2l8 -9q49 -49 49 -133q0 -25 -2 -37q-5 -31 -18 -58t-26 -42.5t-29 -29t-22.5 -17.5t-11.5 -6l-12 -4l-12 4 q-136 65 -316 65q-51 0 -94 -6l-10 -2l-8 6q-7 0 -33 29q-47 8 -82.5 29t-53 43.5t-28.5 47.5t-13.5 38t-2.5 18v8l6 8q119 136 119 287l6 17q76 88 96 149q-23 2 -63 2q-119 0 -217 -29l-11 -2l-8 4q-2 0 -11.5 5t-24.5 18.5t-28.5 33t-23.5 52t-10 70.5z" />
<glyph unicode="|" horiz-adv-x="538" d="M55 33l4 10q45 125 45 268q0 99 -20 199v14q27 125 27 221q0 113 -33 238l-2 8l4 10q43 125 43 252q0 99 -27 201l-4 14l8 13q1 3 7.5 10.5t22 20t35.5 23.5t51.5 19.5t66.5 8.5q36 0 68.5 -9.5t53 -22.5t37 -28t23 -23.5t8.5 -11.5l10 -12l-6 -14q-37 -124 -37 -244 q0 -98 23 -186v-17q-31 -130 -31 -239q0 -122 33 -228l4 -10l-4 -8q-37 -118 -37 -238q0 -126 35 -235l4 -12l-4 -11q-46 -92 -160 -109q-22 -3 -45 -3q-44 0 -81 12t-58 28.5t-35.5 35t-19.5 30.5t-5 15z" />
<glyph unicode="}" horiz-adv-x="968" d="M27 1374q0 42 12 77.5t29 56t34 35.5t29 21l12 5l13 4l10 -6q121 -68 276 -88q36 18 88 18q30 0 58 -5.5t48.5 -14t38.5 -20.5t31 -24.5t23 -25t16.5 -23.5t11 -19.5t6 -13t1.5 -3.5l4 -13l-8 -10q-58 -73 -78 -129.5t-20 -157.5v-8l-7 -8q-35 -35 -71 -131h24 q138 0 244 37l8 4l10 -4q3 0 13 -4.5t26 -17t30.5 -31t25.5 -50.5t12 -71q0 -38 -10 -70.5t-23.5 -52t-28.5 -33t-24.5 -18.5t-11.5 -5l-11 -4l-8 2q-102 29 -217 29q-43 0 -63 -2q21 -65 94 -149l6 -7v-10q0 -75 32 -150.5t87 -136.5l6 -8v-8q0 -24 -19 -63 q-45 -94 -161 -113q-6 -8 -14 -15t-13 -10l-4 -4l-8 -6l-11 2q-43 6 -94 6q-181 0 -317 -65l-12 -4l-13 4l-4 3q-4 2 -10.5 6.5t-14.5 11t-17 15.5t-18 20t-16.5 25.5t-14 30.5t-10 36t-3.5 42q0 24 5 45.5t12 36.5t14 26t12 18l6 7l10 9l12 -2q45 -5 62 -5q91 0 223 33 l-43 74l-16 27l-6 14q-6 93 -23.5 136t-81.5 126l-8 12l4 13q0 3 5 15t20 34.5t36 40.5q-24 15 -41.5 34.5t-26.5 35.5t-14.5 31.5t-6.5 23t-1 10.5v10l6 6q63 76 93 145t30 160l6 13l15 20q-113 37 -217 37h-39l-8 10q-4 4 -12.5 16.5t-19.5 44t-11 64.5z" />
<glyph unicode="~" horiz-adv-x="933" d="M47 686v8l6 6q132 135 199 304l4 10l8 4q36 8 58 8q32 0 59 -12q6 2 20 2q34 0 74 -19l10 -12q39 -107 82 -176q58 101 82 192l2 11l11 4q29 16 67 16q61 0 108 -41.5t50 -97.5v-10l-6 -6q-128 -146 -187 -330l-10 -12q-26 -17 -63 -17q-25 0 -43 6q-30 -12 -62 -12 t-61 16l-9 4l-2 9q-36 104 -86 188q-51 -70 -102 -182l-10 -12q-26 -13 -51 -13q-65 0 -106.5 49.5t-41.5 114.5z" />
<glyph unicode="&#xa1;" horiz-adv-x="532" d="M57 59l4 13q41 121 41 256q0 92 -20 159v15q3 18 12 60t13.5 65.5t9 59.5t4.5 67q0 80 -23 145l-2 10l4 9q2 3 7.5 11t21 22.5t34.5 26.5t49.5 21t63.5 9t63 -9.5t48.5 -22t33.5 -27.5t20.5 -22.5t7.5 -11.5l4 -10l-4 -8q-23 -68 -23 -149q0 -123 27 -234v-16 q-31 -88 -31 -187q0 -126 37 -248l4 -12l-8 -10q-8 -8 -24.5 -20.5t-67.5 -32t-107 -19.5q-34 0 -66 8t-53 19t-38 23t-24.5 20t-8.5 10zM121 1147l4 14q20 59 20 109q0 32 -10 65l-4 13l8 10q54 57 148 57q92 0 143 -57l10 -10l-4 -13q-10 -29 -10 -67q0 -52 20 -105l5 -14 l-11 -10q-59 -56 -153 -56q-92 0 -156 54z" />
<glyph unicode="&#xa2;" horiz-adv-x="985" d="M43 346l4 8q29 83 29 156q0 118 -25 156v16q33 95 33 158q0 55 -29 147l-4 12l8 11l1 2l4.5 4.5l6 6t8.5 8t10.5 9t13 9t16 9t18.5 8.5t21 7q13 41 32 60l9 6h8q91 0 162 26q8 55 8 125q0 120 -25 203l-2 10l4 10q0 3 5 12.5t18.5 24t32.5 28t51.5 23t70.5 9.5 q39 0 71.5 -11t50.5 -25.5t31 -31t17.5 -26.5t4.5 -13l4 -8l-4 -10q-31 -92 -43 -213q34 15 94 65l10 9l12 -5q5 0 23.5 -9t51.5 -43.5t54 -84.5q21 -51 21 -102q0 -26 -5 -49.5t-9.5 -34t-6.5 -12.5l-6 -11l-12 -2q-97 -4 -138 -19t-110 -71l-10 -6q-132 0 -240 -84 q5 -42 29 -111v-12q-23 -121 -23 -158v-30q92 -53 207 -53h8l7 -7q74 -62 127 -81t143 -21h12l8 -10q2 -2 7.5 -12.5t11.5 -35t6 -51.5q0 -43 -16 -90q-33 -103 -129 -151l-13 -4l-10 8q-77 57 -104 67v-71q0 -97 16 -160l2 -12l-6 -11l-1 -1q-49 -59 -138 -67 q-12 -1 -23 -1q-31 0 -59 8.5t-46 19.5t-33 23.5t-21 20t-7 10.5l-8 10l4 14q33 116 33 242q0 47 -2 72q-67 26 -146 26h-34l-9 6q-20 20 -32 58q-75 23 -107 88z" />
<glyph unicode="&#xa3;" horiz-adv-x="1216" d="M39 680q0 132 104 184h19q57 -21 119 -28v4l4 10q43 107 43 194q0 70 -27 158l-2 12l8 11q0 2 9 11.5t32 23.5t51 22q7 18 16 34t19 27.5t21 21t21.5 16t21 11.5t18.5 7.5t14.5 4.5t9.5 2l3 1l8 2l8 -6q74 -54 200.5 -95.5t229.5 -41.5h12l9 -11q3 -3 10 -14.5t15.5 -41 t8.5 -62.5q0 -35 -8 -68q-9 -32 -24.5 -60t-31.5 -44.5t-32 -28.5t-25.5 -16.5t-11.5 -4.5l-12 -6l-10 9q-109 66 -244 94v-6q0 -72 23 -148v-14l-6 -21h2q56 0 151 29l12 4l13 -8l1 -1q64 -49 75 -144l2 -25q0 -33 -8 -64t-18.5 -51t-22.5 -36t-20 -23t-11 -8l-11 -9l-14 5 q-106 28 -154 28l13 -33l2 -8l-4 -8q-25 -77 -29 -98q3 0 13 1t17 2t17 4t19 9h16q98 -31 168 -31q75 0 176 37l12 4l11 -6q3 -1 9.5 -6.5t19 -19.5t23 -32t19 -48t10.5 -64v-18q0 -22 -3.5 -42.5t-9.5 -36.5t-13 -30t-14 -24.5t-13 -18t-10 -11.5l-4 -5l-10 -8l-15 4 q-91 24 -157 24q-78 0 -166 -32h-15q-76 12 -118 14q-62 -47 -160 -47q-146 0 -199 106l-4 8l4 11q45 107 45 200q0 70 -20 154v12l8 31q-43 -4 -131 -33l-10 -2l-11 4q-2 0 -12.5 5.5t-26.5 20t-31 35.5t-25.5 57t-10.5 79z" />
<glyph unicode="&#xa4;" horiz-adv-x="1310" d="M54 398q2 21 4.5 29.5t4.5 12.5l5 11l8 4q75 38 157 114q-10 5 -24 19q-33 27 -53 58t-26.5 53.5t-6.5 46.5t2 32.5t4 14.5l2 8l10 4q75 43 131 106q-99 103 -196 156l-8 4l-5 8q-2 4 -4.5 12.5t-4.5 30t1.5 44.5t19 53.5t42.5 58.5t57 43.5t52 19t44 1t30 -5.5t13 -5 l9 -6l4 -8q53 -101 143 -195q52 50 96 152l6 10l13 4h1q10 2 22 2t38 -2.5t57.5 -17t61.5 -39.5l20 -21q9 0 18.5 -1t16.5 -2t12.5 -2t8.5 -2l4 -1l10 -4l4 -8l19 -33q90 90 133 166l6 12l12 2l4 1q4 0 9.5 0.5t13.5 0.5t17.5 -1.5t20.5 -4t23.5 -7t25 -11t26 -16.5 t26.5 -23q11 -11 20.5 -23t16 -23.5t11.5 -23.5t8 -22.5t5 -21.5t2.5 -19t0.5 -16v-12.5v-8.5l-1 -4l-2 -12l-12 -7q-78 -44 -158 -118l5 -2l2 -13q0 -1 0.5 -3.5t1 -6.5t0.5 -8q27 -11 63 -39q90 -73 90 -180v-13l-12 -8q-64 -39 -96 -66.5t-56 -66.5q81 -78 160 -121 l12 -6l2 -14l1 -4v-8.5v-12.5t-0.5 -16t-2.5 -19t-5 -21.5t-8 -22.5t-11.5 -23.5t-16 -23.5t-20.5 -23q-13 -12 -26.5 -22t-26 -16.5t-25 -11t-23.5 -7t-20.5 -3.5t-17.5 -1h-13.5t-9.5 1h-4l-12 2l-6 13q-38 66 -115 143q-38 -54 -66 -127l-2 -8l-10 -6l-12.5 -5t-30.5 -6 t-46.5 0t-58 18t-67.5 42q-24 21 -39 39l-16 2l-12 2l-9 10q-34 55 -63 88q-87 -93 -137 -188l-4 -8l-9 -5q-4 -2 -12.5 -5t-30.5 -5.5t-44 1t-52 19.5t-57 44t-42.5 58.5t-19 52.5t-1.5 43zM555 737q53 -85 131 -137q30 43 49 80q4 6 8 18l5 9l8 4q32 17 71 45 q-34 52 -64.5 81.5t-74.5 55.5q-14 -24 -35 -74l-4 -8l-6 -4l-25 -19q-30 -21 -63 -51z" />
<glyph unicode="&#xa5;" horiz-adv-x="1177" d="M41 1137v12l1 3q32 132 127 185q52 29 118 29q12 0 23 -1.5t18 -2.5l6 -2l12 -4l4 -13q67 -194 217 -305l8 -12q14 -40 33 -74q0 2 1 7t1 8v8l6 6q145 151 166 358v15l13 6q2 2 11 5.5t30 8t45 4.5q40 0 76 -9.5t61 -24.5t46 -33.5t34 -36.5t22.5 -33.5t13.5 -24.5l3 -8 l2 -12l-9 -10q-137 -155 -155 -342v-6l-6 -7q-55 -75 -86 -133q35 10 43 13l12 4l10 -8q7 -4 22 -18.5t35 -58.5t21 -98q0 -110 -76 -186l-10 -8l-14 4q-108 31 -154 31h-12q-95 -139 -107 -314v-10l-8 -6q-2 -4 -13.5 -12t-40 -17.5t-61.5 -9.5q-50 0 -110 25 q-41 17 -71 40.5t-44 43.5t-21.5 42.5t-8.5 30.5t-1 15l9 18q60 60 102 139q-34 -7 -100 -28h-19q-89 44 -103 160q-3 20 -3 42q0 41 10 75t24 54t29.5 34t25.5 19t13 5l8 4l11 -2q57 -22 102 -27q-57 72 -96 99l-6 4l-2 10q-62 200 -228 321z" />
<glyph unicode="&#xa6;" horiz-adv-x="530" d="M68 -106l4 8q28 80 28 155q0 83 -22 156l-4 8l4 8q33 95 33 160q0 54 -29 146l-4 12l6 10l1 1q49 60 142 73l39 2q51 0 95.5 -19t62 -35t20.5 -22l11 -10l-4 -12q-31 -105 -31 -152q0 -51 26 -133l3 -14q-25 -64 -25 -158q0 -69 37 -170l4 -10l-4 -9q-4 -8 -7 -13 t-20.5 -24.5t-38 -32t-59 -23.5t-84.5 -11q-131 0 -180 98zM68 868l4 9q28 80 28 155q0 86 -22 156l-4 10l4 8q33 95 33 158q0 53 -29 145l-4 13l6 10q4 7 19 22t60.5 34.5t102.5 19.5q104 0 178 -74l11 -10l-4 -15q-31 -105 -31 -149q0 -50 26 -135l3 -13q-25 -61 -25 -157 q0 -71 37 -172l4 -9l-4 -10q-4 -8 -7 -13t-20 -24.5t-37.5 -32t-58 -23.5t-82.5 -11q-40 0 -73.5 10t-52.5 23t-33.5 29.5t-18.5 24.5t-6 13z" />
<glyph unicode="&#xa7;" horiz-adv-x="970" d="M66 174q0 31 8 58.5t18 43.5t22.5 29t18.5 17t10 6l9 4l8 -2q58 -15 106 -15q56 0 111 15q-67 49 -110 63.5t-140 22.5l-12 2l-9 10q-2 2 -7.5 13.5t-12 36t-6.5 50.5q0 34 14 72q-12 32 -12 49v4l8 15q82 86 143 229q-22 5 -106 12l-12 2l-9 11q-2 2 -7.5 13.5t-12 36 t-6.5 50.5q0 56 16 92q-30 58 -30 133q0 31 8 58.5t18 43.5t22.5 29t18.5 17t10 6l9 4l8 -2q58 -12 106 -12q74 0 195 41l8 4l8 -2q80 -17 119 -17q71 0 174 47l12 4l11 -4q4 -2 10 -6t19.5 -17t24.5 -29.5t22.5 -44.5t15.5 -60q2 -14 2 -39q0 -40 -13.5 -77t-23 -49.5 t-16.5 -19.5l-9 -8l-14 2q-89 14 -119 14q-55 0 -129 -32q66 -38 124 -56.5t132 -21.5h10l7 -6q5 -2 15 -13.5t22 -40t12 -61.5q0 -14 -2 -22q6 -9 12 -19.5t10 -18.5t7 -15t4 -10l2 -3l2 -12l-9 -8q-90 -104 -143 -261q32 -4 51 -4h10l7 -6q47 -47 47 -114q0 -40 -17 -84 l-6 -11q21 -49 25 -78q2 -14 2 -38q0 -40 -13.5 -77t-23 -49.5t-16.5 -19.5l-9 -8l-14 2q-73 12 -115 12q-62 0 -159 -43l-13 -2q-44 8 -100 8q-101 0 -215 -57l-8 -4l-11 2q-3 0 -14 4.5t-30.5 19.5t-36.5 37t-30 63t-13 91zM412 641q29 -7 90 -10q35 48 80 135 q-45 20 -99 29q-46 -75 -71 -154z" />
<glyph unicode="&#xa8;" horiz-adv-x="718" d="M0 1782l12 12q65 59 181 59q96 0 137 -41l12 -10l-6 -14q-27 -70 -27 -135q0 -35 4 -51l2 -11l-8 -8q-49 -49 -139 -49q-68 0 -111 29l-12 6l2 16q2 12 2 35q0 78 -41 147zM393 1796l13 8q59 47 143 47q90 0 158 -55l12 -12l-6 -17q-43 -85 -43 -161v-19v-12l-11 -8 q-50 -29 -106 -29q-76 0 -137 45l-10 8l2 13q2 18 2 53q0 63 -15 125z" />
<glyph unicode="&#xa9;" horiz-adv-x="1472" d="M51 190l4 9q41 106 41 202q0 61 -20 156l2 12q24 95 24 174q0 85 -30 179l-2 8l4 8q39 101 39 195q0 72 -25 161l-2 13l6 10l2 3q1 2 4 6t6.5 8.5t9.5 9.5t13 10t16.5 10t20.5 8q15 85 90 123h16q89 -41 183 -41q57 0 141 19h10q89 -25 158 -25q79 0 162 29h14 q100 -41 182 -41q68 0 144 24l10 4l8 -8q41 -21 55 -88q22 -10 39.5 -25.5t25.5 -25.5l7 -10l8 -11l-4 -12q-35 -110 -35 -192q0 -64 23 -148v-12q-29 -102 -29 -187q0 -81 31 -172v-16q-35 -95 -35 -188q0 -78 31 -176l4 -9l-4 -10l-1 -4q-2 -5 -5.5 -11t-8.5 -14 t-13.5 -16.5t-19 -16.5t-26.5 -15t-35 -11q-3 -16 -8 -31t-11 -25.5t-12 -19.5t-12 -15t-10.5 -9.5t-8.5 -5.5l-3 -3l-11 -8l-10 4q-92 35 -176 35q-65 0 -129 -20h-12q-98 28 -166 28q-75 0 -158 -30h-14q-87 34 -166 34q-71 0 -162 -32l-8 -2l-8 4q-2 0 -8.5 2t-18 9.5 t-22 19t-21 33t-14.5 48.5q-22 14 -38.5 33.5t-22 31t-5.5 15.5zM350 373q0 -53 8 -97q32 -4 50 -4q48 0 141 21h10q89 -25 158 -25q71 0 160 29l8 4l6 -4q88 -39 176 -39h27q20 78 20 141q0 60 -20 158v12q24 95 24 174q0 81 -28 179v16q40 104 40 197q0 33 -2 51 q-18 2 -51 2q-63 0 -131 -21h-12q-94 27 -168 27q-78 0 -158 -29l-6 -4l-8 4q-90 35 -166 35q-21 0 -57 -4q-11 -68 -11 -106q0 -62 23 -146v-12q-29 -113 -29 -184q0 -80 31 -175l2 -8l-2 -8q-35 -100 -35 -184zM479 481l2 17q23 131 23 229q0 99 -23 217l-2 17l15 8l34 14 q3 43 23 78l8 12l14 -2q88 -12 181 -12q88 0 176 12l16 2l6 -14q23 -42 23 -98q0 -55 -21 -101l-8 -14l-16 2q-83 14 -176 14h-45q-4 -47 -4 -141q0 -84 2 -125q18 -2 57 -2q88 0 162 14l16 2l8 -14q21 -44 21 -96t-21 -103l-6 -16l-18 4q-77 14 -164 14t-164 -14l-18 -4 l-7 18q-5 12 -14 50q-34 5 -65 24z" />
<glyph unicode="&#xaa;" horiz-adv-x="931" d="M-20 555v10l6 6q54 68 89.5 174t35.5 185v8l6 8q59 78 94 196.5t37 215.5v14l10 8q3 3 13 8.5t37 13t57 7.5q49 0 102 -20q49 22 119 22q25 0 48 -5.5t38 -14t25.5 -16.5t16.5 -15l7 -6l4 -19q-2 -12 -2 -35q0 -134 82 -294q3 -10 10 -17l6 -8l-2 -8q0 -4 -1 -13.5 t-1 -13.5q0 -97 40 -212.5t91 -194.5l6 -13l-4 -12l-16 -27q-64 -91 -181 -101l-26 -1q-33 0 -64.5 9.5t-44.5 17t-16 10.5l-12 8l2 12q0 22 -4 72q-27 2 -78 2q-72 0 -154 -10v-51l2 -9l-8 -8q-2 -5 -14.5 -15.5t-45 -23t-71.5 -12.5q-164 0 -221 114q-10 19 -18 54z M129 182q0 119 98 168h19q101 -33 246 -33q116 0 204 27l13 4l10 -8l1 -1q71 -53 77 -157q0 -50 -19.5 -92.5t-33.5 -57t-23 -20.5l-10 -8l-13 4q-94 23 -196 23q-148 0 -248 -35l-10 -4l-11 4q-5 2 -13.5 6t-25.5 18t-30.5 33t-24 53.5t-10.5 75.5zM426 756h61h33 q-13 29 -47 92l-4 -12q-7 -17 -23.5 -45t-19.5 -35z" />
<glyph unicode="&#xab;" horiz-adv-x="1413" d="M47 823q0 20 5.5 40t10.5 29t7 11l4 8l10 2q87 28 199 103.5t172 154.5l8 11h12q17 0 59 -16q126 -49 139 -172q1 -13 1 -27q0 -13 -1.5 -24.5t-2.5 -18.5l-2 -6l-4 -13l-13 -6q-128 -48 -264 -170q132 -132 258 -186l12 -4l5 -13l1 -6q1 -5 2 -14.5t1 -20.5 q0 -137 -135 -193q-28 -11 -76 -20h-13l-8 13q-59 82 -161.5 160.5t-190.5 111.5l-14 12q-2 2 -6 10t-8.5 26.5t-4.5 37.5q0 39 23 86q-25 42 -25 94zM723 823q0 20 5.5 40t10 29t6.5 11l5 8l10 2q87 28 198.5 103.5t171.5 154.5l9 11h12q17 0 59 -16q126 -49 139 -172 q1 -13 1 -27q0 -13 -2 -24.5t-4 -18.5l-1 -6l-4 -13l-12 -6q-128 -48 -264 -170q132 -132 258 -186l12 -4l4 -13l1 -6q1 -5 2 -14.5t1 -20.5q0 -137 -135 -193q-28 -11 -76 -20h-12l-8 13q-59 82 -161.5 160.5t-190.5 111.5l-15 12q-2 2 -5.5 10t-8 26.5t-4.5 37.5 q0 39 23 86q-25 42 -25 94z" />
<glyph unicode="&#xac;" horiz-adv-x="1212" d="M47 664q0 138 100 188h19q91 -31 201 -31q121 0 200 25h17q101 -37 200 -37q84 0 193 33l14 4l10 -8q26 -26 37 -44q22 -36 31 -79q17 -8 31 -19t23 -22t15 -19.5t10 -14.5l3 -7l2 -10l-2 -9q-41 -112 -41 -276q0 -104 20 -174l5 -12l-9 -11l-1 -1q-54 -72 -158 -72 q-31 0 -59 8t-46.5 18.5t-33.5 23t-21.5 20t-7.5 9.5l-6 11l2 14q28 103 28 227q0 53 -6 103h-39q-88 0 -174 -27h-14q-113 23 -191 23q-128 0 -229 -37l-8 -2l-10 4q-2 0 -12.5 5.5t-26.5 20t-30.5 36t-25 58.5t-10.5 81z" />
<glyph unicode="&#xad;" horiz-adv-x="954" d="M51 686q0 136 101 186l8 5l10 -5q80 -28 156 -28q65 0 155 22l8 4l9 -4q92 -32 157 -32q57 0 146 28l12 4l10 -6q7 -4 21.5 -18.5t34.5 -58t22 -97.5q0 -110 -76 -186l-10 -8l-14 2q-102 30 -150 30q-50 0 -135 -26l-12 -2q-59 24 -158 24q-71 0 -172 -37h-18q-8 4 -13 7 t-25 20t-32 37t-23.5 57.5t-11.5 81.5z" />
<glyph unicode="&#xae;" horiz-adv-x="1472" d="M51 190l4 9q41 106 41 202q0 61 -20 156l2 12q24 95 24 174q0 85 -30 179l-2 8l4 8q39 101 39 195q0 72 -25 161l-2 13l6 10l2 3q1 2 4 6t6.5 8.5t9.5 9.5t13 10t16.5 10t20.5 8q15 85 90 123h16q89 -41 183 -41q57 0 141 19h10q89 -25 158 -25q79 0 162 29h14 q100 -41 182 -41q68 0 144 24l10 4l8 -8q41 -21 55 -88q22 -10 39.5 -25.5t25.5 -25.5l7 -10l8 -11l-4 -12q-35 -110 -35 -192q0 -64 23 -148v-12q-29 -102 -29 -187q0 -81 31 -172v-16q-35 -95 -35 -188q0 -78 31 -176l4 -9l-4 -10l-1 -4q-2 -5 -5.5 -11t-8.5 -14 t-13.5 -16.5t-19 -16.5t-26.5 -15t-35 -11q-3 -16 -8 -31t-11 -25.5t-12 -19.5t-12 -15t-10.5 -9.5t-8.5 -5.5l-3 -3l-11 -8l-10 4q-92 35 -176 35q-65 0 -129 -20h-12q-98 28 -166 28q-75 0 -158 -30h-14q-87 34 -166 34q-71 0 -162 -32l-8 -2l-8 4q-2 0 -8.5 2t-18 9.5 t-22 19t-21 33t-14.5 48.5q-22 14 -38.5 33.5t-22 31t-5.5 15.5zM350 373q0 -53 8 -97q32 -4 50 -4q48 0 141 21h10q89 -25 158 -25q71 0 160 29l8 4l6 -4q88 -39 176 -39h27q20 78 20 141q0 60 -20 158v12q24 95 24 174q0 81 -28 179v16q40 104 40 197q0 33 -2 51 q-18 2 -51 2q-63 0 -131 -21h-12q-94 27 -168 27q-78 0 -158 -29l-6 -4l-8 4q-90 35 -166 35q-21 0 -57 -4q-11 -68 -11 -106q0 -62 23 -146v-12q-29 -113 -29 -184q0 -80 31 -175l2 -8l-2 -8q-35 -100 -35 -184zM487 401l2 17q15 141 15 276t-15 267l-2 16l15 6 q51 29 104 29h6q11 19 31 39l12 10l17 -8q131 -76 301 -88l18 -2l2 -19q0 -4 1 -12t1 -12q0 -90 -61 -164l-12 -15l-17 9q-88 43 -194 69q-2 -45 -2 -137q0 -135 12 -264v-15l-12 -8q-43 -24 -101 -24q-56 0 -106 24z" />
<glyph unicode="&#xaf;" horiz-adv-x="538" d="M0 1667q0 41 21.5 78t58.5 59l8 4l8 -2q113 -20 197 -20q79 0 164 16l10 2l8 -6q64 -48 64 -129v-12q-6 -79 -70 -115l-8 -4l-8 2q-116 25 -222 25q-71 0 -157 -13l-15 4q-59 32 -59 111z" />
<glyph unicode="&#xb0;" horiz-adv-x="684" d="M23 1090l10 10q108 96 172 250l6 12l12 2q6 2 23 2q58 0 112 -41q47 35 109 35q21 0 39 -6l10 -4l4 -11q46 -144 131 -252l4 -6v-6q0 -67 -49 -110q4 -14 4 -47q-1 -37 -19.5 -68.5t-47.5 -48.5l-8 -4l-9 2q-94 20 -198 20q-87 0 -181 -16l-8 -2l-8 4q-59 33 -59 119 q0 29 12 59q-45 36 -59 94zM279 1040h59q51 0 76 2q-23 47 -60 97q-33 -36 -75 -99z" />
<glyph unicode="&#xb1;" horiz-adv-x="952" d="M51 -31q0 39 9.5 72.5t23 53t28.5 33.5t25 20t14 8h1l8 4l10 -4q83 -29 156 -29q61 0 155 23l8 4l9 -4q95 -33 157 -33q57 0 146 28l12 5l10 -7q7 -4 21.5 -18.5t34.5 -58t22 -97.5q0 -110 -76 -186l-10 -8l-14 2q-102 30 -150 30q-50 0 -135 -26l-12 -2q-59 24 -158 24 q-74 0 -172 -36h-18q-84 42 -101 152q-4 24 -4 50zM51 676q0 41 10 75t24 53.5t29.5 33.5t25.5 19t12 5l8 4l10 -2q74 -30 158 -30h12q-6 87 -25 155v19q3 7 6.5 12.5t19 23t33.5 29.5t51 22.5t71 10.5q39 0 71 -11t50.5 -26t31 -31.5t17 -26.5t4.5 -12l4 -10l-4 -8 q-24 -61 -37 -158h22q54 0 146 29l12 4l10 -6q7 -4 21.5 -18.5t34.5 -58t22 -97.5q0 -111 -76 -187l-10 -8l-14 4q-99 29 -148 29q-18 0 -26 -2v-31q0 -95 16 -155l2 -15l-6 -10l-1 -1q-49 -60 -138 -68q-12 -1 -23 -1q-31 0 -59.5 8.5t-47 20.5t-32 24t-20.5 20l-7 9l-8 13 l4 12q21 75 31 172q-70 -3 -164 -37h-18q-8 4 -13 7t-25 20t-32 37t-23.5 57.5t-11.5 81.5z" />
<glyph unicode="&#xb2;" horiz-adv-x="663" d="M45 1280q0 29 8.5 54t17 38t25.5 26t19.5 14t14.5 6l1 1h14q88 -37 232 -37q71 0 129 15l8 2l8 -4q2 -1 7.5 -5.5t14.5 -15.5t17 -25t13.5 -36t5.5 -47q-3 -50 -27 -90q4 -10 7 -20t3.5 -15t1.5 -6v-11l-8 -6q-76 -67 -170 -233h33q73 0 125 14l10 2l8 -6q20 -20 26 -29 q29 -42 29 -100q0 -13 -2 -25t-5 -22.5t-7 -20t-8.5 -17t-9.5 -14.5t-9.5 -12t-8.5 -9t-7 -6.5t-5 -4.5l-3 -2l-8 -6l-10 4q-83 24 -193 24q-96 0 -164 -18h-14q-80 40 -80 143v13q-16 33 -16 57q0 5 0.5 9.5t1 7t0.5 3.5l8 13q39 31 100 112t105 160q-79 -3 -146 -20l-6 -2 l-8 4q-2 0 -9 4t-19 14.5t-23 26t-19 41.5t-8 57z" />
<glyph unicode="&#xb3;" horiz-adv-x="679" d="M39 1280q0 29 8.5 54t17 38t25.5 26t19.5 14t14.5 6v1h1h14q88 -37 232 -37q71 0 129 15l8 2l8 -4l3 -3q3 -2 6 -5t8 -8.5t9.5 -11.5t9.5 -15t9 -19q23 -11 53 -41l7 -8l-3 -10q-18 -68 -18 -189q0 -173 31 -264l2 -8l-2 -8q-1 -1 -3 -5t-7 -11.5t-11 -14.5 q-2 -25 -11.5 -48t-15.5 -31.5t-10 -12.5l-6 -8l-12 2h-33q-80 0 -168.5 -21t-146.5 -55l-14 -2l-5 2q-6 1 -17 5.5t-22.5 11.5t-24.5 20t-23 29.5t-16.5 42t-6.5 55.5q0 13 2 24.5t5 21t7 18t9 15t9.5 12t9 9.5t7.5 7l5 5l3 1l15 2q40 -5 57 -5q71 0 155 19q0 4 1.5 13 t1.5 14q-55 -3 -111 -15l-10 -4l-6 6q-3 0 -14.5 10.5t-24.5 39t-13 65.5q0 11 1.5 21t4 19t6 17t7 14.5t7.5 12t8 10t7.5 8l6 6l4.5 4.5l2 1l6 6l10 -4q48 -14 113 -17v31q-54 4 -76 4q-90 0 -162 -20l-6 -2l-8 4q-2 0 -9 4t-19 14.5t-23 26t-19 41.5t-8 57z" />
<glyph unicode="&#xb4;" horiz-adv-x="413" d="M0 1657l8 8q125 137 193 301l6 12h12q6 2 19 2q66 0 118 -46.5t56 -110.5l2 -13l-11 -6q-68 -53 -115 -113.5t-98 -146.5l-4 -8l-12 -2q-3 0 -10 -1t-10 -1q-53 0 -95.5 32t-54.5 81z" />
<glyph unicode="&#xb5;" horiz-adv-x="1191" d="M55 -145l4 10q54 120 54 287q0 77 -17 167v13q33 106 33 262q0 125 -25 217l-4 8l4 8q52 123 52 295q0 102 -23 189l-2 12l8 10q66 66 185 66q26 0 50 -4.5t42 -12.5t34 -17t27 -18t18.5 -17t12.5 -12l4 -5l8 -10l-6 -15q-45 -113 -45 -284q0 -112 20 -179l3 -8l-5 -6 q-36 -115 -36 -274q0 -132 24 -205l49 20l17 4q66 -8 92 -8q63 0 131 19q-7 44 -29 120v13q15 76 15 147q0 126 -48 250l-4 8l2 8q29 88 29 183q0 107 -39 211l-4 12l6 12l1 1q49 60 143 76q27 5 57 5q23 0 44.5 -3.5t38 -9t31 -12.5t25.5 -14t18 -12.5t12 -9.5l5 -4l8 -11 l-4 -14q-24 -89 -24 -174q0 -106 36 -201l2 -14q-18 -85 -18 -164q0 -127 49 -240v-16q-24 -85 -24 -170q0 -125 51 -242l4 -8l-4 -10q0 -2 -5.5 -12.5t-21 -28t-38.5 -33.5t-63 -27.5t-89 -11.5q-123 0 -174 76q-63 -18 -121 -51l-15 -2h-63q-68 0 -117 -8q5 -61 27 -140 l2 -10l-4 -8q-2 -5 -6.5 -11.5t-20.5 -22t-36 -27.5t-54.5 -21.5t-75.5 -9.5q-48 0 -87 11t-60.5 26t-36.5 32t-20 27.5t-5 13.5z" />
<glyph unicode="&#xb6;" horiz-adv-x="1138" d="M39 1108q0 52 24 100l7 11h14q102 6 175.5 37t154.5 100l6 6h8q4 0 11 1t10 1q95 18 160.5 46.5t129.5 84.5l6 6h11q9 0 25.5 -3t53 -27t60.5 -66q46 -5 86 -25t55.5 -34.5t18.5 -20.5l8 -10l-4 -12q-39 -115 -39 -216q0 -79 24 -159v-15q-30 -111 -30 -208 q0 -107 33 -197v-16q-37 -101 -37 -207q0 -113 34 -205l3 -10l-5 -9q-3 -6 -7 -12.5t-20.5 -23.5t-36.5 -29t-57 -22.5t-81 -10.5q-148 0 -201 105l-2 10l4 8q45 112 45 227v13q-55 70 -133.5 132.5t-157.5 102.5l-10 10q-108 152 -293 234l-14 4l-2 12q-4 4 -4 37 q0 51 18 90q-51 65 -51 160zM391 977q97 -97 227 -146l11 -2l4 -8q13 -23 57 -67q-8 69 -31 149v17q33 77 43 178q-71 -23 -159 -88l-15 -6q-74 -6 -137 -27z" />
<glyph unicode="&#xb7;" horiz-adv-x="442" d="M55 850l11 10q58 55 153 55q93 0 156 -53l10 -10l-4 -14q-21 -62 -21 -109q0 -28 11 -65l4 -13l-8 -10q-54 -57 -146 -57q-94 0 -145 57l-10 10l4 13q12 34 12 71q0 49 -21 101z" />
<glyph unicode="&#xb8;" horiz-adv-x="487" d="M0 -287q0 39 16 68l7 10l10 2q120 16 203 53q8 52 8 115q0 66 -8 115l-3 8l5 6q39 74 120 74q64 0 111 -41l10 -8l-2 -15q-14 -60 -14 -133q0 -82 22 -172l2 -10l-8 -10q-19 -19 -43 -31v-14q0 -31 -12 -58l-4 -12l-14 -2q-146 -21 -285 -109l-10 -8l-11 6q-42 18 -71 64 t-29 102z" />
<glyph unicode="&#xb9;" horiz-adv-x="585" d="M4 1141q0 45 16 61l5 8l6 2q69 25 156 88t132 127l7 9l10 2q5 0 20 -3t41 -14.5t48.5 -29t39.5 -50.5t17 -75q0 -9 -1 -17t-2 -13l-1 -5l-2 -10l-4 -2q8 -5 15 -12t10 -11l3 -4l6 -8l-2 -10q-20 -70 -20 -216q0 -163 24 -237l2 -8l-2 -8l-2 -3q-1 -4 -4 -8.5t-7.5 -10.5 t-11 -13t-15 -13.5t-19.5 -12.5t-23.5 -11t-28.5 -7.5t-34 -2.5q-36 0 -64 10.5t-43 26.5t-22 26.5t-10 17.5v1v14q28 79 28 266q0 14 -1 41t-1 39q-41 -41 -61 -74l-4 -6l-8 -2q-4 -4 -31 -4q-44 0 -103 47t-59 115z" />
<glyph unicode="&#xba;" horiz-adv-x="974" d="M51 682l4 12q33 100 33 221q0 99 -25 185l-4 10l4 8q5 11 13 23q-10 42 -10 86q0 41 10 75.5t23 54t29.5 34t24.5 18.5t13 6l8 4l8 -4q83 -29 156 -29q88 0 156 23h18q95 -33 158 -33q53 0 145 29l12 4l11 -8q3 -1 9.5 -7t18 -20.5t21.5 -33.5t17.5 -49t8.5 -64v-17v-12 q10 -11 18 -23t11 -20l4 -8l2 -8l-4 -11q-45 -117 -45 -262q0 -73 19 -147l4 -12l-9 -11q-4 -6 -12 -14q12 -40 12 -72q0 -113 -73 -186l-11 -8l-14 4q-99 29 -149 29q-48 0 -136 -27h-14q-116 22 -156 22q-74 0 -172 -36l-8 -2l-10 4q-3 0 -13 5.5t-26 20.5t-30 36.5 t-24.5 59.5t-10.5 84q0 29 2 43l-9 11zM143 186q0 132 106 173l1 1h18q117 -45 291 -45q93 0 160 17l12 4l10 -8l1 -1q62 -49 68 -140l1 -19q0 -31 -8 -59.5t-20 -47t-24 -32t-21 -21.5l-9 -8l-10 -6l-14 4q-100 33 -244 33q-118 0 -201 -25l-10 -4l-8 4q-99 50 -99 180z M373 829q0 -41 2 -59q61 3 119 23h18q53 -21 80 -27q22 84 22 186q0 62 -8 109q-10 -2 -76 -23h-14q-87 16 -110 19q-33 -112 -33 -228z" />
<glyph unicode="&#xbb;" horiz-adv-x="1413" d="M63 969q0 50 19.5 90t46.5 62t58 37t49.5 19.5t25.5 4.5h14l7 -11q62 -80 172.5 -155t197.5 -103l11 -2l4 -8q2 -2 6.5 -11.5t10 -29.5t5.5 -41q0 -46 -24 -92q20 -41 20 -86q0 -12 -1.5 -24t-4 -20.5t-5 -15t-3.5 -10.5l-2 -4l-6 -8l-9 -4q-87 -33 -189 -111t-163 -161 l-6 -13h-14q-2 0 -12 1.5t-30.5 7t-41.5 14.5t-44.5 25.5t-41.5 38t-29.5 54.5t-11.5 72q0 11 1 20.5t2 14.5l1 6l4 13l12 4q131 57 256 188q-126 116 -262 168l-12 6l-4 13l-2 7q-2 7 -3.5 19t-1.5 25zM739 969q0 50 19.5 90t46.5 62t58 37t49.5 19.5t25.5 4.5h14l6 -11 q62 -80 173 -155t198 -103l10 -2l4 -8q2 -2 7 -11t10.5 -29.5t5.5 -41.5q0 -44 -25 -92q21 -43 21 -86q0 -12 -1.5 -24t-4 -20.5t-5 -15t-3.5 -10.5l-2 -4l-7 -8l-8 -4q-87 -33 -189 -111t-163 -161l-6 -13h-15q-5 0 -23 3t-51.5 16.5t-62.5 34.5t-51 63t-22 96q0 11 1 20.5 t2 14.5l1 6l4 13l12 4q131 57 256 188q-126 116 -262 168l-12 6l-5 13l-1 7q-2 7 -3.5 19t-1.5 25z" />
<glyph unicode="&#xbc;" horiz-adv-x="1617" d="M37 1141q0 45 16 61l4 8l6 2q69 25 156.5 88t132.5 127l6 9l11 2q5 0 20 -3t41 -14.5t48.5 -29t39.5 -50.5t17 -75q0 -9 -1.5 -17t-2.5 -13l-1 -5l-2 -10l-4 -2q8 -5 15 -12l11 -11l3 -4l6 -8l-2 -10q-20 -70 -20 -216q0 -163 24 -237l2 -8l-2 -8l-1 -3q-2 -4 -5 -8.5 t-7.5 -10.5t-11 -13t-15 -13.5t-19.5 -12.5t-23.5 -11t-28.5 -7.5t-34 -2.5q-99 0 -140 82v14q29 82 29 266q0 14 -1 41t-1 39q-41 -41 -61 -74l-4 -6l-9 -2q-4 -4 -30 -4q-44 0 -103 47t-59 115zM487 178l5 8q41 63 66.5 154.5t25.5 179.5v19l2 10q33 64 53 158t20 174 q0 31 -2 45l-2 6l4 6q41 62 67 159t26 181q0 6 -1 18.5t-1 18.5l-2 12l8 6q4 4 13 9.5t35.5 13.5t57.5 8q22 0 42 -3.5t35.5 -9t30 -12.5t25 -15t19 -16t14.5 -15.5t10 -13t6 -9.5l3 -4l6 -11l-6 -8q-38 -64 -62 -156.5t-24 -170.5q0 -25 2 -35l-2 -13q-36 -68 -58 -158.5 t-22 -168.5q0 -21 4 -53l2 -7l-4 -6q-37 -63 -58.5 -145t-21.5 -158q0 -23 4 -59l2 -8l-6 -7q-18 -18 -26 -24q-40 -27 -97 -27q-48 0 -85.5 12.5t-56.5 30.5t-31 35.5t-15 30.5l-3 12zM938 391q0 31 6 37l2 8l6 4q61 37 166 152t139 188l5 11l10 2q10 4 26 4q53 0 94 -34 t58.5 -70.5t17.5 -61.5v-6q46 -11 91 -56l6 -8l-2 -10q-21 -74 -21 -215q0 -163 25 -240l2 -6l-4 -8q0 -2 -4 -9.5t-14.5 -20t-26 -24t-42.5 -20t-59 -8.5q-96 0 -137 82v14q10 27 16 70q-44 6 -88 6q-89 0 -161 -20l-7 -2l-8 4q-2 0 -9 4t-19 14.5t-23 26t-19 41.5t-8 57 q0 23 2 33q-20 38 -20 61zM1260 399h22h29q0 10 -1 30.5t-1 29.5q-17 -19 -49 -60z" />
<glyph unicode="&#xbd;" horiz-adv-x="1581" d="M37 1141q0 45 16 61l4 8l6 2q69 25 156.5 88t132.5 127l6 9l11 2q5 0 20 -3t41 -14.5t48.5 -29t39.5 -50.5t17 -75q0 -9 -1.5 -17t-2.5 -13l-1 -5l-2 -10l-4 -2q8 -5 15 -12l11 -11l3 -4l6 -8l-2 -10q-20 -70 -20 -216q0 -163 24 -237l2 -8l-2 -8l-1 -3q-2 -4 -5 -8.5 t-7.5 -10.5t-11 -13t-15 -13.5t-19.5 -12.5t-23.5 -11t-28.5 -7.5t-34 -2.5q-99 0 -140 82v14q29 82 29 266q0 14 -1 41t-1 39q-41 -41 -61 -74l-4 -6l-9 -2q-4 -4 -30 -4q-44 0 -103 47t-59 115zM487 178l5 8q41 63 66.5 154.5t25.5 179.5v19l2 10q33 64 53 158t20 174 q0 31 -2 45l-2 6l4 6q41 62 67 159t26 181q0 6 -1 18.5t-1 18.5l-2 12l8 6q4 4 13 9.5t35.5 13.5t57.5 8q22 0 42 -3.5t35.5 -9t30 -12.5t25 -15t19 -16t14.5 -15.5t10 -13t6 -9.5l3 -4l6 -11l-6 -8q-38 -64 -62 -156.5t-24 -170.5q0 -25 2 -35l-2 -13q-36 -68 -58 -158.5 t-22 -168.5q0 -21 4 -53l2 -7l-4 -6q-37 -63 -58.5 -145t-21.5 -158q0 -23 4 -59l2 -8l-6 -7q-18 -18 -26 -24q-40 -27 -97 -27q-48 0 -85.5 12.5t-56.5 30.5t-31 35.5t-15 30.5l-3 12zM954 627q0 23 4.5 43t12 34t16 25t17.5 18t16.5 11.5l12.5 7.5l5 2l9 2l8 -4 q96 -35 229 -35q77 0 129 14l10 3l9 -7l6 -6q7 -6 14.5 -16t15.5 -24.5t13.5 -36t5.5 -46.5q0 -52 -25 -88q11 -32 11 -41l2 -10l-9 -8q-75 -66 -170 -234h25q75 0 133 15l10 2l9 -4q20 -20 26 -29q29 -42 29 -100q0 -14 -2 -27.5t-6 -24.5t-8.5 -21t-10 -18t-11 -14.5 t-10.5 -11.5l-8.5 -8.5t-6.5 -5.5l-3 -2l-8 -7l-10 2q-96 27 -197 27q-88 0 -160 -20l-8 -2l-8 4q-2 0 -9 4t-19 14.5t-23 26t-19 41.5t-8 57v10q-16 33 -16 58q0 5 0.5 9.5t1 7t0.5 3.5l2 8l6 4q39 35 100 115t103 158q-81 -3 -143 -19h-15q-4 1 -10.5 5t-19 15.5t-23 26.5 t-18 40.5t-7.5 56.5z" />
<glyph unicode="&#xbe;" horiz-adv-x="1675" d="M43 1280q0 29 8.5 54t17 38t25.5 26t19.5 14t14.5 6l1 1h14q88 -37 232 -37q71 0 129 15l8 2l8 -4l3 -3q3 -2 6 -5t8 -8.5t9.5 -11.5t9.5 -15t9 -19q23 -11 53 -41l7 -8l-2 -10q-19 -71 -19 -189q0 -173 31 -264l2 -8l-2 -8q-1 -1 -3 -5t-7 -11.5t-11 -14.5 q-2 -25 -11 -48t-15.5 -32t-9.5 -12l-7 -8l-12 2h-33q-80 0 -168.5 -21t-146.5 -55l-14 -2l-5 2q-6 1 -17 5.5t-22.5 11.5t-24.5 20t-23 29.5t-16.5 42t-6.5 55.5q0 13 2 24.5t5 21t7 18t9 15t9.5 12t9 9.5t7.5 7l5 5l3 1l15 2q40 -5 57 -5q72 0 156 19q0 4 1 13t1 14 q-55 -3 -111 -15l-10 -4l-6 6q-3 0 -14.5 10.5t-24.5 39t-13 65.5q0 11 1.5 21t4 19t6 17t7 14.5t7.5 12t8 10t7.5 8l6 6l4.5 4.5l2 1l6 6l10 -4q48 -14 113 -17v31q-54 4 -76 4q-90 0 -162 -20l-6 -2l-8 4q-2 0 -9 4t-19 14.5t-23 26t-19 41.5t-8 57zM555 178l4 8 q41 63 66.5 154.5t25.5 179.5v19l2 10q33 65 53.5 158.5t20.5 173.5q0 31 -2 45l-2 6l4 6q41 62 66.5 158.5t25.5 181.5q0 6 -1 18.5t-1 18.5l-2 12l8 6q3 3 12.5 9t36.5 14t58 8q22 0 42 -3.5t35.5 -9t29.5 -12.5t24.5 -15t19 -16t15 -15.5t10 -13t6.5 -9.5l2 -4l6 -11 l-6 -8q-38 -64 -62 -156.5t-24 -170.5q0 -25 2 -35l-2 -13q-36 -68 -58 -158.5t-22 -168.5q0 -21 4 -53l2 -7l-4 -6q-37 -63 -58.5 -145t-21.5 -158q0 -23 4 -59l3 -8l-7 -7l-2 -2q-1 -2 -3 -4t-6 -5.5l-8 -7t-10.5 -7.5t-13 -7.5t-15.5 -7t-18.5 -5.5t-21.5 -3.5t-24 -1.5 q-48 0 -85.5 12.5t-56.5 30.5t-31 35.5t-15 30.5l-3 12zM1006 391q0 31 6 37l2 8l6 4q61 37 166 152t139 188l4 11l10 2q11 4 27 4q53 0 94 -34t58.5 -70.5t17.5 -61.5v-6q9 -2 18 -5.5t16 -7t14 -7.5t12.5 -8.5t10 -8t8 -7l6 -6t3.5 -4.5l2 -2l6 -8l-2 -10 q-20 -70 -20 -215q0 -166 24 -240l2 -6l-4 -8q0 -2 -4 -9.5t-14.5 -20t-25.5 -24t-42 -20t-59 -8.5q-96 0 -137 82v14q10 27 16 70q-44 6 -88 6q-90 0 -162 -20l-6 -2l-8 4q-2 0 -9 4t-19 14.5t-23 26t-19 41.5t-8 57q0 23 2 33q-20 38 -20 61zM1327 399h23h28q0 10 -1 30.5 t-1 29.5q-17 -19 -49 -60z" />
<glyph unicode="&#xbf;" horiz-adv-x="931" d="M41 485q0 10 1 20.5t2.5 17.5t3 13l2.5 10l1 3l4 12l15 4q94 29 199.5 97.5t166.5 138.5q2 20 2 61q0 51 -10 82l-4 12l8 11q1 3 6.5 10t19 17.5t31.5 20t46.5 16.5t60.5 7q103 0 163 -76l1 -1l8 -13l-4 -12q-25 -54 -25 -115q0 -47 23 -129v-18q-28 -55 -84 -82 q-7 -50 -29 -72l-6 -8l-8 -2q-65 -13 -170 -70h16l15 -4q67 -51 133.5 -70.5t150.5 -19.5h41l6 -6q5 -3 16 -15t24.5 -45t13.5 -73q0 -163 -115 -220q-18 -9 -53 -18h-11l-6 6q-135 103 -295 103l-16 4q-80 62 -136 80t-151 18h-14l-6 10l-2 4q-3 3 -5.5 8t-5.5 12t-6 16 t-6 19.5t-4.5 24t-1.5 27.5q0 37 12 80q1 2 2 5.5t2 4.5q-22 48 -22 94zM453 1176l4 14q20 59 20 110q0 31 -10 64l-4 12l10 10q52 58 145 58q91 0 146 -58l8 -10l-4 -12q-10 -29 -10 -68q0 -51 20 -104l4 -14l-10 -11q-58 -55 -151 -55q-97 0 -156 53z" />
<glyph unicode="&#xc0;" horiz-adv-x="1040" d="M-8 162l6 8q100 153 100 358v35l4 12q76 152 76 312q0 26 -4 80l-2 10l6 8q96 149 96 318q0 19 -4 65v12l9 9l4 3q4 3 9.5 6t14 7.5t19.5 9t24 8t29.5 5.5t34.5 2q54 0 98.5 -15.5t71.5 -40t39 -39t19 -26.5v-1l1 -1l6 -13l-6 -12q-4 -4 -4 -6h14q16 0 31.5 -1t27 -3 t20 -4t13.5 -3l5 -1l12 -9l-2 -14q-2 -16 -2 -47q0 -176 84 -326l4 -12v-27q0 -119 20 -190q29 11 76 37l10 6l13 -4l3 -2l7.5 -5t11 -8t13.5 -12.5t15 -16t15.5 -20.5t14.5 -25.5t13.5 -30.5t10.5 -36q6 -34 6 -61q0 -17 -2 -33t-5.5 -29.5t-8 -24.5t-9 -20l-7.5 -15 t-6 -11l-3 -4l-8 -11l-14 2q-18 2 -56 2q25 -91 82 -184l11 -16l-13 -15q-60 -60 -157 -82q-42 -10 -74 -10q-20 0 -39 3t-32.5 7t-23.5 7.5t-16 6.5l-6 3l-14 8l2 16q0 8 1 25t1 25q0 69 -12 137q-4 -4 -7 -4l-14 -4q-150 0 -260 -37v-31q0 -42 6 -86l2 -10l-6 -8 q-20 -20 -22 -21q-53 -43 -134 -43q-60 0 -106 15.5t-69.5 37.5t-39 44t-18.5 37l-4 16zM252 1802l4 13q19 55 77 91t126 36q20 0 41 -3l16 -4l2 -16q12 -157 105 -309l4 -8l-2 -9q-13 -50 -56.5 -76t-93.5 -26q-23 0 -33 4l-10 2l-4 10q-65 161 -168 287zM471 563 q43 15 82 35l16 4q16 -4 27 -4q-19 79 -66 180l-14 47q-45 -116 -45 -235v-27z" />
<glyph unicode="&#xc1;" horiz-adv-x="1040" d="M-8 162l6 8q100 153 100 358v35l4 12q76 152 76 312q0 26 -4 80l-2 10l6 8q96 149 96 318q0 19 -4 65v12l9 9l4 3q4 3 9.5 6t14 7.5t19.5 9t24 8t29.5 5.5t34.5 2q54 0 98.5 -15.5t71.5 -40t39 -39t19 -26.5v-1l1 -1l6 -13l-6 -12q-4 -4 -4 -6h14q16 0 31.5 -1t27 -3 t20 -4t13.5 -3l5 -1l12 -9l-2 -14q-2 -16 -2 -47q0 -176 84 -326l4 -12v-27q0 -119 20 -190q29 11 76 37l10 6l13 -4l3 -2l7.5 -5t11 -8t13.5 -12.5t15 -16t15.5 -20.5t14.5 -25.5t13.5 -30.5t10.5 -36q6 -34 6 -61q0 -17 -2 -33t-5.5 -29.5t-8 -24.5t-9 -20l-7.5 -15 t-6 -11l-3 -4l-8 -11l-14 2q-18 2 -56 2q25 -91 82 -184l11 -16l-13 -15q-60 -60 -157 -82q-42 -10 -74 -10q-20 0 -39 3t-32.5 7t-23.5 7.5t-16 6.5l-6 3l-14 8l2 16q0 8 1 25t1 25q0 69 -12 137q-4 -4 -7 -4l-14 -4q-150 0 -260 -37v-31q0 -42 6 -86l2 -10l-6 -8 q-20 -20 -22 -21q-53 -43 -134 -43q-60 0 -106 15.5t-69.5 37.5t-39 44t-18.5 37l-4 16zM471 563q43 15 82 35l16 4q16 -4 27 -4q-19 79 -66 180l-14 47q-45 -116 -45 -235v-27zM473 1610l8 8q125 137 193 301l6 12h12q6 2 19 2q66 0 118 -46.5t56 -110.5l2 -13l-10 -6 q-68 -53 -115 -113.5t-98 -146.5l-5 -8l-12 -2q-3 0 -10 -1t-10 -1q-53 0 -95.5 31.5t-54.5 80.5z" />
<glyph unicode="&#xc2;" horiz-adv-x="1040" d="M-8 162l6 8q100 153 100 358v35l4 12q76 152 76 312q0 26 -4 80l-2 10l6 8q96 149 96 318q0 19 -4 65v12l9 9l4 3q4 3 9.5 6t14 7.5t19.5 9t24 8t29.5 5.5t34.5 2q54 0 98.5 -15.5t71.5 -40t39 -39t19 -26.5v-1l1 -1l6 -13l-6 -12q-4 -4 -4 -6h14q16 0 31.5 -1t27 -3 t20 -4t13.5 -3l5 -1l12 -9l-2 -14q-2 -16 -2 -47q0 -176 84 -326l4 -12v-27q0 -119 20 -190q29 11 76 37l10 6l13 -4l3 -2l7.5 -5t11 -8t13.5 -12.5t15 -16t15.5 -20.5t14.5 -25.5t13.5 -30.5t10.5 -36q6 -34 6 -61q0 -17 -2 -33t-5.5 -29.5t-8 -24.5t-9 -20l-7.5 -15 t-6 -11l-3 -4l-8 -11l-14 2q-18 2 -56 2q25 -91 82 -184l11 -16l-13 -15q-60 -60 -157 -82q-42 -10 -74 -10q-20 0 -39 3t-32.5 7t-23.5 7.5t-16 6.5l-6 3l-14 8l2 16q0 8 1 25t1 25q0 69 -12 137q-4 -4 -7 -4l-14 -4q-150 0 -260 -37v-31q0 -42 6 -86l2 -10l-6 -8 q-20 -20 -22 -21q-53 -43 -134 -43q-60 0 -106 15.5t-69.5 37.5t-39 44t-18.5 37l-4 16zM217 1657v8l6 6q134 140 195 305l4 11l8 2q27 12 57 12q31 0 58 -12q8 2 22 2q34 0 74 -19l8 -4l2 -8q73 -192 191 -307l6 -8v-11q-6 -66 -54 -106.5t-104 -40.5q-34 0 -63 16l-9 4 l-2 9q-39 104 -88 186q-57 -80 -100 -184l-10 -11q-28 -14 -53 -14q-61 0 -104.5 49.5t-43.5 114.5zM471 563q43 15 82 35l16 4q16 -4 27 -4q-19 79 -66 180l-14 47q-45 -116 -45 -235v-27z" />
<glyph unicode="&#xc3;" horiz-adv-x="1040" d="M-8 162l6 8q100 153 100 358v35l4 12q76 152 76 312q0 26 -4 80l-2 10l6 8q96 149 96 318q0 19 -4 65v12l9 9l4 3q4 3 9.5 6t14 7.5t19.5 9t24 8t29.5 5.5t34.5 2q54 0 98.5 -15.5t71.5 -40t39 -39t19 -26.5v-1l1 -1l6 -13l-6 -12q-4 -4 -4 -6h14q16 0 31.5 -1t27 -3 t20 -4t13.5 -3l5 -1l12 -9l-2 -14q-2 -16 -2 -47q0 -176 84 -326l4 -12v-27q0 -119 20 -190q29 11 76 37l10 6l13 -4l3 -2l7.5 -5t11 -8t13.5 -12.5t15 -16t15.5 -20.5t14.5 -25.5t13.5 -30.5t10.5 -36q6 -34 6 -61q0 -17 -2 -33t-5.5 -29.5t-8 -24.5t-9 -20l-7.5 -15 t-6 -11l-3 -4l-8 -11l-14 2q-18 2 -56 2q25 -91 82 -184l11 -16l-13 -15q-60 -60 -157 -82q-42 -10 -74 -10q-20 0 -39 3t-32.5 7t-23.5 7.5t-16 6.5l-6 3l-14 8l2 16q0 8 1 25t1 25q0 69 -12 137q-4 -4 -7 -4l-14 -4q-150 0 -260 -37v-31q0 -42 6 -86l2 -10l-6 -8 q-20 -20 -22 -21q-53 -43 -134 -43q-60 0 -106 15.5t-69.5 37.5t-39 44t-18.5 37l-4 16zM133 1647v8l6 6q133 136 199 303l4 10l8 4q41 9 58 9q30 0 59 -13q6 2 20 2q37 0 74 -18l10 -12q40 -110 82 -177q57 100 82 193l2 10l11 4q31 17 67 17q61 0 108 -42t50 -98v-10 l-6 -6q-128 -146 -187 -330l-10 -12q-24 -16 -63 -16q-25 0 -43 6q-30 -12 -62 -12t-61 16l-9 4l-2 8q-37 107 -86 189q-49 -69 -102 -183l-10 -12q-24 -12 -51 -12q-65 0 -106.5 49.5t-41.5 114.5zM471 563q43 15 82 35l16 4q16 -4 27 -4q-19 79 -66 180l-14 47 q-45 -116 -45 -235v-27z" />
<glyph unicode="&#xc4;" horiz-adv-x="1040" d="M-8 162l6 8q100 153 100 358v35l4 12q76 152 76 312q0 26 -4 80l-2 10l6 8q96 149 96 318q0 19 -4 65v12l9 9l4 3q4 3 9.5 6t14 7.5t19.5 9t24 8t29.5 5.5t34.5 2q54 0 98.5 -15.5t71.5 -40t39 -39t19 -26.5v-1l1 -1l6 -13l-6 -12q-4 -4 -4 -6h14q16 0 31.5 -1t27 -3 t20 -4t13.5 -3l5 -1l12 -9l-2 -14q-2 -16 -2 -47q0 -176 84 -326l4 -12v-27q0 -119 20 -190q29 11 76 37l10 6l13 -4l3 -2l7.5 -5t11 -8t13.5 -12.5t15 -16t15.5 -20.5t14.5 -25.5t13.5 -30.5t10.5 -36q6 -34 6 -61q0 -17 -2 -33t-5.5 -29.5t-8 -24.5t-9 -20l-7.5 -15 t-6 -11l-3 -4l-8 -11l-14 2q-18 2 -56 2q25 -91 82 -184l11 -16l-13 -15q-60 -60 -157 -82q-42 -10 -74 -10q-20 0 -39 3t-32.5 7t-23.5 7.5t-16 6.5l-6 3l-14 8l2 16q0 8 1 25t1 25q0 69 -12 137q-4 -4 -7 -4l-14 -4q-150 0 -260 -37v-31q0 -42 6 -86l2 -10l-6 -8 q-20 -20 -22 -21q-53 -43 -134 -43q-60 0 -106 15.5t-69.5 37.5t-39 44t-18.5 37l-4 16zM174 1757l12 12q66 60 181 60q96 0 137 -41l12 -10l-6 -15q-27 -71 -27 -135q0 -35 4 -51l2 -10l-8 -8q-50 -50 -139 -50q-68 0 -111 29l-12 6l2 17q2 12 2 34q0 79 -41 148zM471 563 q43 15 82 35l16 4q16 -4 27 -4q-19 79 -66 180l-14 47q-45 -116 -45 -235v-27zM567 1772l13 8q59 47 143 47q90 0 158 -55l12 -13l-6 -16q-43 -85 -43 -162v-18v-13l-10 -8q-50 -29 -107 -29q-75 0 -137 46l-10 8l2 12q2 18 2 53q0 64 -15 125z" />
<glyph unicode="&#xc5;" horiz-adv-x="1040" d="M-8 162l6 8q100 153 100 358v35l4 12q76 152 76 312q0 26 -4 80l-2 10l6 8q96 149 96 318q0 19 -4 65v12l9 9l4 3q4 3 9.5 6t14 7.5t19.5 9t24 8t29.5 5.5t34.5 2q54 0 98.5 -15.5t71.5 -40t39 -39t19 -26.5v-1l1 -1l6 -13l-6 -12q-4 -4 -4 -6h14q16 0 31.5 -1t27 -3 t20 -4t13.5 -3l5 -1l12 -9l-2 -14q-2 -16 -2 -47q0 -176 84 -326l4 -12v-27q0 -119 20 -190q29 11 76 37l10 6l13 -4l3 -2l7.5 -5t11 -8t13.5 -12.5t15 -16t15.5 -20.5t14.5 -25.5t13.5 -30.5t10.5 -36q6 -34 6 -61q0 -17 -2 -33t-5.5 -29.5t-8 -24.5t-9 -20l-7.5 -15 t-6 -11l-3 -4l-8 -11l-14 2q-18 2 -56 2q25 -91 82 -184l11 -16l-13 -15q-60 -60 -157 -82q-42 -10 -74 -10q-20 0 -39 3t-32.5 7t-23.5 7.5t-16 6.5l-6 3l-14 8l2 16q0 8 1 25t1 25q0 69 -12 137q-4 -4 -7 -4l-14 -4q-150 0 -260 -37v-31q0 -42 6 -86l2 -10l-6 -8 q-20 -20 -22 -21q-53 -43 -134 -43q-60 0 -106 15.5t-69.5 37.5t-39 44t-18.5 37l-4 16zM217 1765l10 11q108 97 172 249l7 13l12 2q6 2 22 2q59 0 113 -41q47 35 109 35q20 0 38 -6l11 -5l4 -10q46 -144 131 -252l4 -6v-6q0 -68 -49 -111q4 -14 4 -47q-1 -36 -19.5 -67.5 t-48.5 -48.5l-8 -4l-8 2q-94 20 -199 20q-86 0 -180 -16l-8 -2l-8 4q-60 34 -60 118q0 27 13 60q-46 37 -60 94zM471 563q43 15 82 35l16 4q16 -4 27 -4q-19 79 -66 180l-14 47q-45 -116 -45 -235v-27zM473 1716h59q51 0 76 2q-24 50 -59 97q-37 -39 -76 -99z" />
<glyph unicode="&#xc6;" horiz-adv-x="1634" d="M-43 216v15v11l8 6q147 133 197 354l4 12q144 168 168 363l8 14q155 146 184 348l2 13l13 6l4 2q4 1 10.5 3t15 4t20.5 3.5t25 1.5q59 0 111 -22l-2 6l8 10q1 2 7.5 9t22 18t35 21t51 17t66.5 7q91 0 154 -47q66 7 125 26l8 4l8 -2q99 -30 154 -30q61 0 162 36l12 5 l10 -7l1 -1q65 -50 79 -146q1 -11 2 -23v-18q0 -101 -67 -168l-11 -8l-14 4q-99 22 -145 22q-59 0 -150 -30l-12 -2q-88 16 -158 16q7 -60 23 -111v-14q-11 -34 -17 -72q55 -14 109 -14q70 0 158 27l12 4l10 -8q2 -1 9 -7t18 -21t21 -34t17 -49t7 -63q0 -108 -80 -183 l-12 -8l-13 4q-110 37 -182 37q-31 0 -61 -6l6 -12v-17q-24 -68 -33 -135q20 4 49.5 8t48.5 6l19 2l8 3l8 -5q115 -47 178 -47q45 0 135 23l13 4l10 -8q65 -65 65 -176q0 -19 -3 -37.5t-8 -33t-11 -28t-13.5 -24.5t-14 -20t-13 -16t-11 -11.5t-8.5 -7.5l-4 -3l-10 -6l-12 4 q-110 41 -174 41q-47 0 -121 -18h-12q-17 3 -54 12t-57 12q-56 -69 -182 -69q-44 0 -81 10.5t-58 25.5t-35.5 31t-19.5 26t-5 13l-4 8l4 11q37 91 43 190q-62 6 -127 6q-127 0 -200 -22l-11 -4l-4 2q-53 -103 -65 -221l-2 -11l-9 -6q-4 -4 -12.5 -9.5t-34.5 -13.5t-55 -8 q-60 0 -123 31q-40 19 -68.5 45t-41 45t-19 44.5t-6.5 30.5zM553 612q73 -12 156 -12h22q12 64 12 127q0 103 -30 197q-18 -64 -21 -90l-6 -13q-89 -99 -133 -209z" />
<glyph unicode="&#xc7;" horiz-adv-x="1054" d="M16 227l4 9q40 73 57 126t17 119q0 39 -6 92l2 13q51 122 51 225q0 49 -14 131l-2 10l4 6q48 91 61 158q-36 49 -36 135q0 48 11 87t26.5 60.5t32.5 36t27 19t13 4.5l10 4l9 -4q98 -49 217 -49q85 0 114 10l9 2l8 -4q118 -53 207 -53q58 0 129 18l12 2l8 -8 q5 -3 17.5 -18t27.5 -55.5t15 -90.5v-16q-5 -108 -86 -178l-13 -8l-12 4q-116 49 -199 49q-47 0 -116 -16l-15 2q-8 1 -102 24q-2 -20 -2 -57q0 -36 10 -94v-9l-2 -6q-55 -127 -55 -233q0 -56 16 -131l2 -8l-4 -9q-58 -113 -63 -194q24 4 43.5 9t49 16t44.5 16q12 4 18 8 l8 4l9 -2q63 -14 122 -14q106 0 230 59l12 6l10 -6q4 -2 10.5 -6.5t20.5 -18t26.5 -31t24.5 -46.5t17 -62q2 -14 2 -41q0 -19 -3 -37.5t-7.5 -33t-10 -27.5t-11.5 -22.5t-10.5 -16.5t-8.5 -12l-3 -4l-10 -11l-12 4q-75 11 -113 11q-50 0 -104 -13q-6 -33 -6 -94 q0 -82 22 -172l2 -10l-8 -10q-19 -19 -43 -31v-14q0 -31 -12 -58l-4 -12l-15 -2q-144 -21 -284 -109l-11 -8l-10 6q-42 18 -71 64t-29 102q0 39 16 68l6 10l11 2q118 16 202 53q9 58 9 115q0 10 -1.5 29.5t-1.5 29.5q-148 -3 -274 -69l-10 -4l-8 2q-27 7 -62 35 q-61 50 -69 131q-32 17 -54.5 43t-29.5 40.5t-7 18.5z" />
<glyph unicode="&#xc8;" horiz-adv-x="1003" d="M57 106l4 11q45 107 45 231q0 87 -20 174v13q27 111 27 192q0 96 -33 205l-2 10l4 8q43 107 43 217q0 87 -27 176l-4 13l8 10q3 6 19.5 20.5t62 33t101.5 18.5q90 0 153 -47q66 7 125 26l8 4l11 -2q95 -30 151 -30q64 0 162 36l12 5l11 -7q7 -4 21.5 -18t35 -56.5 t24.5 -95.5v-18q0 -101 -67 -168l-10 -8l-15 4q-99 22 -145 22q-56 0 -148 -30l-14 -2q-88 16 -158 16q7 -60 23 -111v-14q-9 -28 -16 -72q55 -14 108 -14q69 0 158 27l12 4l10 -8q2 -1 9 -7t18 -21t21 -34t17 -49t7 -63q0 -108 -80 -183l-10 -8l-14 4q-110 37 -183 37 q-31 0 -61 -6l6 -12l4 -9l-4 -8q-24 -68 -33 -135q19 4 48 8t48 6t21 2l8 3l8 -5q115 -47 178 -47q46 0 136 23l12 4l10 -8q66 -66 66 -176q0 -24 -5 -47t-12.5 -40.5t-16 -32.5t-17.5 -25.5t-16 -18.5t-12 -13l-5 -4l-13 -6l-12 4q-110 41 -174 41q-46 0 -119 -18h-14 q-16 3 -34.5 7t-41.5 9t-35 8q-60 -69 -182 -69q-44 0 -81 10.5t-58 25.5t-35.5 31t-19.5 26t-5 13zM279 1831l4 12q19 55 76.5 91t125.5 36q27 0 41 -2l17 -4l2 -16q12 -160 104 -310l4 -8l-2 -8q-13 -50 -56 -76t-93 -26q-23 0 -33 4l-10 2l-4 10q-65 161 -168 287z" />
<glyph unicode="&#xc9;" horiz-adv-x="1003" d="M57 106l4 11q45 107 45 231q0 87 -20 174v13q27 111 27 192q0 96 -33 205l-2 10l4 8q43 107 43 217q0 87 -27 176l-4 13l8 10q3 6 19.5 20.5t62 33t101.5 18.5q90 0 153 -47q66 7 125 26l8 4l11 -2q95 -30 151 -30q64 0 162 36l12 5l11 -7q7 -4 21.5 -18t35 -56.5 t24.5 -95.5v-18q0 -101 -67 -168l-10 -8l-15 4q-99 22 -145 22q-56 0 -148 -30l-14 -2q-88 16 -158 16q7 -60 23 -111v-14q-9 -28 -16 -72q55 -14 108 -14q69 0 158 27l12 4l10 -8q2 -1 9 -7t18 -21t21 -34t17 -49t7 -63q0 -108 -80 -183l-10 -8l-14 4q-110 37 -183 37 q-31 0 -61 -6l6 -12l4 -9l-4 -8q-24 -68 -33 -135q19 4 48 8t48 6t21 2l8 3l8 -5q115 -47 178 -47q46 0 136 23l12 4l10 -8q66 -66 66 -176q0 -24 -5 -47t-12.5 -40.5t-16 -32.5t-17.5 -25.5t-16 -18.5t-12 -13l-5 -4l-13 -6l-12 4q-110 41 -174 41q-46 0 -119 -18h-14 q-16 3 -34.5 7t-41.5 9t-35 8q-60 -69 -182 -69q-44 0 -81 10.5t-58 25.5t-35.5 31t-19.5 26t-5 13zM408 1628l8 8q123 135 192 301l6 13h13q6 2 18 2q66 0 118 -47t56 -111l2 -12l-10 -6q-68 -53 -115 -113.5t-98 -146.5l-4 -9l-12 -2q-3 0 -10.5 -1t-10.5 -1q-53 0 -95 32 t-54 81z" />
<glyph unicode="&#xca;" horiz-adv-x="1003" d="M57 106l4 11q45 107 45 231q0 87 -20 174v13q27 111 27 192q0 96 -33 205l-2 10l4 8q43 107 43 217q0 87 -27 176l-4 13l8 10q3 6 19.5 20.5t62 33t101.5 18.5q90 0 153 -47q66 7 125 26l8 4l11 -2q95 -30 151 -30q64 0 162 36l12 5l11 -7q7 -4 21.5 -18t35 -56.5 t24.5 -95.5v-18q0 -101 -67 -168l-10 -8l-15 4q-99 22 -145 22q-56 0 -148 -30l-14 -2q-88 16 -158 16q7 -60 23 -111v-14q-9 -28 -16 -72q55 -14 108 -14q69 0 158 27l12 4l10 -8q2 -1 9 -7t18 -21t21 -34t17 -49t7 -63q0 -108 -80 -183l-10 -8l-14 4q-110 37 -183 37 q-31 0 -61 -6l6 -12l4 -9l-4 -8q-24 -68 -33 -135q19 4 48 8t48 6t21 2l8 3l8 -5q115 -47 178 -47q46 0 136 23l12 4l10 -8q66 -66 66 -176q0 -24 -5 -47t-12.5 -40.5t-16 -32.5t-17.5 -25.5t-16 -18.5t-12 -13l-5 -4l-13 -6l-12 4q-110 41 -174 41q-46 0 -119 -18h-14 q-16 3 -34.5 7t-41.5 9t-35 8q-60 -69 -182 -69q-44 0 -81 10.5t-58 25.5t-35.5 31t-19.5 26t-5 13zM213 1671v8l6 7q134 140 195 305l4 10l8 2q27 12 57 12q31 0 58 -12q8 2 22 2q37 0 74 -18l8 -5l2 -8q73 -192 191 -307l6 -8v-10q-6 -66 -54 -107t-104 -41q-32 0 -63 17 l-9 4l-2 8q-39 104 -88 186q-57 -80 -100 -184l-10 -10q-30 -15 -54 -15q-61 0 -104 49.5t-43 114.5z" />
<glyph unicode="&#xcb;" horiz-adv-x="1003" d="M57 106l4 11q45 107 45 231q0 87 -20 174v13q27 111 27 192q0 96 -33 205l-2 10l4 8q43 107 43 217q0 87 -27 176l-4 13l8 10q3 6 19.5 20.5t62 33t101.5 18.5q90 0 153 -47q66 7 125 26l8 4l11 -2q95 -30 151 -30q64 0 162 36l12 5l11 -7q7 -4 21.5 -18t35 -56.5 t24.5 -95.5v-18q0 -101 -67 -168l-10 -8l-15 4q-99 22 -145 22q-56 0 -148 -30l-14 -2q-88 16 -158 16q7 -60 23 -111v-14q-9 -28 -16 -72q55 -14 108 -14q69 0 158 27l12 4l10 -8q2 -1 9 -7t18 -21t21 -34t17 -49t7 -63q0 -108 -80 -183l-10 -8l-14 4q-110 37 -183 37 q-31 0 -61 -6l6 -12l4 -9l-4 -8q-24 -68 -33 -135q19 4 48 8t48 6t21 2l8 3l8 -5q115 -47 178 -47q46 0 136 23l12 4l10 -8q66 -66 66 -176q0 -24 -5 -47t-12.5 -40.5t-16 -32.5t-17.5 -25.5t-16 -18.5t-12 -13l-5 -4l-13 -6l-12 4q-110 41 -174 41q-46 0 -119 -18h-14 q-16 3 -34.5 7t-41.5 9t-35 8q-60 -69 -182 -69q-44 0 -81 10.5t-58 25.5t-35.5 31t-19.5 26t-5 13zM168 1782l12 12q65 59 180 59q97 0 138 -41l12 -10l-6 -14q-27 -70 -27 -135q0 -35 4 -51l2 -11l-8 -8q-49 -49 -139 -49q-68 0 -111 29l-12 6l2 16q2 12 2 35 q0 78 -41 147zM561 1796l12 8q59 47 144 47q89 0 157 -55l13 -12l-6 -17q-43 -85 -43 -161v-19v-12l-11 -8q-50 -29 -106 -29q-76 0 -137 45l-11 8l2 13q3 27 3 53q0 63 -15 125z" />
<glyph unicode="&#xcc;" horiz-adv-x="544" d="M-10 1823l4 12q19 55 77 91t126 36q27 0 41 -2l16 -4l2 -17q12 -158 104 -309l5 -8l-3 -8q-13 -50 -56.5 -76.5t-92.5 -26.5q-21 0 -33 5l-10 2l-4 10q-65 161 -168 287zM57 111l4 8q45 107 45 233q0 88 -20 172v13q27 111 27 192q0 95 -33 207l-2 8l4 8q43 110 43 219 q0 87 -27 175l-4 12l8 10q3 6 19.5 20.5t62 33t101.5 18.5q57 0 104.5 -21t64.5 -37.5t21 -23.5l10 -10l-6 -13q-37 -110 -37 -213q0 -85 23 -161v-15q-31 -115 -31 -209q0 -106 33 -196l4 -9l-4 -8q-37 -101 -37 -207q0 -109 35 -204l4 -11l-4 -8q-3 -6 -7 -12.5 t-20.5 -23.5t-37.5 -29t-58.5 -22.5t-81.5 -10.5t-81 10.5t-58 25t-35.5 30.5t-19.5 25.5t-5 12.5z" />
<glyph unicode="&#xcd;" horiz-adv-x="544" d="M57 111l4 8q45 107 45 233q0 88 -20 172v13q27 111 27 192q0 95 -33 207l-2 8l4 8q43 110 43 219q0 87 -27 175l-4 12l8 10q3 6 19.5 20.5t62 33t101.5 18.5q57 0 104.5 -21t64.5 -37.5t21 -23.5l10 -10l-6 -13q-37 -110 -37 -213q0 -85 23 -161v-15q-31 -115 -31 -209 q0 -106 33 -196l4 -9l-4 -8q-37 -101 -37 -207q0 -109 35 -204l4 -11l-4 -8q-3 -6 -7 -12.5t-20.5 -23.5t-37.5 -29t-58.5 -22.5t-81.5 -10.5t-81 10.5t-58 25t-35.5 30.5t-19.5 25.5t-5 12.5zM203 1642l8 9q123 135 192 301l7 12h12q6 2 18 2q66 0 118 -47t56 -111l2 -12 l-10 -6q-68 -53 -115 -113.5t-98 -146.5l-4 -8l-12 -2q-3 0 -10.5 -1t-10.5 -1q-53 0 -95 31.5t-54 80.5z" />
<glyph unicode="&#xce;" horiz-adv-x="544" d="M-10 1675v8l6 7q132 138 194 305l5 10l8 2q27 12 57 12t57 -12q8 2 23 2q36 0 74 -18l8 -4l2 -9q74 -194 190 -307l7 -8v-10q-6 -66 -54 -107t-104 -41q-33 0 -64 17l-8 4l-2 8q-39 104 -88 186q-57 -80 -100 -184l-11 -10q-30 -15 -53 -15q-61 0 -104 49.5t-43 114.5z M57 111l4 8q45 107 45 233q0 88 -20 172v13q27 111 27 192q0 95 -33 207l-2 8l4 8q43 110 43 219q0 87 -27 175l-4 12l8 10q3 6 19.5 20.5t62 33t101.5 18.5q57 0 104.5 -21t64.5 -37.5t21 -23.5l10 -10l-6 -13q-37 -110 -37 -213q0 -85 23 -161v-15q-31 -115 -31 -209 q0 -106 33 -196l4 -9l-4 -8q-37 -101 -37 -207q0 -109 35 -204l4 -11l-4 -8q-3 -6 -7 -12.5t-20.5 -23.5t-37.5 -29t-58.5 -22.5t-81.5 -10.5t-81 10.5t-58 25t-35.5 30.5t-19.5 25.5t-5 12.5z" />
<glyph unicode="&#xcf;" horiz-adv-x="544" d="M-74 1757l13 12q66 60 180 60q96 0 137 -41l12 -10l-6 -15q-26 -68 -26 -135q0 -35 4 -51l2 -10l-9 -8q-50 -50 -139 -50q-66 0 -110 29l-13 6l2 17q2 12 2 34q0 79 -41 148zM57 111l4 8q45 107 45 233q0 88 -20 172v13q27 111 27 192q0 95 -33 207l-2 8l4 8 q43 110 43 219q0 87 -27 175l-4 12l8 10q3 6 19.5 20.5t62 33t101.5 18.5q57 0 104.5 -21t64.5 -37.5t21 -23.5l10 -10l-6 -13q-37 -110 -37 -213q0 -85 23 -161v-15q-31 -115 -31 -209q0 -106 33 -196l4 -9l-4 -8q-37 -101 -37 -207q0 -109 35 -204l4 -11l-4 -8 q-3 -6 -7 -12.5t-20.5 -23.5t-37.5 -29t-58.5 -22.5t-81.5 -10.5t-81 10.5t-58 25t-35.5 30.5t-19.5 25.5t-5 12.5zM319 1772l13 8q59 47 143 47q90 0 158 -55l12 -13l-6 -16q-43 -85 -43 -162v-18v-13l-10 -8q-50 -29 -107 -29q-75 0 -137 46l-10 8l2 12q2 18 2 53 q0 68 -14 125z" />
<glyph unicode="&#xd0;" horiz-adv-x="1372" d="M-33 729q0 37 11 68.5t22 48.5t31 33t24.5 18t17.5 7l1 1l10 2l8 -4q117 -45 291 -45h25q-3 17 -21 74l-2 10l4 8q43 107 43 217q0 91 -26 176l-5 13l9 10q1 2 7.5 9t22 18t35 21t51 17t66.5 7h20q59 47 127 47q13 0 25.5 -1.5t19.5 -3.5l7 -1l8 -4l4 -11 q35 -72 107.5 -145.5t156.5 -130.5l18 -8l9 -4l4 -9q91 -187 276 -280l12 -4l3 -15q2 -8 2 -18q0 -60 -41 -123q43 -61 43 -131v-10l-2 -15l-13 -6q-178 -97 -264 -264l-2 -8l-6 -2q-84 -50 -164.5 -135.5t-120.5 -173.5l-4 -9l-10 -4q-10 -10 -53 -10q-59 0 -119 41 q-40 -8 -68 -8q-44 0 -81 10.5t-57.5 25.5t-35 31t-19.5 26t-5 13l-4 8l4 11q45 107 45 231q0 82 -21 174v13l8 32q-59 6 -114 6q-121 0 -203 -24l-10 -2l-8 4q-99 49 -99 178zM741 735q0 -106 33 -196l4 -9l-4 -8q-16 -45 -24 -86q15 20 41.5 53t33.5 43l4 9l9 4 q129 65 215 176q-80 104 -201 168l-10 10q-49 65 -80 100q2 -12 10 -41v-14q-31 -115 -31 -209z" />
<glyph unicode="&#xd1;" horiz-adv-x="1224" d="M57 106l4 9q45 107 45 233q0 88 -20 172v12q27 111 27 193q0 95 -33 207l-2 8l4 8q43 110 43 219q0 85 -27 174l-4 13l8 10q3 6 19.5 20.5t62 33t101.5 18.5q73 0 133 -35h16q25 0 48 -5t33.5 -9.5t12.5 -6.5l13 -6l2 -12q21 -206 143 -346l6 -6v-6q23 -158 103 -283v2 q0 101 -31 209v16q43 110 43 223q0 81 -25 170l-4 13l8 10q3 6 19.5 20.5t62 33t101.5 18.5q35 0 67.5 -8t53 -19.5t37.5 -24t24 -20.5t8 -10l8 -11l-4 -12q-39 -115 -39 -215q0 -77 25 -160v-14q-31 -112 -31 -207q0 -108 33 -198v-17q-39 -101 -39 -211q0 -100 35 -200 l4 -11l-4 -8q-3 -6 -7 -12.5t-20.5 -23.5t-37 -29t-57.5 -22.5t-81 -10.5q-85 0 -139 35h-10q-32 0 -60 9.5t-39.5 17.5t-13.5 12l-8 6v10q-9 197 -150 379l-4 10q-23 131 -86 244q3 -93 33 -178l4 -9l-4 -8q-37 -101 -37 -207q0 -109 35 -204l4 -11l-4 -8q-3 -6 -7 -12.5 t-20.5 -23.5t-37.5 -29t-58.5 -22.5t-81.5 -10.5t-81 10.5t-58 25t-35.5 30.5t-19.5 25.5t-5 12.5zM264 1675v8l6 7q133 136 199 303l4 10l8 4q36 8 58 8q32 0 59 -12q6 2 20 2q36 0 74 -18l10 -13q39 -107 82 -176q57 100 82 193l2 10l11 4q29 16 67 16q61 0 108 -41.5 t50 -97.5v-10l-6 -6q-128 -146 -187 -330l-10 -12q-25 -17 -63 -17q-25 0 -43 6q-30 -12 -62 -12q-30 0 -61 17l-8 4l-2 8q-35 100 -87 188q-51 -70 -102 -182l-10 -12q-26 -13 -51 -13q-65 0 -106.5 49.5t-41.5 114.5z" />
<glyph unicode="&#xd2;" d="M16 227l4 9q40 73 57 126t17 119q0 39 -6 92l2 13q51 122 51 225q0 49 -14 131l-2 10l4 6q48 91 61 158q-36 49 -36 135q0 48 11 87t26.5 60.5t32.5 36t27 19t13 4.5l10 4l9 -4q98 -49 217 -49q85 0 114 10l9 2l8 -4q110 -50 192 -53q68 29 127 29q22 0 42.5 -3.5t37 -9 t30.5 -12t25 -13.5t18 -12.5t12 -9.5l5 -4l10 -10l-4 -12q-22 -90 -22 -160q0 -93 41 -193l4 -6l-2 -8q-14 -89 -14 -141q0 -125 55 -244l4 -6l-4 -10q-23 -94 -23 -154q0 -99 54 -213l4 -8l-4 -10q0 -2 -5.5 -13.5t-22 -30t-40.5 -35.5t-66 -29.5t-94 -12.5q-75 0 -129 37 q-94 -12 -178 -52l-6 -4l-6 2q-16 0 -47 2t-47 2q-188 0 -320 -69l-10 -4l-8 2q-27 7 -62 35q-61 50 -69 131q-32 17 -54.5 43t-29.5 40.5t-7 18.5zM406 332q150 18 196 49l8 4l8 -2q63 -14 134 -14q44 0 88 6q-7 47 -31 127l-2 12q12 67 12 131q0 122 -53 246l-4 8l2 10 q25 89 27 150q-36 4 -54 4q-47 0 -116 -16l-15 2q-8 1 -102 24q-2 -20 -2 -57q0 -36 10 -94v-9l-2 -6q-55 -127 -55 -233q0 -56 16 -131l2 -8l-4 -9q-58 -116 -63 -194zM412 1819l4 12q19 55 76.5 91t125.5 36q27 0 41 -2l17 -4l2 -17q12 -158 104 -309l4 -8l-2 -8 q-13 -50 -56.5 -76.5t-92.5 -26.5q-23 0 -33 4l-10 2l-4 11q-64 159 -168 286z" />
<glyph unicode="&#xd3;" d="M16 227l4 9q40 73 57 126t17 119q0 39 -6 92l2 13q51 122 51 225q0 49 -14 131l-2 10l4 6q48 91 61 158q-36 49 -36 135q0 48 11 87t26.5 60.5t32.5 36t27 19t13 4.5l10 4l9 -4q98 -49 217 -49q85 0 114 10l9 2l8 -4q110 -50 192 -53q68 29 127 29q22 0 42.5 -3.5t37 -9 t30.5 -12t25 -13.5t18 -12.5t12 -9.5l5 -4l10 -10l-4 -12q-22 -90 -22 -160q0 -93 41 -193l4 -6l-2 -8q-14 -89 -14 -141q0 -125 55 -244l4 -6l-4 -10q-23 -94 -23 -154q0 -99 54 -213l4 -8l-4 -10q0 -2 -5.5 -13.5t-22 -30t-40.5 -35.5t-66 -29.5t-94 -12.5q-75 0 -129 37 q-94 -12 -178 -52l-6 -4l-6 2q-16 0 -47 2t-47 2q-188 0 -320 -69l-10 -4l-8 2q-27 7 -62 35q-61 50 -69 131q-32 17 -54.5 43t-29.5 40.5t-7 18.5zM406 332q150 18 196 49l8 4l8 -2q63 -14 134 -14q44 0 88 6q-7 47 -31 127l-2 12q12 67 12 131q0 122 -53 246l-4 8l2 10 q25 89 27 150q-36 4 -54 4q-47 0 -116 -16l-15 2q-8 1 -102 24q-2 -20 -2 -57q0 -36 10 -94v-9l-2 -6q-55 -127 -55 -233q0 -56 16 -131l2 -8l-4 -9q-58 -116 -63 -194zM569 1624l9 8q123 135 192 301l6 13h12q6 2 19 2q66 0 118 -47t56 -111l2 -12l-10 -6 q-67 -53 -114 -113.5t-99 -147.5l-4 -8l-13 -2q-3 0 -10 -1t-10 -1q-53 0 -95.5 32t-54.5 81z" />
<glyph unicode="&#xd4;" d="M16 227l4 9q40 73 57 126t17 119q0 39 -6 92l2 13q51 122 51 225q0 49 -14 131l-2 10l4 6q48 91 61 158q-36 49 -36 135q0 48 11 87t26.5 60.5t32.5 36t27 19t13 4.5l10 4l9 -4q98 -49 217 -49q85 0 114 10l9 2l8 -4q110 -50 192 -53q68 29 127 29q22 0 42.5 -3.5t37 -9 t30.5 -12t25 -13.5t18 -12.5t12 -9.5l5 -4l10 -10l-4 -12q-22 -90 -22 -160q0 -93 41 -193l4 -6l-2 -8q-14 -89 -14 -141q0 -125 55 -244l4 -6l-4 -10q-23 -94 -23 -154q0 -99 54 -213l4 -8l-4 -10q0 -2 -5.5 -13.5t-22 -30t-40.5 -35.5t-66 -29.5t-94 -12.5q-75 0 -129 37 q-94 -12 -178 -52l-6 -4l-6 2q-16 0 -47 2t-47 2q-188 0 -320 -69l-10 -4l-8 2q-27 7 -62 35q-61 50 -69 131q-32 17 -54.5 43t-29.5 40.5t-7 18.5zM346 1657v8l6 6q134 140 195 305l4 11l8 2q27 12 57 12q31 0 58 -12q8 2 22 2q34 0 74 -19l8 -4l2 -8q73 -192 191 -307 l6 -8v-11q-6 -66 -54 -106.5t-104 -40.5q-34 0 -63 16l-8 4l-3 9q-39 104 -88 186q-57 -80 -100 -184l-10 -11q-28 -14 -53 -14q-61 0 -104.5 49.5t-43.5 114.5zM406 332q150 18 196 49l8 4l8 -2q63 -14 134 -14q44 0 88 6q-7 47 -31 127l-2 12q12 67 12 131q0 122 -53 246 l-4 8l2 10q25 89 27 150q-36 4 -54 4q-47 0 -116 -16l-15 2q-8 1 -102 24q-2 -20 -2 -57q0 -36 10 -94v-9l-2 -6q-55 -127 -55 -233q0 -56 16 -131l2 -8l-4 -9q-58 -116 -63 -194z" />
<glyph unicode="&#xd5;" d="M16 227l4 9q40 73 57 126t17 119q0 39 -6 92l2 13q51 122 51 225q0 49 -14 131l-2 10l4 6q48 91 61 158q-36 49 -36 135q0 48 11 87t26.5 60.5t32.5 36t27 19t13 4.5l10 4l9 -4q98 -49 217 -49q85 0 114 10l9 2l8 -4q110 -50 192 -53q68 29 127 29q22 0 42.5 -3.5t37 -9 t30.5 -12t25 -13.5t18 -12.5t12 -9.5l5 -4l10 -10l-4 -12q-22 -90 -22 -160q0 -93 41 -193l4 -6l-2 -8q-14 -89 -14 -141q0 -125 55 -244l4 -6l-4 -10q-23 -94 -23 -154q0 -99 54 -213l4 -8l-4 -10q0 -2 -5.5 -13.5t-22 -30t-40.5 -35.5t-66 -29.5t-94 -12.5q-75 0 -129 37 q-94 -12 -178 -52l-6 -4l-6 2q-16 0 -47 2t-47 2q-188 0 -320 -69l-10 -4l-8 2q-27 7 -62 35q-61 50 -69 131q-32 17 -54.5 43t-29.5 40.5t-7 18.5zM285 1665v8l6 6q131 134 198 303l5 11l8 4q36 8 57 8q32 0 59 -12q6 2 21 2q34 0 74 -19l10 -12q39 -107 82 -176 q58 101 82 192l2 11l10 4q29 16 68 16q61 0 107.5 -41.5t49.5 -97.5v-10l-6 -7q-127 -145 -186 -329l-10 -13q-24 -16 -64 -16q-25 0 -43 6q-30 -12 -61 -12q-33 0 -62 16l-8 4l-2 9q-36 104 -86 188q-51 -70 -102 -182l-11 -13q-24 -12 -51 -12q-65 0 -106 49.5t-41 114.5z M406 332q150 18 196 49l8 4l8 -2q63 -14 134 -14q44 0 88 6q-7 47 -31 127l-2 12q12 67 12 131q0 122 -53 246l-4 8l2 10q25 89 27 150q-36 4 -54 4q-47 0 -116 -16l-15 2q-8 1 -102 24q-2 -20 -2 -57q0 -36 10 -94v-9l-2 -6q-55 -127 -55 -233q0 -56 16 -131l2 -8l-4 -9 q-58 -116 -63 -194z" />
<glyph unicode="&#xd6;" d="M16 227l4 9q40 73 57 126t17 119q0 39 -6 92l2 13q51 122 51 225q0 49 -14 131l-2 10l4 6q48 91 61 158q-36 49 -36 135q0 48 11 87t26.5 60.5t32.5 36t27 19t13 4.5l10 4l9 -4q98 -49 217 -49q85 0 114 10l9 2l8 -4q110 -50 192 -53q68 29 127 29q22 0 42.5 -3.5t37 -9 t30.5 -12t25 -13.5t18 -12.5t12 -9.5l5 -4l10 -10l-4 -12q-22 -90 -22 -160q0 -93 41 -193l4 -6l-2 -8q-14 -89 -14 -141q0 -125 55 -244l4 -6l-4 -10q-23 -94 -23 -154q0 -99 54 -213l4 -8l-4 -10q0 -2 -5.5 -13.5t-22 -30t-40.5 -35.5t-66 -29.5t-94 -12.5q-75 0 -129 37 q-94 -12 -178 -52l-6 -4l-6 2q-16 0 -47 2t-47 2q-188 0 -320 -69l-10 -4l-8 2q-27 7 -62 35q-61 50 -69 131q-32 17 -54.5 43t-29.5 40.5t-7 18.5zM260 1782l12 12q65 59 181 59q96 0 137 -41l12 -10l-6 -14q-27 -70 -27 -135q0 -35 4 -51l2 -11l-8 -8q-49 -49 -139 -49 q-68 0 -111 29l-12 6l2 16q2 12 2 35q0 78 -41 147zM406 332q150 18 196 49l8 4l8 -2q63 -14 134 -14q44 0 88 6q-7 47 -31 127l-2 12q12 67 12 131q0 122 -53 246l-4 8l2 10q25 89 27 150q-36 4 -54 4q-47 0 -116 -16l-15 2q-8 1 -102 24q-2 -20 -2 -57q0 -36 10 -94v-9 l-2 -6q-55 -127 -55 -233q0 -56 16 -131l2 -8l-4 -9q-58 -116 -63 -194zM653 1796l13 8q59 47 143 47q90 0 158 -55l12 -12l-6 -17q-43 -85 -43 -161v-19v-12l-10 -8q-50 -29 -107 -29q-76 0 -137 45l-10 8l2 13q2 18 2 53q0 63 -15 125z" />
<glyph unicode="&#xd7;" horiz-adv-x="864" d="M55 809q0 83 72 160q73 75 156 75q14 0 26.5 -2t19.5 -4l7 -2l8 -4l4 -8q42 -87 101 -141q48 51 92 125l4 10l10 4l7 2q6 2 18 4t26 2q79 0 144 -67q61 -61 61 -136q0 -10 -1 -20.5t-3 -17.5t-4 -12.5t-3 -8.5l-1 -4l-4 -8l-11 -4q-64 -30 -135 -86q46 -51 139 -97l11 -6 l2 -12q0 -1 0.5 -3.5t1 -7.5t0.5 -10q0 -82 -70 -157q-74 -78 -174 -78h-12l-12 2l-7 10q-33 62 -54.5 93t-49.5 53q-79 -73 -121 -146l-8 -10l-12 -2q-9 -2 -19 -2q-80 0 -143 65q-64 64 -64 152q0 5 0.5 9.5t0.5 7.5t0.5 5t0.5 3l4 12l13 6q73 40 141 100q-51 48 -139 90 l-10 5l-5 10q-8 8 -8 51z" />
<glyph unicode="&#xd8;" d="M16 227l4 9q40 73 57 126t17 119q0 39 -6 92l2 13q51 122 51 225q0 49 -14 131l-2 10l4 6q47 86 61 158q-36 49 -36 135q0 48 11 87t26.5 60.5t32.5 36t27 19t13 4.5l10 4l9 -4q98 -49 217 -49q85 0 114 10l9 2l8 -4q115 -53 211 -53h8q0 4 2 6l4 14l12 7l4 2 q5 2 12.5 4.5t16.5 5t21.5 4.5t25.5 2q138 0 189 -126q18 -44 18 -69l2 -14l-12 -10l-39 -43q0 -98 39 -193l4 -6l-2 -8q-14 -89 -14 -141q0 -125 55 -244l4 -6l-4 -10q-23 -94 -23 -154q0 -99 54 -213l4 -8l-4 -10q0 -2 -5.5 -13.5t-22 -30t-40.5 -35.5t-66 -29.5 t-94 -12.5q-75 0 -129 37q-94 -12 -178 -52l-6 -4l-6 2q-16 0 -47 2t-47 2q-55 0 -127 -10l-9 -33l-2 -10l-8 -8q-4 -4 -14.5 -11t-38.5 -16.5t-57 -9.5q-57 0 -100.5 23t-65 57t-31.5 62.5t-10 48.5q-22 11 -40 25.5t-28 27.5t-16.5 24.5t-9.5 19.5l-3 7zM455 655 q104 146 151 314l2 10l8 6q54 54 70 74q-31 -3 -65 -12l-15 2q-8 1 -102 24q-2 -20 -2 -57q0 -36 10 -94v-9l-2 -6q-55 -134 -55 -231v-21zM666 375q43 -6 86 -6q44 0 88 6q-7 47 -31 127l-2 12q12 68 12 129q0 31 -2 45q-95 -140 -131 -285l-2 -10l-6 -6z" />
<glyph unicode="&#xd9;" horiz-adv-x="1193" d="M20 203l5 8q63 126 63 238q0 42 -10 114v12q43 119 43 222q0 54 -21 147l-2 8l4 9q62 127 62 256q0 58 -17 135l-4 14l11 8q3 5 17.5 17.5t55 27.5t90.5 15q46 0 85.5 -12t65.5 -32t36.5 -29.5t18.5 -20.5l1 -1l8 -12l-6 -12q-53 -123 -53 -252q0 -59 12 -121v-14 q-47 -133 -47 -232q0 -66 21 -143v-16q-53 -115 -53 -209q19 4 39 11t48 17.5l44 16.5l16 4q66 -8 92 -8q67 0 129 18q-10 68 -26 121l-3 12q15 73 15 148q0 129 -47 250v16q28 85 28 182q0 107 -39 211l-6 12l9 13l1 1q48 61 145 77q26 4 54 4q106 0 172 -66l10 -10l-4 -15 q-24 -88 -24 -174q0 -102 37 -200v-15q-19 -90 -19 -161q0 -129 49 -242l4 -8l-2 -8q-24 -86 -24 -170q0 -125 51 -242l4 -8l-4 -11l-2 -4q-2 -5 -6 -11t-10.5 -14.5t-16 -18t-21.5 -18.5t-28.5 -17.5t-36 -15t-45 -10t-53.5 -3.5q-123 0 -174 76q-59 -17 -121 -52l-12 -2 q-86 0 -132 -2.5t-109.5 -19t-117.5 -49.5l-8 -6l-10 2q-1 1 -12 5t-20 8.5t-24 16t-27.5 26.5t-26.5 40.5t-25 58.5q-33 16 -56.5 40.5t-30.5 39t-7 19.5zM344 1798l4 12q19 55 77 91t126 36q27 0 41 -2l16 -4l2 -16q12 -157 105 -309l4 -9l-2 -8q-13 -50 -56.5 -76 t-93.5 -26q-22 0 -32 4l-11 2l-4 10q-65 161 -168 287z" />
<glyph unicode="&#xda;" horiz-adv-x="1193" d="M20 203l5 8q63 126 63 238q0 42 -10 114v12q43 119 43 222q0 54 -21 147l-2 8l4 9q62 127 62 256q0 58 -17 135l-4 14l11 8q3 5 17.5 17.5t55 27.5t90.5 15q46 0 85.5 -12t65.5 -32t36.5 -29.5t18.5 -20.5l1 -1l8 -12l-6 -12q-53 -123 -53 -252q0 -59 12 -121v-14 q-47 -133 -47 -232q0 -66 21 -143v-16q-53 -115 -53 -209q19 4 39 11t48 17.5l44 16.5l16 4q66 -8 92 -8q67 0 129 18q-10 68 -26 121l-3 12q15 73 15 148q0 129 -47 250v16q28 85 28 182q0 107 -39 211l-6 12l9 13l1 1q48 61 145 77q26 4 54 4q106 0 172 -66l10 -10l-4 -15 q-24 -88 -24 -174q0 -102 37 -200v-15q-19 -90 -19 -161q0 -129 49 -242l4 -8l-2 -8q-24 -86 -24 -170q0 -125 51 -242l4 -8l-4 -11l-2 -4q-2 -5 -6 -11t-10.5 -14.5t-16 -18t-21.5 -18.5t-28.5 -17.5t-36 -15t-45 -10t-53.5 -3.5q-123 0 -174 76q-59 -17 -121 -52l-12 -2 q-86 0 -132 -2.5t-109.5 -19t-117.5 -49.5l-8 -6l-10 2q-1 1 -12 5t-20 8.5t-24 16t-27.5 26.5t-26.5 40.5t-25 58.5q-33 16 -56.5 40.5t-30.5 39t-7 19.5zM483 1624l9 8q123 135 192 301l6 13h12q6 2 19 2q66 0 118 -47t56 -111l2 -12l-10 -6q-67 -53 -114 -113.5 t-99 -147.5l-4 -8l-13 -2q-3 0 -10 -1t-10 -1q-53 0 -95.5 32t-54.5 81z" />
<glyph unicode="&#xdb;" horiz-adv-x="1193" d="M20 203l5 8q63 126 63 238q0 42 -10 114v12q43 119 43 222q0 54 -21 147l-2 8l4 9q62 127 62 256q0 58 -17 135l-4 14l11 8q3 5 17.5 17.5t55 27.5t90.5 15q46 0 85.5 -12t65.5 -32t36.5 -29.5t18.5 -20.5l1 -1l8 -12l-6 -12q-53 -123 -53 -252q0 -59 12 -121v-14 q-47 -133 -47 -232q0 -66 21 -143v-16q-53 -115 -53 -209q19 4 39 11t48 17.5l44 16.5l16 4q66 -8 92 -8q67 0 129 18q-10 68 -26 121l-3 12q15 73 15 148q0 129 -47 250v16q28 85 28 182q0 107 -39 211l-6 12l9 13l1 1q48 61 145 77q26 4 54 4q106 0 172 -66l10 -10l-4 -15 q-24 -88 -24 -174q0 -102 37 -200v-15q-19 -90 -19 -161q0 -129 49 -242l4 -8l-2 -8q-24 -86 -24 -170q0 -125 51 -242l4 -8l-4 -11l-2 -4q-2 -5 -6 -11t-10.5 -14.5t-16 -18t-21.5 -18.5t-28.5 -17.5t-36 -15t-45 -10t-53.5 -3.5q-123 0 -174 76q-59 -17 -121 -52l-12 -2 q-86 0 -132 -2.5t-109.5 -19t-117.5 -49.5l-8 -6l-10 2q-1 1 -12 5t-20 8.5t-24 16t-27.5 26.5t-26.5 40.5t-25 58.5q-33 16 -56.5 40.5t-30.5 39t-7 19.5zM274 1663v8l7 6q132 138 194 305l4 11l8 2q27 12 58 12q30 0 57 -12q8 2 23 2q33 0 73 -19l9 -4l2 -8 q74 -194 190 -307l6 -8v-11q-6 -66 -53.5 -106.5t-103.5 -40.5q-35 0 -64 16l-8 4l-2 9q-39 104 -88 186q-60 -83 -101 -184l-10 -11q-28 -14 -53 -14q-61 0 -104.5 49.5t-43.5 114.5z" />
<glyph unicode="&#xdc;" horiz-adv-x="1193" d="M20 203l5 8q63 126 63 238q0 42 -10 114v12q43 119 43 222q0 54 -21 147l-2 8l4 9q62 127 62 256q0 58 -17 135l-4 14l11 8q3 5 17.5 17.5t55 27.5t90.5 15q46 0 85.5 -12t65.5 -32t36.5 -29.5t18.5 -20.5l1 -1l8 -12l-6 -12q-53 -123 -53 -252q0 -59 12 -121v-14 q-47 -133 -47 -232q0 -66 21 -143v-16q-53 -115 -53 -209q19 4 39 11t48 17.5l44 16.5l16 4q66 -8 92 -8q67 0 129 18q-10 68 -26 121l-3 12q15 73 15 148q0 129 -47 250v16q28 85 28 182q0 107 -39 211l-6 12l9 13l1 1q48 61 145 77q26 4 54 4q106 0 172 -66l10 -10l-4 -15 q-24 -88 -24 -174q0 -102 37 -200v-15q-19 -90 -19 -161q0 -129 49 -242l4 -8l-2 -8q-24 -86 -24 -170q0 -125 51 -242l4 -8l-4 -11l-2 -4q-2 -5 -6 -11t-10.5 -14.5t-16 -18t-21.5 -18.5t-28.5 -17.5t-36 -15t-45 -10t-53.5 -3.5q-123 0 -174 76q-59 -17 -121 -52l-12 -2 q-86 0 -132 -2.5t-109.5 -19t-117.5 -49.5l-8 -6l-10 2q-1 1 -12 5t-20 8.5t-24 16t-27.5 26.5t-26.5 40.5t-25 58.5q-33 16 -56.5 40.5t-30.5 39t-7 19.5zM229 1782l13 12q65 59 180 59q96 0 137 -41l12 -10l-6 -14q-26 -68 -26 -135q0 -35 4 -51l2 -11l-8 -8 q-49 -49 -140 -49q-67 0 -110 29l-13 6l2 16q3 18 3 35q0 78 -41 147zM623 1796l12 8q59 47 143 47q90 0 158 -55l12 -12l-6 -17q-43 -85 -43 -161v-19v-12l-10 -8q-50 -29 -107 -29q-76 0 -137 45l-10 8l2 13q2 18 2 53q0 68 -14 125z" />
<glyph unicode="&#xdd;" horiz-adv-x="993" d="M-49 1157v12l1 3q32 132 127 185q52 29 118 29q12 0 23 -1.5t18 -2.5l6 -2l12 -4l4 -12q67 -194 217 -305l8 -12q14 -40 33 -74q0 2 1 6.5t1 7.5v8l6 6q145 151 166 359v14l13 6q2 2 11 6t30 8.5t45 4.5q40 0 76 -9.5t61 -24.5t46 -33.5t34 -36.5t22.5 -33.5t13.5 -23.5 l3 -9l2 -12l-9 -11q-137 -155 -155 -342v-6l-6 -6q-140 -180 -152 -377v-8l-6 -6q-146 -166 -158 -381v-10l-8 -7q-2 -4 -13.5 -12t-40 -17t-61.5 -9q-53 0 -110 24q-41 17 -71 40.5t-44 43.5t-21.5 42.5t-8.5 30.5t-1 15l9 19q139 142 176 364v2q-83 146 -172 207l-7 4 l-2 10q-62 203 -227 322zM395 1526l8 8q125 137 193 301l6 12h12q6 2 19 2q66 0 118 -46.5t56 -110.5l2 -13l-10 -6q-68 -53 -115 -113.5t-98 -146.5l-4 -8l-13 -2q-3 0 -10 -1t-10 -1q-53 0 -95.5 31.5t-54.5 80.5z" />
<glyph unicode="&#xde;" horiz-adv-x="1067" d="M57 88l4 8q45 107 45 234q0 88 -20 172v12q27 111 27 193q0 94 -33 206l-2 9l4 8q43 110 43 219q0 85 -27 174l-4 12l8 11q3 6 19.5 20.5t62 32.5t101.5 18q57 0 104.5 -21t64.5 -37.5t21 -23.5l10 -10l-6 -12q-22 -71 -26 -94q80 -51 217 -76q3 0 10 -1t10 -1h8l9 -6 q82 -70 154 -101t175 -37h13l6 -10q24 -48 24 -100q0 -43 -16 -90q-15 -45 -35 -70q19 -48 19 -88l-5 -37l-2 -14l-12 -4q-188 -82 -293 -234l-12 -10q-170 -87 -272 -211q11 -33 14 -39l4 -10l-4 -8q-3 -6 -7 -12.5t-20.5 -23.5t-37.5 -29.5t-58.5 -23t-81.5 -10.5 t-81 10.5t-58 25t-35.5 30.5t-19.5 26t-5 13zM434 715q0 -78 19 -156q26 26 32 41l7 8l8 2q130 49 227 146q-62 20 -137 26l-12 6q-113 65 -129 72q-15 -74 -15 -145z" />
<glyph unicode="&#xdf;" horiz-adv-x="1812" d="M4 176q0 50 20.5 88.5t34.5 49.5t23 16l8 6l10 -2q61 -12 97 -12q24 0 51.5 6t45.5 12t79 27l8 4l8 -2q62 -11 84 -13q-16 26 -63 76l-7 10q-28 101 -70.5 172t-113.5 136l-8 6v8q-35 205 -182 340l-9 8v12q0 4 3 15t15.5 35t31.5 45q-2 6 -2 18q0 31 8 58.5t18 43.5 t22.5 29t18.5 17t10 6l9 4l10 -2q63 -13 94 -13q12 0 24 1.5t20.5 3t25 6t24 7l31.5 10.5t35 11q12 4 18 8l8 5l9 -2q73 -15 118 -15q74 0 189 53l12 7l12 -7l3 -2q3 -2 8 -5t11 -8t13 -12.5t14.5 -16t14.5 -20t13.5 -24.5t11.5 -30t8 -35q4 -28 4 -43q0 -18 -3 -36 t-7.5 -32t-10 -26t-11.5 -21t-10.5 -15.5t-8.5 -11.5l-3 -4l-10 -8l-14 2q-75 10 -109 10q-44 0 -81 -10.5t-97 -38.5l-6 -4l-8 2q-18 0 -45 1t-37 1q43 -71 100 -123l6 -10q29 -109 71.5 -180.5t115.5 -134.5l8 -15q21 -106 58.5 -172.5t117.5 -134.5l6 -6l2 -10 q0 -105 -108 -176q-13 -29 -35 -51l-8 -11l-15 2q-86 11 -110 11q-42 0 -79.5 -11t-96.5 -39l-15 -2q-19 0 -51 2.5t-43 2.5q-51 0 -86.5 -11.5t-105.5 -46.5l-11 -6l-8 2q-5 1 -14 4.5t-32 19.5t-40.5 37.5t-32 62.5t-14.5 91zM909 176q0 50 20.5 88.5t34.5 49.5t23 16l8 6 l11 -2q61 -12 96 -12q24 0 51.5 6t45.5 12t79 27l8 4l8 -2q62 -11 84 -13q-16 26 -63 76l-6 10q-27 100 -70.5 171.5t-114.5 136.5l-8 6v8q-35 205 -182 340l-8 8v12q0 4 2.5 15t15 35t31.5 45q-2 6 -2 18q0 50 20.5 88.5t34.5 49.5t23 16l8 4l10 -2q63 -13 94 -13 q12 0 24 1.5t20.5 3t25 6t24 7l31.5 10.5t35 11q12 4 18 8l9 5l8 -2q73 -15 119 -15q73 0 188 53l12 7l13 -7l3 -2l7.5 -5t11 -8t13.5 -12.5t14.5 -16t14.5 -20t13 -24.5t11 -30t8 -35q4 -28 4 -43q0 -18 -3 -36t-7.5 -32t-10 -26t-11 -21t-10 -15.5t-8.5 -11.5l-3 -4 l-11 -8l-14 2q-75 10 -108 10q-44 0 -81.5 -10.5t-97.5 -38.5l-6 -4l-8 2q-18 0 -45 1t-37 1q42 -69 101 -123l6 -10q30 -110 71.5 -181.5t114.5 -133.5l8 -15q21 -106 58.5 -172.5t117.5 -134.5l6 -6l3 -10q0 -104 -109 -176q-13 -29 -35 -51l-8 -11l-14 2q-86 11 -111 11 q-42 0 -79.5 -11t-96.5 -39l-14 -2q-19 0 -51.5 2.5t-43.5 2.5q-51 0 -86.5 -11.5t-105.5 -46.5l-10 -6l-9 2q-5 1 -14 4.5t-32 19.5t-40.5 37.5t-32 62.5t-14.5 91z" />
<glyph unicode="&#xe0;" horiz-adv-x="1040" d="M-8 162l6 8q100 153 100 358v35l4 12q76 152 76 312q0 26 -4 80l-2 10l6 8q96 149 96 318q0 19 -4 65v12l9 9l4 3q4 3 9.5 6t14 7.5t19.5 9t24 8t29.5 5.5t34.5 2q54 0 98.5 -15.5t71.5 -40t39 -39t19 -26.5v-1l1 -1l6 -13l-6 -12q-4 -4 -4 -6h14q16 0 31.5 -1t27 -3 t20 -4t13.5 -3l5 -1l12 -9l-2 -14q-2 -16 -2 -47q0 -176 84 -326l4 -12v-27q0 -119 20 -190q29 11 76 37l10 6l13 -4l3 -2l7.5 -5t11 -8t13.5 -12.5t15 -16t15.5 -20.5t14.5 -25.5t13.5 -30.5t10.5 -36q6 -34 6 -61q0 -17 -2 -33t-5.5 -29.5t-8 -24.5t-9 -20l-7.5 -15 t-6 -11l-3 -4l-8 -11l-14 2q-18 2 -56 2q25 -91 82 -184l11 -16l-13 -15q-60 -60 -157 -82q-42 -10 -74 -10q-20 0 -39 3t-32.5 7t-23.5 7.5t-16 6.5l-6 3l-14 8l2 16q0 8 1 25t1 25q0 69 -12 137q-4 -4 -7 -4l-14 -4q-150 0 -260 -37v-31q0 -42 6 -86l2 -10l-6 -8 q-20 -20 -22 -21q-53 -43 -134 -43q-60 0 -106 15.5t-69.5 37.5t-39 44t-18.5 37l-4 16zM252 1802l4 13q19 55 77 91t126 36q20 0 41 -3l16 -4l2 -16q12 -157 105 -309l4 -8l-2 -9q-13 -50 -56.5 -76t-93.5 -26q-23 0 -33 4l-10 2l-4 10q-65 161 -168 287zM471 563 q43 15 82 35l16 4q16 -4 27 -4q-19 79 -66 180l-14 47q-45 -116 -45 -235v-27z" />
<glyph unicode="&#xe1;" horiz-adv-x="1040" d="M-8 162l6 8q100 153 100 358v35l4 12q76 152 76 312q0 26 -4 80l-2 10l6 8q96 149 96 318q0 19 -4 65v12l9 9l4 3q4 3 9.5 6t14 7.5t19.5 9t24 8t29.5 5.5t34.5 2q54 0 98.5 -15.5t71.5 -40t39 -39t19 -26.5v-1l1 -1l6 -13l-6 -12q-4 -4 -4 -6h14q16 0 31.5 -1t27 -3 t20 -4t13.5 -3l5 -1l12 -9l-2 -14q-2 -16 -2 -47q0 -176 84 -326l4 -12v-27q0 -119 20 -190q29 11 76 37l10 6l13 -4l3 -2l7.5 -5t11 -8t13.5 -12.5t15 -16t15.5 -20.5t14.5 -25.5t13.5 -30.5t10.5 -36q6 -34 6 -61q0 -17 -2 -33t-5.5 -29.5t-8 -24.5t-9 -20l-7.5 -15 t-6 -11l-3 -4l-8 -11l-14 2q-18 2 -56 2q25 -91 82 -184l11 -16l-13 -15q-60 -60 -157 -82q-42 -10 -74 -10q-20 0 -39 3t-32.5 7t-23.5 7.5t-16 6.5l-6 3l-14 8l2 16q0 8 1 25t1 25q0 69 -12 137q-4 -4 -7 -4l-14 -4q-150 0 -260 -37v-31q0 -42 6 -86l2 -10l-6 -8 q-20 -20 -22 -21q-53 -43 -134 -43q-60 0 -106 15.5t-69.5 37.5t-39 44t-18.5 37l-4 16zM471 563q43 15 82 35l16 4q16 -4 27 -4q-19 79 -66 180l-14 47q-45 -116 -45 -235v-27zM473 1610l8 8q125 137 193 301l6 12h12q6 2 19 2q66 0 118 -46.5t56 -110.5l2 -13l-10 -6 q-68 -53 -115 -113.5t-98 -146.5l-5 -8l-12 -2q-3 0 -10 -1t-10 -1q-53 0 -95.5 31.5t-54.5 80.5z" />
<glyph unicode="&#xe2;" horiz-adv-x="1040" d="M-8 162l6 8q100 153 100 358v35l4 12q76 152 76 312q0 26 -4 80l-2 10l6 8q96 149 96 318q0 19 -4 65v12l9 9l4 3q4 3 9.5 6t14 7.5t19.5 9t24 8t29.5 5.5t34.5 2q54 0 98.5 -15.5t71.5 -40t39 -39t19 -26.5v-1l1 -1l6 -13l-6 -12q-4 -4 -4 -6h14q16 0 31.5 -1t27 -3 t20 -4t13.5 -3l5 -1l12 -9l-2 -14q-2 -16 -2 -47q0 -176 84 -326l4 -12v-27q0 -119 20 -190q29 11 76 37l10 6l13 -4l3 -2l7.5 -5t11 -8t13.5 -12.5t15 -16t15.5 -20.5t14.5 -25.5t13.5 -30.5t10.5 -36q6 -34 6 -61q0 -17 -2 -33t-5.5 -29.5t-8 -24.5t-9 -20l-7.5 -15 t-6 -11l-3 -4l-8 -11l-14 2q-18 2 -56 2q25 -91 82 -184l11 -16l-13 -15q-60 -60 -157 -82q-42 -10 -74 -10q-20 0 -39 3t-32.5 7t-23.5 7.5t-16 6.5l-6 3l-14 8l2 16q0 8 1 25t1 25q0 69 -12 137q-4 -4 -7 -4l-14 -4q-150 0 -260 -37v-31q0 -42 6 -86l2 -10l-6 -8 q-20 -20 -22 -21q-53 -43 -134 -43q-60 0 -106 15.5t-69.5 37.5t-39 44t-18.5 37l-4 16zM217 1657v8l6 6q134 140 195 305l4 11l8 2q27 12 57 12q31 0 58 -12q8 2 22 2q34 0 74 -19l8 -4l2 -8q73 -192 191 -307l6 -8v-11q-6 -66 -54 -106.5t-104 -40.5q-34 0 -63 16l-9 4 l-2 9q-39 104 -88 186q-57 -80 -100 -184l-10 -11q-28 -14 -53 -14q-61 0 -104.5 49.5t-43.5 114.5zM471 563q43 15 82 35l16 4q16 -4 27 -4q-19 79 -66 180l-14 47q-45 -116 -45 -235v-27z" />
<glyph unicode="&#xe3;" horiz-adv-x="1040" d="M-8 162l6 8q100 153 100 358v35l4 12q76 152 76 312q0 26 -4 80l-2 10l6 8q96 149 96 318q0 19 -4 65v12l9 9l4 3q4 3 9.5 6t14 7.5t19.5 9t24 8t29.5 5.5t34.5 2q54 0 98.5 -15.5t71.5 -40t39 -39t19 -26.5v-1l1 -1l6 -13l-6 -12q-4 -4 -4 -6h14q16 0 31.5 -1t27 -3 t20 -4t13.5 -3l5 -1l12 -9l-2 -14q-2 -16 -2 -47q0 -176 84 -326l4 -12v-27q0 -119 20 -190q29 11 76 37l10 6l13 -4l3 -2l7.5 -5t11 -8t13.5 -12.5t15 -16t15.5 -20.5t14.5 -25.5t13.5 -30.5t10.5 -36q6 -34 6 -61q0 -17 -2 -33t-5.5 -29.5t-8 -24.5t-9 -20l-7.5 -15 t-6 -11l-3 -4l-8 -11l-14 2q-18 2 -56 2q25 -91 82 -184l11 -16l-13 -15q-60 -60 -157 -82q-42 -10 -74 -10q-20 0 -39 3t-32.5 7t-23.5 7.5t-16 6.5l-6 3l-14 8l2 16q0 8 1 25t1 25q0 69 -12 137q-4 -4 -7 -4l-14 -4q-150 0 -260 -37v-31q0 -42 6 -86l2 -10l-6 -8 q-20 -20 -22 -21q-53 -43 -134 -43q-60 0 -106 15.5t-69.5 37.5t-39 44t-18.5 37l-4 16zM133 1647v8l6 6q133 136 199 303l4 10l8 4q41 9 58 9q30 0 59 -13q6 2 20 2q37 0 74 -18l10 -12q40 -110 82 -177q57 100 82 193l2 10l11 4q31 17 67 17q61 0 108 -42t50 -98v-10 l-6 -6q-128 -146 -187 -330l-10 -12q-24 -16 -63 -16q-25 0 -43 6q-30 -12 -62 -12t-61 16l-9 4l-2 8q-37 107 -86 189q-49 -69 -102 -183l-10 -12q-24 -12 -51 -12q-65 0 -106.5 49.5t-41.5 114.5zM471 563q43 15 82 35l16 4q16 -4 27 -4q-19 79 -66 180l-14 47 q-45 -116 -45 -235v-27z" />
<glyph unicode="&#xe4;" horiz-adv-x="1040" d="M-8 162l6 8q100 153 100 358v35l4 12q76 152 76 312q0 26 -4 80l-2 10l6 8q96 149 96 318q0 19 -4 65v12l9 9l4 3q4 3 9.5 6t14 7.5t19.5 9t24 8t29.5 5.5t34.5 2q54 0 98.5 -15.5t71.5 -40t39 -39t19 -26.5v-1l1 -1l6 -13l-6 -12q-4 -4 -4 -6h14q16 0 31.5 -1t27 -3 t20 -4t13.5 -3l5 -1l12 -9l-2 -14q-2 -16 -2 -47q0 -176 84 -326l4 -12v-27q0 -119 20 -190q29 11 76 37l10 6l13 -4l3 -2l7.5 -5t11 -8t13.5 -12.5t15 -16t15.5 -20.5t14.5 -25.5t13.5 -30.5t10.5 -36q6 -34 6 -61q0 -17 -2 -33t-5.5 -29.5t-8 -24.5t-9 -20l-7.5 -15 t-6 -11l-3 -4l-8 -11l-14 2q-18 2 -56 2q25 -91 82 -184l11 -16l-13 -15q-60 -60 -157 -82q-42 -10 -74 -10q-20 0 -39 3t-32.5 7t-23.5 7.5t-16 6.5l-6 3l-14 8l2 16q0 8 1 25t1 25q0 69 -12 137q-4 -4 -7 -4l-14 -4q-150 0 -260 -37v-31q0 -42 6 -86l2 -10l-6 -8 q-20 -20 -22 -21q-53 -43 -134 -43q-60 0 -106 15.5t-69.5 37.5t-39 44t-18.5 37l-4 16zM174 1757l12 12q66 60 181 60q96 0 137 -41l12 -10l-6 -15q-27 -71 -27 -135q0 -35 4 -51l2 -10l-8 -8q-50 -50 -139 -50q-68 0 -111 29l-12 6l2 17q2 12 2 34q0 79 -41 148zM471 563 q43 15 82 35l16 4q16 -4 27 -4q-19 79 -66 180l-14 47q-45 -116 -45 -235v-27zM567 1772l13 8q59 47 143 47q90 0 158 -55l12 -13l-6 -16q-43 -85 -43 -162v-18v-13l-10 -8q-50 -29 -107 -29q-75 0 -137 46l-10 8l2 12q2 18 2 53q0 64 -15 125z" />
<glyph unicode="&#xe5;" horiz-adv-x="1040" d="M-8 162l6 8q100 153 100 358v35l4 12q76 152 76 312q0 26 -4 80l-2 10l6 8q96 149 96 318q0 19 -4 65v12l9 9l4 3q4 3 9.5 6t14 7.5t19.5 9t24 8t29.5 5.5t34.5 2q54 0 98.5 -15.5t71.5 -40t39 -39t19 -26.5v-1l1 -1l6 -13l-6 -12q-4 -4 -4 -6h14q16 0 31.5 -1t27 -3 t20 -4t13.5 -3l5 -1l12 -9l-2 -14q-2 -16 -2 -47q0 -176 84 -326l4 -12v-27q0 -119 20 -190q29 11 76 37l10 6l13 -4l3 -2l7.5 -5t11 -8t13.5 -12.5t15 -16t15.5 -20.5t14.5 -25.5t13.5 -30.5t10.5 -36q6 -34 6 -61q0 -17 -2 -33t-5.5 -29.5t-8 -24.5t-9 -20l-7.5 -15 t-6 -11l-3 -4l-8 -11l-14 2q-18 2 -56 2q25 -91 82 -184l11 -16l-13 -15q-60 -60 -157 -82q-42 -10 -74 -10q-20 0 -39 3t-32.5 7t-23.5 7.5t-16 6.5l-6 3l-14 8l2 16q0 8 1 25t1 25q0 69 -12 137q-4 -4 -7 -4l-14 -4q-150 0 -260 -37v-31q0 -42 6 -86l2 -10l-6 -8 q-20 -20 -22 -21q-53 -43 -134 -43q-60 0 -106 15.5t-69.5 37.5t-39 44t-18.5 37l-4 16zM217 1765l10 11q108 97 172 249l7 13l12 2q6 2 22 2q59 0 113 -41q47 35 109 35q20 0 38 -6l11 -5l4 -10q46 -144 131 -252l4 -6v-6q0 -68 -49 -111q4 -14 4 -47q-1 -36 -19.5 -67.5 t-48.5 -48.5l-8 -4l-8 2q-94 20 -199 20q-86 0 -180 -16l-8 -2l-8 4q-60 34 -60 118q0 27 13 60q-46 37 -60 94zM471 563q43 15 82 35l16 4q16 -4 27 -4q-19 79 -66 180l-14 47q-45 -116 -45 -235v-27zM473 1716h59q51 0 76 2q-24 50 -59 97q-37 -39 -76 -99z" />
<glyph unicode="&#xe6;" horiz-adv-x="1634" d="M-43 216v15v11l8 6q147 133 197 354l4 12q144 168 168 363l8 14q155 146 184 348l2 13l13 6l4 2q4 1 10.5 3t15 4t20.5 3.5t25 1.5q59 0 111 -22l-2 6l8 10q1 2 7.5 9t22 18t35 21t51 17t66.5 7q91 0 154 -47q66 7 125 26l8 4l8 -2q99 -30 154 -30q61 0 162 36l12 5 l10 -7l1 -1q65 -50 79 -146q1 -11 2 -23v-18q0 -101 -67 -168l-11 -8l-14 4q-99 22 -145 22q-59 0 -150 -30l-12 -2q-88 16 -158 16q7 -60 23 -111v-14q-11 -34 -17 -72q55 -14 109 -14q70 0 158 27l12 4l10 -8q2 -1 9 -7t18 -21t21 -34t17 -49t7 -63q0 -108 -80 -183 l-12 -8l-13 4q-110 37 -182 37q-31 0 -61 -6l6 -12v-17q-24 -68 -33 -135q20 4 49.5 8t48.5 6l19 2l8 3l8 -5q115 -47 178 -47q45 0 135 23l13 4l10 -8q65 -65 65 -176q0 -19 -3 -37.5t-8 -33t-11 -28t-13.5 -24.5t-14 -20t-13 -16t-11 -11.5t-8.5 -7.5l-4 -3l-10 -6l-12 4 q-110 41 -174 41q-47 0 -121 -18h-12q-17 3 -54 12t-57 12q-56 -69 -182 -69q-44 0 -81 10.5t-58 25.5t-35.5 31t-19.5 26t-5 13l-4 8l4 11q37 91 43 190q-62 6 -127 6q-127 0 -200 -22l-11 -4l-4 2q-53 -103 -65 -221l-2 -11l-9 -6q-4 -4 -12.5 -9.5t-34.5 -13.5t-55 -8 q-60 0 -123 31q-40 19 -68.5 45t-41 45t-19 44.5t-6.5 30.5zM553 612q73 -12 156 -12h22q12 64 12 127q0 103 -30 197q-18 -64 -21 -90l-6 -13q-89 -99 -133 -209z" />
<glyph unicode="&#xe7;" horiz-adv-x="1054" d="M16 227l4 9q40 73 57 126t17 119q0 39 -6 92l2 13q51 122 51 225q0 49 -14 131l-2 10l4 6q48 91 61 158q-36 49 -36 135q0 48 11 87t26.5 60.5t32.5 36t27 19t13 4.5l10 4l9 -4q98 -49 217 -49q85 0 114 10l9 2l8 -4q118 -53 207 -53q58 0 129 18l12 2l8 -8 q5 -3 17.5 -18t27.5 -55.5t15 -90.5v-16q-5 -108 -86 -178l-13 -8l-12 4q-116 49 -199 49q-47 0 -116 -16l-15 2q-8 1 -102 24q-2 -20 -2 -57q0 -36 10 -94v-9l-2 -6q-55 -127 -55 -233q0 -56 16 -131l2 -8l-4 -9q-58 -113 -63 -194q24 4 43.5 9t49 16t44.5 16q12 4 18 8 l8 4l9 -2q63 -14 122 -14q106 0 230 59l12 6l10 -6q4 -2 10.5 -6.5t20.5 -18t26.5 -31t24.5 -46.5t17 -62q2 -14 2 -41q0 -19 -3 -37.5t-7.5 -33t-10 -27.5t-11.5 -22.5t-10.5 -16.5t-8.5 -12l-3 -4l-10 -11l-12 4q-75 11 -113 11q-50 0 -104 -13q-6 -33 -6 -94 q0 -82 22 -172l2 -10l-8 -10q-19 -19 -43 -31v-14q0 -31 -12 -58l-4 -12l-15 -2q-144 -21 -284 -109l-11 -8l-10 6q-42 18 -71 64t-29 102q0 39 16 68l6 10l11 2q118 16 202 53q9 58 9 115q0 10 -1.5 29.5t-1.5 29.5q-148 -3 -274 -69l-10 -4l-8 2q-27 7 -62 35 q-61 50 -69 131q-32 17 -54.5 43t-29.5 40.5t-7 18.5z" />
<glyph unicode="&#xe8;" horiz-adv-x="1003" d="M57 106l4 11q45 107 45 231q0 87 -20 174v13q27 111 27 192q0 96 -33 205l-2 10l4 8q43 107 43 217q0 87 -27 176l-4 13l8 10q3 6 19.5 20.5t62 33t101.5 18.5q90 0 153 -47q66 7 125 26l8 4l11 -2q95 -30 151 -30q64 0 162 36l12 5l11 -7q7 -4 21.5 -18t35 -56.5 t24.5 -95.5v-18q0 -101 -67 -168l-10 -8l-15 4q-99 22 -145 22q-56 0 -148 -30l-14 -2q-88 16 -158 16q7 -60 23 -111v-14q-9 -28 -16 -72q55 -14 108 -14q69 0 158 27l12 4l10 -8q2 -1 9 -7t18 -21t21 -34t17 -49t7 -63q0 -108 -80 -183l-10 -8l-14 4q-110 37 -183 37 q-31 0 -61 -6l6 -12l4 -9l-4 -8q-24 -68 -33 -135q19 4 48 8t48 6t21 2l8 3l8 -5q115 -47 178 -47q46 0 136 23l12 4l10 -8q66 -66 66 -176q0 -24 -5 -47t-12.5 -40.5t-16 -32.5t-17.5 -25.5t-16 -18.5t-12 -13l-5 -4l-13 -6l-12 4q-110 41 -174 41q-46 0 -119 -18h-14 q-16 3 -34.5 7t-41.5 9t-35 8q-60 -69 -182 -69q-44 0 -81 10.5t-58 25.5t-35.5 31t-19.5 26t-5 13zM279 1831l4 12q19 55 76.5 91t125.5 36q27 0 41 -2l17 -4l2 -16q12 -160 104 -310l4 -8l-2 -8q-13 -50 -56 -76t-93 -26q-23 0 -33 4l-10 2l-4 10q-65 161 -168 287z" />
<glyph unicode="&#xe9;" horiz-adv-x="1003" d="M57 106l4 11q45 107 45 231q0 87 -20 174v13q27 111 27 192q0 96 -33 205l-2 10l4 8q43 107 43 217q0 87 -27 176l-4 13l8 10q3 6 19.5 20.5t62 33t101.5 18.5q90 0 153 -47q66 7 125 26l8 4l11 -2q95 -30 151 -30q64 0 162 36l12 5l11 -7q7 -4 21.5 -18t35 -56.5 t24.5 -95.5v-18q0 -101 -67 -168l-10 -8l-15 4q-99 22 -145 22q-56 0 -148 -30l-14 -2q-88 16 -158 16q7 -60 23 -111v-14q-9 -28 -16 -72q55 -14 108 -14q69 0 158 27l12 4l10 -8q2 -1 9 -7t18 -21t21 -34t17 -49t7 -63q0 -108 -80 -183l-10 -8l-14 4q-110 37 -183 37 q-31 0 -61 -6l6 -12l4 -9l-4 -8q-24 -68 -33 -135q19 4 48 8t48 6t21 2l8 3l8 -5q115 -47 178 -47q46 0 136 23l12 4l10 -8q66 -66 66 -176q0 -24 -5 -47t-12.5 -40.5t-16 -32.5t-17.5 -25.5t-16 -18.5t-12 -13l-5 -4l-13 -6l-12 4q-110 41 -174 41q-46 0 -119 -18h-14 q-16 3 -34.5 7t-41.5 9t-35 8q-60 -69 -182 -69q-44 0 -81 10.5t-58 25.5t-35.5 31t-19.5 26t-5 13zM408 1628l8 8q123 135 192 301l6 13h13q6 2 18 2q66 0 118 -47t56 -111l2 -12l-10 -6q-68 -53 -115 -113.5t-98 -146.5l-4 -9l-12 -2q-3 0 -10.5 -1t-10.5 -1q-53 0 -95 32 t-54 81z" />
<glyph unicode="&#xea;" horiz-adv-x="1003" d="M57 106l4 11q45 107 45 231q0 87 -20 174v13q27 111 27 192q0 96 -33 205l-2 10l4 8q43 107 43 217q0 87 -27 176l-4 13l8 10q3 6 19.5 20.5t62 33t101.5 18.5q90 0 153 -47q66 7 125 26l8 4l11 -2q95 -30 151 -30q64 0 162 36l12 5l11 -7q7 -4 21.5 -18t35 -56.5 t24.5 -95.5v-18q0 -101 -67 -168l-10 -8l-15 4q-99 22 -145 22q-56 0 -148 -30l-14 -2q-88 16 -158 16q7 -60 23 -111v-14q-9 -28 -16 -72q55 -14 108 -14q69 0 158 27l12 4l10 -8q2 -1 9 -7t18 -21t21 -34t17 -49t7 -63q0 -108 -80 -183l-10 -8l-14 4q-110 37 -183 37 q-31 0 -61 -6l6 -12l4 -9l-4 -8q-24 -68 -33 -135q19 4 48 8t48 6t21 2l8 3l8 -5q115 -47 178 -47q46 0 136 23l12 4l10 -8q66 -66 66 -176q0 -24 -5 -47t-12.5 -40.5t-16 -32.5t-17.5 -25.5t-16 -18.5t-12 -13l-5 -4l-13 -6l-12 4q-110 41 -174 41q-46 0 -119 -18h-14 q-16 3 -34.5 7t-41.5 9t-35 8q-60 -69 -182 -69q-44 0 -81 10.5t-58 25.5t-35.5 31t-19.5 26t-5 13zM213 1671v8l6 7q134 140 195 305l4 10l8 2q27 12 57 12q31 0 58 -12q8 2 22 2q37 0 74 -18l8 -5l2 -8q73 -192 191 -307l6 -8v-10q-6 -66 -54 -107t-104 -41q-32 0 -63 17 l-9 4l-2 8q-39 104 -88 186q-57 -80 -100 -184l-10 -10q-30 -15 -54 -15q-61 0 -104 49.5t-43 114.5z" />
<glyph unicode="&#xeb;" horiz-adv-x="1003" d="M57 106l4 11q45 107 45 231q0 87 -20 174v13q27 111 27 192q0 96 -33 205l-2 10l4 8q43 107 43 217q0 87 -27 176l-4 13l8 10q3 6 19.5 20.5t62 33t101.5 18.5q90 0 153 -47q66 7 125 26l8 4l11 -2q95 -30 151 -30q64 0 162 36l12 5l11 -7q7 -4 21.5 -18t35 -56.5 t24.5 -95.5v-18q0 -101 -67 -168l-10 -8l-15 4q-99 22 -145 22q-56 0 -148 -30l-14 -2q-88 16 -158 16q7 -60 23 -111v-14q-9 -28 -16 -72q55 -14 108 -14q69 0 158 27l12 4l10 -8q2 -1 9 -7t18 -21t21 -34t17 -49t7 -63q0 -108 -80 -183l-10 -8l-14 4q-110 37 -183 37 q-31 0 -61 -6l6 -12l4 -9l-4 -8q-24 -68 -33 -135q19 4 48 8t48 6t21 2l8 3l8 -5q115 -47 178 -47q46 0 136 23l12 4l10 -8q66 -66 66 -176q0 -24 -5 -47t-12.5 -40.5t-16 -32.5t-17.5 -25.5t-16 -18.5t-12 -13l-5 -4l-13 -6l-12 4q-110 41 -174 41q-46 0 -119 -18h-14 q-16 3 -34.5 7t-41.5 9t-35 8q-60 -69 -182 -69q-44 0 -81 10.5t-58 25.5t-35.5 31t-19.5 26t-5 13zM168 1782l12 12q65 59 180 59q97 0 138 -41l12 -10l-6 -14q-27 -70 -27 -135q0 -35 4 -51l2 -11l-8 -8q-49 -49 -139 -49q-68 0 -111 29l-12 6l2 16q2 12 2 35 q0 78 -41 147zM561 1796l12 8q59 47 144 47q89 0 157 -55l13 -12l-6 -17q-43 -85 -43 -161v-19v-12l-11 -8q-50 -29 -106 -29q-76 0 -137 45l-11 8l2 13q3 27 3 53q0 63 -15 125z" />
<glyph unicode="&#xec;" horiz-adv-x="544" d="M-10 1823l4 12q19 55 77 91t126 36q27 0 41 -2l16 -4l2 -17q12 -158 104 -309l5 -8l-3 -8q-13 -50 -56.5 -76.5t-92.5 -26.5q-21 0 -33 5l-10 2l-4 10q-65 161 -168 287zM57 111l4 8q45 107 45 233q0 88 -20 172v13q27 111 27 192q0 95 -33 207l-2 8l4 8q43 110 43 219 q0 87 -27 175l-4 12l8 10q3 6 19.5 20.5t62 33t101.5 18.5q57 0 104.5 -21t64.5 -37.5t21 -23.5l10 -10l-6 -13q-37 -110 -37 -213q0 -85 23 -161v-15q-31 -115 -31 -209q0 -106 33 -196l4 -9l-4 -8q-37 -101 -37 -207q0 -109 35 -204l4 -11l-4 -8q-3 -6 -7 -12.5 t-20.5 -23.5t-37.5 -29t-58.5 -22.5t-81.5 -10.5t-81 10.5t-58 25t-35.5 30.5t-19.5 25.5t-5 12.5z" />
<glyph unicode="&#xed;" horiz-adv-x="544" d="M57 111l4 8q45 107 45 233q0 88 -20 172v13q27 111 27 192q0 95 -33 207l-2 8l4 8q43 110 43 219q0 87 -27 175l-4 12l8 10q3 6 19.5 20.5t62 33t101.5 18.5q57 0 104.5 -21t64.5 -37.5t21 -23.5l10 -10l-6 -13q-37 -110 -37 -213q0 -85 23 -161v-15q-31 -115 -31 -209 q0 -106 33 -196l4 -9l-4 -8q-37 -101 -37 -207q0 -109 35 -204l4 -11l-4 -8q-3 -6 -7 -12.5t-20.5 -23.5t-37.5 -29t-58.5 -22.5t-81.5 -10.5t-81 10.5t-58 25t-35.5 30.5t-19.5 25.5t-5 12.5zM203 1642l8 9q123 135 192 301l7 12h12q6 2 18 2q66 0 118 -47t56 -111l2 -12 l-10 -6q-68 -53 -115 -113.5t-98 -146.5l-4 -8l-12 -2q-3 0 -10.5 -1t-10.5 -1q-53 0 -95 31.5t-54 80.5z" />
<glyph unicode="&#xee;" horiz-adv-x="544" d="M-10 1675v8l6 7q132 138 194 305l5 10l8 2q27 12 57 12t57 -12q8 2 23 2q36 0 74 -18l8 -4l2 -9q74 -194 190 -307l7 -8v-10q-6 -66 -54 -107t-104 -41q-33 0 -64 17l-8 4l-2 8q-39 104 -88 186q-57 -80 -100 -184l-11 -10q-30 -15 -53 -15q-61 0 -104 49.5t-43 114.5z M57 111l4 8q45 107 45 233q0 88 -20 172v13q27 111 27 192q0 95 -33 207l-2 8l4 8q43 110 43 219q0 87 -27 175l-4 12l8 10q3 6 19.5 20.5t62 33t101.5 18.5q57 0 104.5 -21t64.5 -37.5t21 -23.5l10 -10l-6 -13q-37 -110 -37 -213q0 -85 23 -161v-15q-31 -115 -31 -209 q0 -106 33 -196l4 -9l-4 -8q-37 -101 -37 -207q0 -109 35 -204l4 -11l-4 -8q-3 -6 -7 -12.5t-20.5 -23.5t-37.5 -29t-58.5 -22.5t-81.5 -10.5t-81 10.5t-58 25t-35.5 30.5t-19.5 25.5t-5 12.5z" />
<glyph unicode="&#xef;" horiz-adv-x="544" d="M-74 1757l13 12q66 60 180 60q96 0 137 -41l12 -10l-6 -15q-26 -68 -26 -135q0 -35 4 -51l2 -10l-9 -8q-50 -50 -139 -50q-66 0 -110 29l-13 6l2 17q2 12 2 34q0 79 -41 148zM57 111l4 8q45 107 45 233q0 88 -20 172v13q27 111 27 192q0 95 -33 207l-2 8l4 8 q43 110 43 219q0 87 -27 175l-4 12l8 10q3 6 19.5 20.5t62 33t101.5 18.5q57 0 104.5 -21t64.5 -37.5t21 -23.5l10 -10l-6 -13q-37 -110 -37 -213q0 -85 23 -161v-15q-31 -115 -31 -209q0 -106 33 -196l4 -9l-4 -8q-37 -101 -37 -207q0 -109 35 -204l4 -11l-4 -8 q-3 -6 -7 -12.5t-20.5 -23.5t-37.5 -29t-58.5 -22.5t-81.5 -10.5t-81 10.5t-58 25t-35.5 30.5t-19.5 25.5t-5 12.5zM319 1772l13 8q59 47 143 47q90 0 158 -55l12 -13l-6 -16q-43 -85 -43 -162v-18v-13l-10 -8q-50 -29 -107 -29q-75 0 -137 46l-10 8l2 12q2 18 2 53 q0 68 -14 125z" />
<glyph unicode="&#xf0;" horiz-adv-x="1372" d="M-33 729q0 37 11 68.5t22 48.5t31 33t24.5 18t17.5 7l1 1l10 2l8 -4q117 -45 291 -45h25q-3 17 -21 74l-2 10l4 8q43 107 43 217q0 91 -26 176l-5 13l9 10q1 2 7.5 9t22 18t35 21t51 17t66.5 7h20q59 47 127 47q13 0 25.5 -1.5t19.5 -3.5l7 -1l8 -4l4 -11 q35 -72 107.5 -145.5t156.5 -130.5l18 -8l9 -4l4 -9q91 -187 276 -280l12 -4l3 -15q2 -8 2 -18q0 -60 -41 -123q43 -61 43 -131v-10l-2 -15l-13 -6q-178 -97 -264 -264l-2 -8l-6 -2q-84 -50 -164.5 -135.5t-120.5 -173.5l-4 -9l-10 -4q-10 -10 -53 -10q-59 0 -119 41 q-40 -8 -68 -8q-44 0 -81 10.5t-57.5 25.5t-35 31t-19.5 26t-5 13l-4 8l4 11q45 107 45 231q0 82 -21 174v13l8 32q-59 6 -114 6q-121 0 -203 -24l-10 -2l-8 4q-99 49 -99 178zM741 735q0 -106 33 -196l4 -9l-4 -8q-16 -45 -24 -86q15 20 41.5 53t33.5 43l4 9l9 4 q129 65 215 176q-80 104 -201 168l-10 10q-49 65 -80 100q2 -12 10 -41v-14q-31 -115 -31 -209z" />
<glyph unicode="&#xf1;" horiz-adv-x="1224" d="M57 106l4 9q45 107 45 233q0 88 -20 172v12q27 111 27 193q0 95 -33 207l-2 8l4 8q43 110 43 219q0 85 -27 174l-4 13l8 10q3 6 19.5 20.5t62 33t101.5 18.5q73 0 133 -35h16q25 0 48 -5t33.5 -9.5t12.5 -6.5l13 -6l2 -12q21 -206 143 -346l6 -6v-6q23 -158 103 -283v2 q0 101 -31 209v16q43 110 43 223q0 81 -25 170l-4 13l8 10q3 6 19.5 20.5t62 33t101.5 18.5q35 0 67.5 -8t53 -19.5t37.5 -24t24 -20.5t8 -10l8 -11l-4 -12q-39 -115 -39 -215q0 -77 25 -160v-14q-31 -112 -31 -207q0 -108 33 -198v-17q-39 -101 -39 -211q0 -100 35 -200 l4 -11l-4 -8q-3 -6 -7 -12.5t-20.5 -23.5t-37 -29t-57.5 -22.5t-81 -10.5q-85 0 -139 35h-10q-32 0 -60 9.5t-39.5 17.5t-13.5 12l-8 6v10q-9 197 -150 379l-4 10q-23 131 -86 244q3 -93 33 -178l4 -9l-4 -8q-37 -101 -37 -207q0 -109 35 -204l4 -11l-4 -8q-3 -6 -7 -12.5 t-20.5 -23.5t-37.5 -29t-58.5 -22.5t-81.5 -10.5t-81 10.5t-58 25t-35.5 30.5t-19.5 25.5t-5 12.5zM264 1675v8l6 7q133 136 199 303l4 10l8 4q36 8 58 8q32 0 59 -12q6 2 20 2q36 0 74 -18l10 -13q39 -107 82 -176q57 100 82 193l2 10l11 4q29 16 67 16q61 0 108 -41.5 t50 -97.5v-10l-6 -6q-128 -146 -187 -330l-10 -12q-25 -17 -63 -17q-25 0 -43 6q-30 -12 -62 -12q-30 0 -61 17l-8 4l-2 8q-35 100 -87 188q-51 -70 -102 -182l-10 -12q-26 -13 -51 -13q-65 0 -106.5 49.5t-41.5 114.5z" />
<glyph unicode="&#xf2;" d="M16 227l4 9q40 73 57 126t17 119q0 39 -6 92l2 13q51 122 51 225q0 49 -14 131l-2 10l4 6q48 91 61 158q-36 49 -36 135q0 48 11 87t26.5 60.5t32.5 36t27 19t13 4.5l10 4l9 -4q98 -49 217 -49q85 0 114 10l9 2l8 -4q110 -50 192 -53q68 29 127 29q22 0 42.5 -3.5t37 -9 t30.5 -12t25 -13.5t18 -12.5t12 -9.5l5 -4l10 -10l-4 -12q-22 -90 -22 -160q0 -93 41 -193l4 -6l-2 -8q-14 -89 -14 -141q0 -125 55 -244l4 -6l-4 -10q-23 -94 -23 -154q0 -99 54 -213l4 -8l-4 -10q0 -2 -5.5 -13.5t-22 -30t-40.5 -35.5t-66 -29.5t-94 -12.5q-75 0 -129 37 q-94 -12 -178 -52l-6 -4l-6 2q-16 0 -47 2t-47 2q-188 0 -320 -69l-10 -4l-8 2q-27 7 -62 35q-61 50 -69 131q-32 17 -54.5 43t-29.5 40.5t-7 18.5zM406 332q150 18 196 49l8 4l8 -2q63 -14 134 -14q44 0 88 6q-7 47 -31 127l-2 12q12 67 12 131q0 122 -53 246l-4 8l2 10 q25 89 27 150q-36 4 -54 4q-47 0 -116 -16l-15 2q-8 1 -102 24q-2 -20 -2 -57q0 -36 10 -94v-9l-2 -6q-55 -127 -55 -233q0 -56 16 -131l2 -8l-4 -9q-58 -116 -63 -194zM412 1819l4 12q19 55 76.5 91t125.5 36q27 0 41 -2l17 -4l2 -17q12 -158 104 -309l4 -8l-2 -8 q-13 -50 -56.5 -76.5t-92.5 -26.5q-23 0 -33 4l-10 2l-4 11q-64 159 -168 286z" />
<glyph unicode="&#xf3;" d="M16 227l4 9q40 73 57 126t17 119q0 39 -6 92l2 13q51 122 51 225q0 49 -14 131l-2 10l4 6q48 91 61 158q-36 49 -36 135q0 48 11 87t26.5 60.5t32.5 36t27 19t13 4.5l10 4l9 -4q98 -49 217 -49q85 0 114 10l9 2l8 -4q110 -50 192 -53q68 29 127 29q22 0 42.5 -3.5t37 -9 t30.5 -12t25 -13.5t18 -12.5t12 -9.5l5 -4l10 -10l-4 -12q-22 -90 -22 -160q0 -93 41 -193l4 -6l-2 -8q-14 -89 -14 -141q0 -125 55 -244l4 -6l-4 -10q-23 -94 -23 -154q0 -99 54 -213l4 -8l-4 -10q0 -2 -5.5 -13.5t-22 -30t-40.5 -35.5t-66 -29.5t-94 -12.5q-75 0 -129 37 q-94 -12 -178 -52l-6 -4l-6 2q-16 0 -47 2t-47 2q-188 0 -320 -69l-10 -4l-8 2q-27 7 -62 35q-61 50 -69 131q-32 17 -54.5 43t-29.5 40.5t-7 18.5zM406 332q150 18 196 49l8 4l8 -2q63 -14 134 -14q44 0 88 6q-7 47 -31 127l-2 12q12 67 12 131q0 122 -53 246l-4 8l2 10 q25 89 27 150q-36 4 -54 4q-47 0 -116 -16l-15 2q-8 1 -102 24q-2 -20 -2 -57q0 -36 10 -94v-9l-2 -6q-55 -127 -55 -233q0 -56 16 -131l2 -8l-4 -9q-58 -116 -63 -194zM569 1624l9 8q123 135 192 301l6 13h12q6 2 19 2q66 0 118 -47t56 -111l2 -12l-10 -6 q-67 -53 -114 -113.5t-99 -147.5l-4 -8l-13 -2q-3 0 -10 -1t-10 -1q-53 0 -95.5 32t-54.5 81z" />
<glyph unicode="&#xf4;" d="M16 227l4 9q40 73 57 126t17 119q0 39 -6 92l2 13q51 122 51 225q0 49 -14 131l-2 10l4 6q48 91 61 158q-36 49 -36 135q0 48 11 87t26.5 60.5t32.5 36t27 19t13 4.5l10 4l9 -4q98 -49 217 -49q85 0 114 10l9 2l8 -4q110 -50 192 -53q68 29 127 29q22 0 42.5 -3.5t37 -9 t30.5 -12t25 -13.5t18 -12.5t12 -9.5l5 -4l10 -10l-4 -12q-22 -90 -22 -160q0 -93 41 -193l4 -6l-2 -8q-14 -89 -14 -141q0 -125 55 -244l4 -6l-4 -10q-23 -94 -23 -154q0 -99 54 -213l4 -8l-4 -10q0 -2 -5.5 -13.5t-22 -30t-40.5 -35.5t-66 -29.5t-94 -12.5q-75 0 -129 37 q-94 -12 -178 -52l-6 -4l-6 2q-16 0 -47 2t-47 2q-188 0 -320 -69l-10 -4l-8 2q-27 7 -62 35q-61 50 -69 131q-32 17 -54.5 43t-29.5 40.5t-7 18.5zM346 1657v8l6 6q134 140 195 305l4 11l8 2q27 12 57 12q31 0 58 -12q8 2 22 2q34 0 74 -19l8 -4l2 -8q73 -192 191 -307 l6 -8v-11q-6 -66 -54 -106.5t-104 -40.5q-34 0 -63 16l-8 4l-3 9q-39 104 -88 186q-57 -80 -100 -184l-10 -11q-28 -14 -53 -14q-61 0 -104.5 49.5t-43.5 114.5zM406 332q150 18 196 49l8 4l8 -2q63 -14 134 -14q44 0 88 6q-7 47 -31 127l-2 12q12 67 12 131q0 122 -53 246 l-4 8l2 10q25 89 27 150q-36 4 -54 4q-47 0 -116 -16l-15 2q-8 1 -102 24q-2 -20 -2 -57q0 -36 10 -94v-9l-2 -6q-55 -127 -55 -233q0 -56 16 -131l2 -8l-4 -9q-58 -116 -63 -194z" />
<glyph unicode="&#xf5;" d="M16 227l4 9q40 73 57 126t17 119q0 39 -6 92l2 13q51 122 51 225q0 49 -14 131l-2 10l4 6q48 91 61 158q-36 49 -36 135q0 48 11 87t26.5 60.5t32.5 36t27 19t13 4.5l10 4l9 -4q98 -49 217 -49q85 0 114 10l9 2l8 -4q110 -50 192 -53q68 29 127 29q22 0 42.5 -3.5t37 -9 t30.5 -12t25 -13.5t18 -12.5t12 -9.5l5 -4l10 -10l-4 -12q-22 -90 -22 -160q0 -93 41 -193l4 -6l-2 -8q-14 -89 -14 -141q0 -125 55 -244l4 -6l-4 -10q-23 -94 -23 -154q0 -99 54 -213l4 -8l-4 -10q0 -2 -5.5 -13.5t-22 -30t-40.5 -35.5t-66 -29.5t-94 -12.5q-75 0 -129 37 q-94 -12 -178 -52l-6 -4l-6 2q-16 0 -47 2t-47 2q-188 0 -320 -69l-10 -4l-8 2q-27 7 -62 35q-61 50 -69 131q-32 17 -54.5 43t-29.5 40.5t-7 18.5zM285 1665v8l6 6q131 134 198 303l5 11l8 4q36 8 57 8q32 0 59 -12q6 2 21 2q34 0 74 -19l10 -12q39 -107 82 -176 q58 101 82 192l2 11l10 4q29 16 68 16q61 0 107.5 -41.5t49.5 -97.5v-10l-6 -7q-127 -145 -186 -329l-10 -13q-24 -16 -64 -16q-25 0 -43 6q-30 -12 -61 -12q-33 0 -62 16l-8 4l-2 9q-36 104 -86 188q-51 -70 -102 -182l-11 -13q-24 -12 -51 -12q-65 0 -106 49.5t-41 114.5z M406 332q150 18 196 49l8 4l8 -2q63 -14 134 -14q44 0 88 6q-7 47 -31 127l-2 12q12 67 12 131q0 122 -53 246l-4 8l2 10q25 89 27 150q-36 4 -54 4q-47 0 -116 -16l-15 2q-8 1 -102 24q-2 -20 -2 -57q0 -36 10 -94v-9l-2 -6q-55 -127 -55 -233q0 -56 16 -131l2 -8l-4 -9 q-58 -116 -63 -194z" />
<glyph unicode="&#xf6;" d="M16 227l4 9q40 73 57 126t17 119q0 39 -6 92l2 13q51 122 51 225q0 49 -14 131l-2 10l4 6q48 91 61 158q-36 49 -36 135q0 48 11 87t26.5 60.5t32.5 36t27 19t13 4.5l10 4l9 -4q98 -49 217 -49q85 0 114 10l9 2l8 -4q110 -50 192 -53q68 29 127 29q22 0 42.5 -3.5t37 -9 t30.5 -12t25 -13.5t18 -12.5t12 -9.5l5 -4l10 -10l-4 -12q-22 -90 -22 -160q0 -93 41 -193l4 -6l-2 -8q-14 -89 -14 -141q0 -125 55 -244l4 -6l-4 -10q-23 -94 -23 -154q0 -99 54 -213l4 -8l-4 -10q0 -2 -5.5 -13.5t-22 -30t-40.5 -35.5t-66 -29.5t-94 -12.5q-75 0 -129 37 q-94 -12 -178 -52l-6 -4l-6 2q-16 0 -47 2t-47 2q-188 0 -320 -69l-10 -4l-8 2q-27 7 -62 35q-61 50 -69 131q-32 17 -54.5 43t-29.5 40.5t-7 18.5zM260 1782l12 12q65 59 181 59q96 0 137 -41l12 -10l-6 -14q-27 -70 -27 -135q0 -35 4 -51l2 -11l-8 -8q-49 -49 -139 -49 q-68 0 -111 29l-12 6l2 16q2 12 2 35q0 78 -41 147zM406 332q150 18 196 49l8 4l8 -2q63 -14 134 -14q44 0 88 6q-7 47 -31 127l-2 12q12 67 12 131q0 122 -53 246l-4 8l2 10q25 89 27 150q-36 4 -54 4q-47 0 -116 -16l-15 2q-8 1 -102 24q-2 -20 -2 -57q0 -36 10 -94v-9 l-2 -6q-55 -127 -55 -233q0 -56 16 -131l2 -8l-4 -9q-58 -116 -63 -194zM653 1796l13 8q59 47 143 47q90 0 158 -55l12 -12l-6 -17q-43 -85 -43 -161v-19v-12l-10 -8q-50 -29 -107 -29q-76 0 -137 45l-10 8l2 13q2 18 2 53q0 63 -15 125z" />
<glyph unicode="&#xf7;" horiz-adv-x="935" d="M43 686q0 136 100 186l9 5l10 -5q80 -28 155 -28q66 0 156 22l8 4l8 -4q92 -32 158 -32q57 0 146 28l12 4l10 -6q7 -4 21.5 -18.5t34.5 -58t22 -97.5q0 -110 -76 -186l-10 -8l-14 2q-102 30 -150 30q-50 0 -135 -26l-12 -2q-59 24 -158 24q-71 0 -172 -37h-19q-8 4 -13 7 t-24.5 20t-32 37t-23.5 57.5t-11 81.5zM305 373l10 10q58 55 154 55q93 0 156 -53l10 -10l-4 -15q-21 -62 -21 -108q0 -29 11 -66l4 -12l-9 -10q-55 -58 -145 -58q-93 0 -145 58l-11 10l4 12q13 37 13 72q0 48 -21 100zM305 1192l10 10q58 55 154 55q93 0 156 -53l10 -10 l-4 -14q-21 -62 -21 -109q0 -28 11 -65l4 -13l-9 -10q-54 -57 -145 -57q-94 0 -145 57l-11 10l4 13q13 37 13 71q0 49 -21 101z" />
<glyph unicode="&#xf8;" d="M16 227l4 9q40 73 57 126t17 119q0 39 -6 92l2 13q51 122 51 225q0 49 -14 131l-2 10l4 6q47 86 61 158q-36 49 -36 135q0 48 11 87t26.5 60.5t32.5 36t27 19t13 4.5l10 4l9 -4q98 -49 217 -49q85 0 114 10l9 2l8 -4q115 -53 211 -53h8q0 4 2 6l4 14l12 7l4 2 q5 2 12.5 4.5t16.5 5t21.5 4.5t25.5 2q138 0 189 -126q18 -44 18 -69l2 -14l-12 -10l-39 -43q0 -98 39 -193l4 -6l-2 -8q-14 -89 -14 -141q0 -125 55 -244l4 -6l-4 -10q-23 -94 -23 -154q0 -99 54 -213l4 -8l-4 -10q0 -2 -5.5 -13.5t-22 -30t-40.5 -35.5t-66 -29.5 t-94 -12.5q-75 0 -129 37q-94 -12 -178 -52l-6 -4l-6 2q-16 0 -47 2t-47 2q-55 0 -127 -10l-9 -33l-2 -10l-8 -8q-4 -4 -14.5 -11t-38.5 -16.5t-57 -9.5q-57 0 -100.5 23t-65 57t-31.5 62.5t-10 48.5q-22 11 -40 25.5t-28 27.5t-16.5 24.5t-9.5 19.5l-3 7zM455 655 q104 146 151 314l2 10l8 6q54 54 70 74q-31 -3 -65 -12l-15 2q-8 1 -102 24q-2 -20 -2 -57q0 -36 10 -94v-9l-2 -6q-55 -134 -55 -231v-21zM666 375q43 -6 86 -6q44 0 88 6q-7 47 -31 127l-2 12q12 68 12 129q0 31 -2 45q-95 -140 -131 -285l-2 -10l-6 -6z" />
<glyph unicode="&#xf9;" horiz-adv-x="1193" d="M20 203l5 8q63 126 63 238q0 42 -10 114v12q43 119 43 222q0 54 -21 147l-2 8l4 9q62 127 62 256q0 58 -17 135l-4 14l11 8q3 5 17.5 17.5t55 27.5t90.5 15q46 0 85.5 -12t65.5 -32t36.5 -29.5t18.5 -20.5l1 -1l8 -12l-6 -12q-53 -123 -53 -252q0 -59 12 -121v-14 q-47 -133 -47 -232q0 -66 21 -143v-16q-53 -115 -53 -209q19 4 39 11t48 17.5l44 16.5l16 4q66 -8 92 -8q67 0 129 18q-10 68 -26 121l-3 12q15 73 15 148q0 129 -47 250v16q28 85 28 182q0 107 -39 211l-6 12l9 13l1 1q48 61 145 77q26 4 54 4q106 0 172 -66l10 -10l-4 -15 q-24 -88 -24 -174q0 -102 37 -200v-15q-19 -90 -19 -161q0 -129 49 -242l4 -8l-2 -8q-24 -86 -24 -170q0 -125 51 -242l4 -8l-4 -11l-2 -4q-2 -5 -6 -11t-10.5 -14.5t-16 -18t-21.5 -18.5t-28.5 -17.5t-36 -15t-45 -10t-53.5 -3.5q-123 0 -174 76q-59 -17 -121 -52l-12 -2 q-86 0 -132 -2.5t-109.5 -19t-117.5 -49.5l-8 -6l-10 2q-1 1 -12 5t-20 8.5t-24 16t-27.5 26.5t-26.5 40.5t-25 58.5q-33 16 -56.5 40.5t-30.5 39t-7 19.5zM344 1798l4 12q19 55 77 91t126 36q27 0 41 -2l16 -4l2 -16q12 -157 105 -309l4 -9l-2 -8q-13 -50 -56.5 -76 t-93.5 -26q-22 0 -32 4l-11 2l-4 10q-65 161 -168 287z" />
<glyph unicode="&#xfa;" horiz-adv-x="1193" d="M20 203l5 8q63 126 63 238q0 42 -10 114v12q43 119 43 222q0 54 -21 147l-2 8l4 9q62 127 62 256q0 58 -17 135l-4 14l11 8q3 5 17.5 17.5t55 27.5t90.5 15q46 0 85.5 -12t65.5 -32t36.5 -29.5t18.5 -20.5l1 -1l8 -12l-6 -12q-53 -123 -53 -252q0 -59 12 -121v-14 q-47 -133 -47 -232q0 -66 21 -143v-16q-53 -115 -53 -209q19 4 39 11t48 17.5l44 16.5l16 4q66 -8 92 -8q67 0 129 18q-10 68 -26 121l-3 12q15 73 15 148q0 129 -47 250v16q28 85 28 182q0 107 -39 211l-6 12l9 13l1 1q48 61 145 77q26 4 54 4q106 0 172 -66l10 -10l-4 -15 q-24 -88 -24 -174q0 -102 37 -200v-15q-19 -90 -19 -161q0 -129 49 -242l4 -8l-2 -8q-24 -86 -24 -170q0 -125 51 -242l4 -8l-4 -11l-2 -4q-2 -5 -6 -11t-10.5 -14.5t-16 -18t-21.5 -18.5t-28.5 -17.5t-36 -15t-45 -10t-53.5 -3.5q-123 0 -174 76q-59 -17 -121 -52l-12 -2 q-86 0 -132 -2.5t-109.5 -19t-117.5 -49.5l-8 -6l-10 2q-1 1 -12 5t-20 8.5t-24 16t-27.5 26.5t-26.5 40.5t-25 58.5q-33 16 -56.5 40.5t-30.5 39t-7 19.5zM483 1624l9 8q123 135 192 301l6 13h12q6 2 19 2q66 0 118 -47t56 -111l2 -12l-10 -6q-67 -53 -114 -113.5 t-99 -147.5l-4 -8l-13 -2q-3 0 -10 -1t-10 -1q-53 0 -95.5 32t-54.5 81z" />
<glyph unicode="&#xfb;" horiz-adv-x="1193" d="M20 203l5 8q63 126 63 238q0 42 -10 114v12q43 119 43 222q0 54 -21 147l-2 8l4 9q62 127 62 256q0 58 -17 135l-4 14l11 8q3 5 17.5 17.5t55 27.5t90.5 15q46 0 85.5 -12t65.5 -32t36.5 -29.5t18.5 -20.5l1 -1l8 -12l-6 -12q-53 -123 -53 -252q0 -59 12 -121v-14 q-47 -133 -47 -232q0 -66 21 -143v-16q-53 -115 -53 -209q19 4 39 11t48 17.5l44 16.5l16 4q66 -8 92 -8q67 0 129 18q-10 68 -26 121l-3 12q15 73 15 148q0 129 -47 250v16q28 85 28 182q0 107 -39 211l-6 12l9 13l1 1q48 61 145 77q26 4 54 4q106 0 172 -66l10 -10l-4 -15 q-24 -88 -24 -174q0 -102 37 -200v-15q-19 -90 -19 -161q0 -129 49 -242l4 -8l-2 -8q-24 -86 -24 -170q0 -125 51 -242l4 -8l-4 -11l-2 -4q-2 -5 -6 -11t-10.5 -14.5t-16 -18t-21.5 -18.5t-28.5 -17.5t-36 -15t-45 -10t-53.5 -3.5q-123 0 -174 76q-59 -17 -121 -52l-12 -2 q-86 0 -132 -2.5t-109.5 -19t-117.5 -49.5l-8 -6l-10 2q-1 1 -12 5t-20 8.5t-24 16t-27.5 26.5t-26.5 40.5t-25 58.5q-33 16 -56.5 40.5t-30.5 39t-7 19.5zM274 1663v8l7 6q132 138 194 305l4 11l8 2q27 12 58 12q30 0 57 -12q8 2 23 2q33 0 73 -19l9 -4l2 -8 q74 -194 190 -307l6 -8v-11q-6 -66 -53.5 -106.5t-103.5 -40.5q-35 0 -64 16l-8 4l-2 9q-39 104 -88 186q-60 -83 -101 -184l-10 -11q-28 -14 -53 -14q-61 0 -104.5 49.5t-43.5 114.5z" />
<glyph unicode="&#xfc;" horiz-adv-x="1193" d="M20 203l5 8q63 126 63 238q0 42 -10 114v12q43 119 43 222q0 54 -21 147l-2 8l4 9q62 127 62 256q0 58 -17 135l-4 14l11 8q3 5 17.5 17.5t55 27.5t90.5 15q46 0 85.5 -12t65.5 -32t36.5 -29.5t18.5 -20.5l1 -1l8 -12l-6 -12q-53 -123 -53 -252q0 -59 12 -121v-14 q-47 -133 -47 -232q0 -66 21 -143v-16q-53 -115 -53 -209q19 4 39 11t48 17.5l44 16.5l16 4q66 -8 92 -8q67 0 129 18q-10 68 -26 121l-3 12q15 73 15 148q0 129 -47 250v16q28 85 28 182q0 107 -39 211l-6 12l9 13l1 1q48 61 145 77q26 4 54 4q106 0 172 -66l10 -10l-4 -15 q-24 -88 -24 -174q0 -102 37 -200v-15q-19 -90 -19 -161q0 -129 49 -242l4 -8l-2 -8q-24 -86 -24 -170q0 -125 51 -242l4 -8l-4 -11l-2 -4q-2 -5 -6 -11t-10.5 -14.5t-16 -18t-21.5 -18.5t-28.5 -17.5t-36 -15t-45 -10t-53.5 -3.5q-123 0 -174 76q-59 -17 -121 -52l-12 -2 q-86 0 -132 -2.5t-109.5 -19t-117.5 -49.5l-8 -6l-10 2q-1 1 -12 5t-20 8.5t-24 16t-27.5 26.5t-26.5 40.5t-25 58.5q-33 16 -56.5 40.5t-30.5 39t-7 19.5zM229 1782l13 12q65 59 180 59q96 0 137 -41l12 -10l-6 -14q-26 -68 -26 -135q0 -35 4 -51l2 -11l-8 -8 q-49 -49 -140 -49q-67 0 -110 29l-13 6l2 16q3 18 3 35q0 78 -41 147zM623 1796l12 8q59 47 143 47q90 0 158 -55l12 -12l-6 -17q-43 -85 -43 -161v-19v-12l-10 -8q-50 -29 -107 -29q-76 0 -137 45l-10 8l2 13q2 18 2 53q0 68 -14 125z" />
<glyph unicode="&#xfd;" horiz-adv-x="993" d="M-49 1157v12l1 3q32 132 127 185q52 29 118 29q12 0 23 -1.5t18 -2.5l6 -2l12 -4l4 -12q67 -194 217 -305l8 -12q14 -40 33 -74q0 2 1 6.5t1 7.5v8l6 6q145 151 166 359v14l13 6q2 2 11 6t30 8.5t45 4.5q40 0 76 -9.5t61 -24.5t46 -33.5t34 -36.5t22.5 -33.5t13.5 -23.5 l3 -9l2 -12l-9 -11q-137 -155 -155 -342v-6l-6 -6q-140 -180 -152 -377v-8l-6 -6q-146 -166 -158 -381v-10l-8 -7q-2 -4 -13.5 -12t-40 -17t-61.5 -9q-53 0 -110 24q-41 17 -71 40.5t-44 43.5t-21.5 42.5t-8.5 30.5t-1 15l9 19q139 142 176 364v2q-83 146 -172 207l-7 4 l-2 10q-62 203 -227 322zM395 1526l8 8q125 137 193 301l6 12h12q6 2 19 2q66 0 118 -46.5t56 -110.5l2 -13l-10 -6q-68 -53 -115 -113.5t-98 -146.5l-4 -8l-13 -2q-3 0 -10 -1t-10 -1q-53 0 -95.5 31.5t-54.5 80.5z" />
<glyph unicode="&#xfe;" horiz-adv-x="1067" d="M57 88l4 8q45 107 45 234q0 88 -20 172v12q27 111 27 193q0 94 -33 206l-2 9l4 8q43 110 43 219q0 85 -27 174l-4 12l8 11q3 6 19.5 20.5t62 32.5t101.5 18q57 0 104.5 -21t64.5 -37.5t21 -23.5l10 -10l-6 -12q-22 -71 -26 -94q80 -51 217 -76q3 0 10 -1t10 -1h8l9 -6 q82 -70 154 -101t175 -37h13l6 -10q24 -48 24 -100q0 -43 -16 -90q-15 -45 -35 -70q19 -48 19 -88l-5 -37l-2 -14l-12 -4q-188 -82 -293 -234l-12 -10q-170 -87 -272 -211q11 -33 14 -39l4 -10l-4 -8q-3 -6 -7 -12.5t-20.5 -23.5t-37.5 -29.5t-58.5 -23t-81.5 -10.5 t-81 10.5t-58 25t-35.5 30.5t-19.5 26t-5 13zM434 715q0 -78 19 -156q26 26 32 41l7 8l8 2q130 49 227 146q-62 20 -137 26l-12 6q-113 65 -129 72q-15 -74 -15 -145z" />
<glyph unicode="&#xff;" horiz-adv-x="993" d="M-49 1157v12l1 3q32 132 127 185q52 29 118 29q12 0 23 -1.5t18 -2.5l6 -2l12 -4l4 -12q67 -194 217 -305l8 -12q14 -40 33 -74q0 2 1 6.5t1 7.5v8l6 6q145 151 166 359v14l13 6q2 2 11 6t30 8.5t45 4.5q40 0 76 -9.5t61 -24.5t46 -33.5t34 -36.5t22.5 -33.5t13.5 -23.5 l3 -9l2 -12l-9 -11q-137 -155 -155 -342v-6l-6 -6q-140 -180 -152 -377v-8l-6 -6q-146 -166 -158 -381v-10l-8 -7q-2 -4 -13.5 -12t-40 -17t-61.5 -9q-53 0 -110 24q-41 17 -71 40.5t-44 43.5t-21.5 42.5t-8.5 30.5t-1 15l9 19q139 142 176 364v2q-83 146 -172 207l-7 4 l-2 10q-62 203 -227 322zM139 1704l13 12q66 60 180 60q96 0 137 -41l12 -11l-6 -14q-26 -68 -26 -135q0 -35 4 -51l2 -11l-9 -8q-49 -49 -139 -49q-67 0 -110 29l-13 6l2 16q2 12 2 35q0 79 -41 148zM532 1718l13 8q60 48 143 48q89 0 158 -56l12 -12l-6 -16 q-43 -85 -43 -162v-19v-12l-10 -8q-50 -29 -107 -29q-76 0 -137 45l-10 8l2 13q2 18 2 53q0 68 -14 125z" />
<glyph unicode="&#x152;" horiz-adv-x="1701" d="M16 227l4 9q40 73 57 126t17 119q0 39 -6 92l2 13q51 122 51 225q0 49 -14 131l-2 10l4 6q48 91 61 158q-36 49 -36 135q0 48 11 87t26.5 60.5t32.5 36t27 19t13 4.5l10 4l9 -4q98 -49 217 -49q85 0 114 10l9 2l8 -4q100 -46 170 -51q1 2 7.5 9t22 18t35 21t51 17t66.5 7 q89 0 152 -47q67 7 127 26l8 4l8 -2q95 -30 152 -30q63 0 161 36l13 5l12 -7l1 -1q65 -50 79 -146q1 -11 2 -23v-18q0 -47 -17.5 -89t-32 -59t-20.5 -20l-10 -8l-12 4q-99 22 -146 22q-58 0 -149 -30l-15 -2q-85 16 -155 16q3 -52 22 -111v-14q-9 -28 -16 -72 q52 -14 108 -14q69 0 158 27l12 4l11 -8q24 -24 34 -40q37 -58 37 -134q0 -33 -8 -64t-19.5 -51.5t-24 -36.5t-20.5 -23t-10 -8l-10 -8l-12 4q-110 37 -182 37q-32 0 -62 -6l6 -12v-17q-27 -76 -35 -135q86 16 117 16l8 3l11 -5q115 -47 176 -47q45 0 135 23l14 4l8 -8 q3 -2 9.5 -8t17 -21.5t19.5 -34t15.5 -49t6.5 -63.5q-1 -17 -3.5 -33.5t-6.5 -30.5t-9.5 -27t-11.5 -23t-12 -19.5t-12 -16.5t-11.5 -13t-9.5 -9t-7 -6l-3 -3l-10 -6l-12 4q-110 41 -175 41q-46 0 -120 -18h-15q-18 3 -54 12t-56 12q-60 -69 -181 -69q-120 0 -180 74 q-43 -9 -123 -48l-8 -4l-6 2q-15 0 -45 2t-45 2q-161 0 -293 -69l-10 -4l-8 2q-27 7 -62 35q-61 50 -69 131q-32 17 -54.5 43t-29.5 40.5t-7 18.5zM406 332q117 16 165 49l9 4l8 -2q63 -14 114 -14q52 0 101 14q-3 69 -21 139v13q29 106 29 194q0 94 -33 203v18 q24 67 33 105q-50 8 -74 8q-47 0 -116 -16l-15 2q-8 1 -102 24q-2 -20 -2 -57q0 -36 10 -94v-9l-2 -6q-55 -127 -55 -233q0 -56 16 -131l2 -8l-4 -9q-58 -116 -63 -194z" />
<glyph unicode="&#x153;" horiz-adv-x="1701" d="M16 227l4 9q40 73 57 126t17 119q0 39 -6 92l2 13q51 122 51 225q0 49 -14 131l-2 10l4 6q48 91 61 158q-36 49 -36 135q0 48 11 87t26.5 60.5t32.5 36t27 19t13 4.5l10 4l9 -4q98 -49 217 -49q85 0 114 10l9 2l8 -4q100 -46 170 -51q1 2 7.5 9t22 18t35 21t51 17t66.5 7 q89 0 152 -47q67 7 127 26l8 4l8 -2q95 -30 152 -30q63 0 161 36l13 5l12 -7l1 -1q65 -50 79 -146q1 -11 2 -23v-18q0 -47 -17.5 -89t-32 -59t-20.5 -20l-10 -8l-12 4q-99 22 -146 22q-58 0 -149 -30l-15 -2q-85 16 -155 16q3 -52 22 -111v-14q-9 -28 -16 -72 q52 -14 108 -14q69 0 158 27l12 4l11 -8q24 -24 34 -40q37 -58 37 -134q0 -33 -8 -64t-19.5 -51.5t-24 -36.5t-20.5 -23t-10 -8l-10 -8l-12 4q-110 37 -182 37q-32 0 -62 -6l6 -12v-17q-27 -76 -35 -135q86 16 117 16l8 3l11 -5q115 -47 176 -47q45 0 135 23l14 4l8 -8 q3 -2 9.5 -8t17 -21.5t19.5 -34t15.5 -49t6.5 -63.5q-1 -17 -3.5 -33.5t-6.5 -30.5t-9.5 -27t-11.5 -23t-12 -19.5t-12 -16.5t-11.5 -13t-9.5 -9t-7 -6l-3 -3l-10 -6l-12 4q-110 41 -175 41q-46 0 -120 -18h-15q-18 3 -54 12t-56 12q-60 -69 -181 -69q-120 0 -180 74 q-43 -9 -123 -48l-8 -4l-6 2q-15 0 -45 2t-45 2q-161 0 -293 -69l-10 -4l-8 2q-27 7 -62 35q-61 50 -69 131q-32 17 -54.5 43t-29.5 40.5t-7 18.5zM406 332q117 16 165 49l9 4l8 -2q63 -14 114 -14q52 0 101 14q-3 69 -21 139v13q29 106 29 194q0 94 -33 203v18 q24 67 33 105q-50 8 -74 8q-47 0 -116 -16l-15 2q-8 1 -102 24q-2 -20 -2 -57q0 -36 10 -94v-9l-2 -6q-55 -127 -55 -233q0 -56 16 -131l2 -8l-4 -9q-58 -116 -63 -194z" />
<glyph unicode="&#x178;" horiz-adv-x="993" d="M-49 1157v12l1 3q32 132 127 185q52 29 118 29q12 0 23 -1.5t18 -2.5l6 -2l12 -4l4 -12q67 -194 217 -305l8 -12q14 -40 33 -74q0 2 1 6.5t1 7.5v8l6 6q145 151 166 359v14l13 6q2 2 11 6t30 8.5t45 4.5q40 0 76 -9.5t61 -24.5t46 -33.5t34 -36.5t22.5 -33.5t13.5 -23.5 l3 -9l2 -12l-9 -11q-137 -155 -155 -342v-6l-6 -6q-140 -180 -152 -377v-8l-6 -6q-146 -166 -158 -381v-10l-8 -7q-2 -4 -13.5 -12t-40 -17t-61.5 -9q-53 0 -110 24q-41 17 -71 40.5t-44 43.5t-21.5 42.5t-8.5 30.5t-1 15l9 19q139 142 176 364v2q-83 146 -172 207l-7 4 l-2 10q-62 203 -227 322zM139 1704l13 12q66 60 180 60q96 0 137 -41l12 -11l-6 -14q-26 -68 -26 -135q0 -35 4 -51l2 -11l-9 -8q-49 -49 -139 -49q-67 0 -110 29l-13 6l2 16q2 12 2 35q0 79 -41 148zM532 1718l13 8q60 48 143 48q89 0 158 -56l12 -12l-6 -16 q-43 -85 -43 -162v-19v-12l-10 -8q-50 -29 -107 -29q-76 0 -137 45l-10 8l2 13q2 18 2 53q0 68 -14 125z" />
<glyph unicode="&#x2c6;" horiz-adv-x="630" d="M0 1706v8l6 6q134 140 195 305l4 11l8 2q27 12 57 12q31 0 58 -12q8 2 22 2q34 0 74 -19l8 -4l2 -8q73 -192 191 -307l6 -8v-11q-6 -66 -54 -106.5t-104 -40.5q-34 0 -63 16l-9 4l-2 9q-39 104 -88 186q-57 -80 -100 -184l-10 -11q-28 -14 -54 -14q-61 0 -104 49.5 t-43 114.5z" />
<glyph unicode="&#x2dc;" horiz-adv-x="839" d="M0 1710v8l6 6q132 135 199 304l4 10l8 4q36 8 57 8q33 0 60 -12q6 2 20 2q34 0 74 -19l10 -12q39 -107 82 -176q58 101 82 192l2 11l10 4q29 16 68 16q61 0 108 -41.5t50 -97.5v-10l-6 -6q-128 -146 -187 -330l-10 -12q-26 -17 -64 -17q-25 0 -43 6q-30 -12 -61 -12 q-32 0 -61 16l-9 4l-2 9q-36 104 -86 188q-51 -70 -102 -182l-10 -12q-26 -13 -52 -13q-65 0 -106 49.5t-41 114.5z" />
<glyph unicode="&#x2000;" horiz-adv-x="1028" />
<glyph unicode="&#x2001;" horiz-adv-x="2056" />
<glyph unicode="&#x2002;" horiz-adv-x="1028" />
<glyph unicode="&#x2003;" horiz-adv-x="2056" />
<glyph unicode="&#x2004;" horiz-adv-x="685" />
<glyph unicode="&#x2005;" horiz-adv-x="514" />
<glyph unicode="&#x2006;" horiz-adv-x="342" />
<glyph unicode="&#x2007;" horiz-adv-x="342" />
<glyph unicode="&#x2008;" horiz-adv-x="257" />
<glyph unicode="&#x2009;" horiz-adv-x="411" />
<glyph unicode="&#x200a;" horiz-adv-x="114" />
<glyph unicode="&#x2010;" horiz-adv-x="954" d="M51 686q0 136 101 186l8 5l10 -5q80 -28 156 -28q65 0 155 22l8 4l9 -4q92 -32 157 -32q57 0 146 28l12 4l10 -6q7 -4 21.5 -18.5t34.5 -58t22 -97.5q0 -110 -76 -186l-10 -8l-14 2q-102 30 -150 30q-50 0 -135 -26l-12 -2q-59 24 -158 24q-71 0 -172 -37h-18q-8 4 -13 7 t-25 20t-32 37t-23.5 57.5t-11.5 81.5z" />
<glyph unicode="&#x2011;" horiz-adv-x="954" d="M51 686q0 136 101 186l8 5l10 -5q80 -28 156 -28q65 0 155 22l8 4l9 -4q92 -32 157 -32q57 0 146 28l12 4l10 -6q7 -4 21.5 -18.5t34.5 -58t22 -97.5q0 -110 -76 -186l-10 -8l-14 2q-102 30 -150 30q-50 0 -135 -26l-12 -2q-59 24 -158 24q-71 0 -172 -37h-18q-8 4 -13 7 t-25 20t-32 37t-23.5 57.5t-11.5 81.5z" />
<glyph unicode="&#x2012;" horiz-adv-x="954" d="M51 686q0 136 101 186l8 5l10 -5q80 -28 156 -28q65 0 155 22l8 4l9 -4q92 -32 157 -32q57 0 146 28l12 4l10 -6q7 -4 21.5 -18.5t34.5 -58t22 -97.5q0 -110 -76 -186l-10 -8l-14 2q-102 30 -150 30q-50 0 -135 -26l-12 -2q-59 24 -158 24q-71 0 -172 -37h-18q-8 4 -13 7 t-25 20t-32 37t-23.5 57.5t-11.5 81.5z" />
<glyph unicode="&#x2013;" horiz-adv-x="1212" d="M51 702q0 138 101 189l8 4l8 -4q104 -43 164 -43q52 0 133 20h12q91 -26 139 -26q50 0 142 30h16q104 -43 164 -43q37 0 133 27l12 2l9 -6q6 -3 19.5 -18.5t30.5 -58.5t17 -95q0 -104 -76 -180l-12 -8l-12 4q-101 36 -158 36q-42 0 -119 -22h-14q-113 29 -150 29 q-46 0 -137 -31h-16q-88 35 -152 35q-56 0 -151 -33l-8 -2l-9 4q-6 3 -12 6.5t-22.5 19t-28 34.5t-21.5 54t-10 76z" />
<glyph unicode="&#x2014;" horiz-adv-x="1486" d="M51 696q0 132 101 183h18q104 -43 223 -43q85 0 166 20h10q98 -25 189 -25q103 0 194 29h17q106 -41 211 -41q80 0 166 25l12 4l10 -8q21 -21 26 -27q42 -58 42 -139q0 -51 -20 -94.5t-35.5 -60t-22.5 -19.5l-10 -8l-13 4q-95 34 -205 34q-83 0 -153 -20h-14 q-105 27 -201 27q-101 0 -189 -29h-14q-100 35 -201 35q-85 0 -194 -33h-19q-6 3 -12 6.5t-22.5 19t-28 34t-21.5 52.5t-10 74z" />
<glyph unicode="&#x2018;" horiz-adv-x="598" d="M4 854v10l6 6q117 136 117 289l6 17q66 76 87 131.5t26 150.5l2 12l10 9q2 2 12.5 7t35.5 11t52 6q38 0 71.5 -8.5t57 -22t42.5 -30.5t31 -33t20 -30t11 -21l3 -8l6 -13l-10 -12q-64 -83 -81.5 -127t-21.5 -137l-6 -12q-60 -79 -81 -146t-23 -166v-10l-8 -6 q-2 -4 -14 -14t-42.5 -21.5t-66.5 -11.5q-167 0 -224 119q-12 26 -18 61z" />
<glyph unicode="&#x2019;" horiz-adv-x="598" d="M4 854v10l6 6q117 136 117 289l6 17q66 76 87 131.5t26 150.5l2 12l10 9q2 2 12.5 7t35.5 11t52 6q38 0 71.5 -8.5t57 -22t42.5 -30.5t31 -33t20 -30t11 -21l3 -8l6 -13l-10 -12q-64 -83 -81.5 -127t-21.5 -137l-6 -12q-60 -79 -81 -146t-23 -166v-10l-8 -6 q-2 -4 -14 -14t-42.5 -21.5t-66.5 -11.5q-167 0 -224 119q-12 26 -18 61z" />
<glyph unicode="&#x201a;" horiz-adv-x="466" d="M-55 -74q0 8 1 15t2 11l1 5l2 8l8 6q132 88 203 279l6 12l10 4l6 2q6 1 16.5 2.5t22.5 1.5q136 0 193 -129q22 -49 22 -77v-13l-10 -8q-82 -63 -133 -131.5t-82 -155.5l-2 -8l-8 -6q-1 -1 -10 -4.5t-26.5 -6.5t-35.5 -3q-50 0 -89.5 26.5t-58.5 63t-28.5 65t-9.5 41.5z " />
<glyph unicode="&#x201c;" horiz-adv-x="1089" d="M4 854v10l6 6q117 136 117 289l6 17q66 76 87 131.5t26 150.5l2 12l10 9q2 2 12.5 7t35.5 11t52 6q38 0 71.5 -8.5t57 -22t42.5 -30.5t31 -33t20 -30t11 -21l3 -8l6 -13l-10 -12q-64 -83 -81.5 -127t-21.5 -137l-6 -12q-60 -79 -81 -146t-23 -166v-10l-8 -6 q-2 -4 -14 -14t-42.5 -21.5t-66.5 -11.5q-165 0 -223 118q-19 39 -19 62zM496 854v10l6 6q116 135 116 289l7 17q66 76 86.5 131t25.5 151l2 12l11 9q2 2 12.5 7t35.5 11t52 6q38 0 71.5 -8.5t56.5 -22t42.5 -30.5t31 -33t19.5 -30t11 -21l3 -8l7 -13l-11 -12 q-63 -82 -80.5 -126.5t-21.5 -137.5l-6 -12q-60 -80 -81.5 -147t-23.5 -165v-10l-8 -6q-2 -4 -14 -14t-42.5 -21.5t-66.5 -11.5q-165 0 -222 118q-19 38 -19 62z" />
<glyph unicode="&#x201d;" horiz-adv-x="1089" d="M4 854v10l6 6q117 136 117 289l6 17q66 76 87 131.5t26 150.5l2 12l10 9q2 2 12.5 7t35.5 11t52 6q38 0 71.5 -8.5t57 -22t42.5 -30.5t31 -33t20 -30t11 -21l3 -8l6 -13l-10 -12q-64 -83 -81.5 -127t-21.5 -137l-6 -12q-60 -79 -81 -146t-23 -166v-10l-8 -6 q-2 -4 -14 -14t-42.5 -21.5t-66.5 -11.5q-167 0 -224 119q-12 26 -18 61zM496 854v10l6 6q116 135 116 289l7 17q66 76 86.5 131t25.5 151l2 12l11 9q2 2 12.5 7t35.5 11t52 6q38 0 71.5 -8.5t56.5 -22t42.5 -30.5t31 -33t19.5 -30t11 -21l3 -8l7 -13l-11 -12 q-63 -82 -80.5 -126.5t-21.5 -137.5l-6 -12q-60 -80 -81.5 -147t-23.5 -165v-10l-8 -6q-2 -4 -14 -14t-42.5 -21.5t-66.5 -11.5q-166 0 -223 119q-18 38 -18 61z" />
<glyph unicode="&#x201e;" horiz-adv-x="917" d="M-55 -74q0 8 1 15t2 11l1 5l2 8l8 6q132 88 203 279l6 12l10 4l6 2q6 1 16.5 2.5t22.5 1.5q136 0 193 -129q22 -49 22 -77v-13l-10 -8q-82 -63 -133 -131.5t-82 -155.5l-2 -8l-8 -6q-1 -1 -10 -4.5t-26.5 -6.5t-35.5 -3q-50 0 -89.5 26.5t-58.5 63t-28.5 65t-9.5 41.5z M395 -74q0 8 1 15t2 11l1 5l2 8l9 6q70 47 117.5 113t84.5 166l6 12l11 4l6 2q6 1 16.5 2.5t22.5 1.5q136 0 193 -129q22 -49 22 -77v-13l-10 -8q-82 -63 -133 -131.5t-82 -155.5l-2 -8l-9 -6q-1 -1 -10 -4.5t-26 -6.5t-35 -3q-50 0 -89.5 26.5t-59 63t-29 65t-9.5 41.5z " />
<glyph unicode="&#x2022;" horiz-adv-x="565" d="M117 850l10 10q58 55 154 55q92 0 155 -53l10 -10l-4 -14q-20 -59 -20 -109q0 -32 10 -65l4 -13l-8 -10q-54 -57 -145 -57q-95 0 -146 57l-10 10l4 13q12 34 12 71q0 51 -20 101z" />
<glyph unicode="&#x2026;" horiz-adv-x="1241" d="M41 236l10 10q58 55 154 55q92 0 155 -53l11 -10l-4 -15q-21 -62 -21 -108q0 -33 10 -66l4 -12l-8 -10q-55 -58 -145 -58q-94 0 -146 58l-10 10l4 12q13 37 13 72q0 47 -21 100zM455 236l10 10q58 55 153 55q93 0 156 -53l10 -10l-4 -15q-20 -59 -20 -108q0 -33 10 -66 l4 -12l-8 -10q-55 -58 -145 -58q-94 0 -146 58l-10 10l4 12q12 35 12 72q0 50 -20 100zM868 236l11 10q58 55 153 55q93 0 156 -53l10 -10l-4 -15q-20 -59 -20 -108q0 -33 10 -66l4 -12l-8 -10q-55 -58 -146 -58q-93 0 -145 58l-10 10l4 12q12 35 12 72q0 47 -21 100z" />
<glyph unicode="&#x202f;" horiz-adv-x="411" />
<glyph unicode="&#x2039;" horiz-adv-x="737" d="M47 823q0 20 5.5 40t10.5 29t7 11l4 8l10 2q87 28 199 103.5t172 154.5l8 11h12q17 0 59 -16q126 -49 139 -172q1 -13 1 -27q0 -13 -1.5 -24.5t-2.5 -18.5l-2 -6l-4 -13l-13 -6q-128 -48 -264 -170q132 -132 258 -186l12 -4l5 -13l1 -6q1 -5 2 -14.5t1 -20.5 q0 -137 -135 -193q-28 -11 -76 -20h-13l-8 13q-59 82 -161.5 160.5t-190.5 111.5l-14 12q-2 2 -6 10t-8.5 26.5t-4.5 37.5q0 39 23 86q-25 42 -25 94z" />
<glyph unicode="&#x203a;" horiz-adv-x="737" d="M63 969q0 50 19.5 90t46.5 62t58 37t49.5 19.5t25.5 4.5h14l7 -11q62 -80 172.5 -155t197.5 -103l11 -2l4 -8q2 -2 6.5 -11.5t10 -29.5t5.5 -41q0 -46 -24 -92q20 -41 20 -86q0 -12 -1.5 -24t-4 -20.5t-5 -15t-3.5 -10.5l-2 -4l-6 -8l-9 -4q-87 -33 -189 -111t-163 -161 l-6 -13h-14q-2 0 -12 1.5t-30.5 7t-41.5 14.5t-44.5 25.5t-41.5 38t-29.5 54.5t-11.5 72q0 11 1 20.5t2 14.5l1 6l4 13l12 4q131 57 256 188q-126 116 -262 168l-12 6l-4 13l-2 7q-2 7 -3.5 19t-1.5 25z" />
<glyph unicode="&#x205f;" horiz-adv-x="514" />
<glyph unicode="&#x20ac;" horiz-adv-x="1415" d="M39 528q0 37 10.5 69t22 49t31.5 33t24.5 18t16.5 7v1h1l11 2l8 -5q94 -36 244 -43q8 26 16 70q-65 -3 -129 -20l-10 -2l-9 4q-2 0 -11.5 5t-24.5 18.5t-28.5 32.5t-23.5 51.5t-10 70.5q0 39 11 71t25.5 50.5t31 31t26.5 17t13 4.5l10 4l8 -4q64 -23 150 -35q21 54 28 88 q-37 50 -37 135q0 48 11.5 87t26.5 60.5t32.5 36t27.5 19t13 4.5l10 4l8 -4q98 -49 218 -49q85 0 114 10l8 2l9 -4q118 -53 206 -53q58 0 129 18l13 2l8 -8q5 -3 17.5 -18t27 -55.5t14.5 -90.5v-16q-5 -108 -86 -178l-12 -8l-12 4q-116 49 -201 49q-48 0 -117 -16l-12 2 q-8 1 -102 24q-2 -20 -2 -57q0 -36 10 -94v-9l-2 -6q-56 -129 -56 -233q0 -51 17 -131l-2 -17q-59 -115 -64 -194q24 4 43.5 9t50 16t44.5 16q12 4 18 8l8 4l8 -2q63 -14 123 -14q106 0 230 59l12 6l10 -6q4 -2 10.5 -6.5t20.5 -18t26 -31t24 -46.5t17 -62q2 -14 2 -41 q0 -19 -3 -37.5t-7.5 -33t-10 -27.5t-11 -22.5t-10 -16.5t-7.5 -12l-4 -4l-10 -11l-12 4q-75 11 -113 11q-101 0 -219 -56l-8 -4l-6 2q-16 0 -45 2t-43 2q-153 0 -285 -69l-10 -4l-11 2l-2 1q-74 26 -108 113q-10 23 -15 50q-35 17 -58.5 43t-29.5 41t-6 20l-2 10l4 9 q48 84 60 137h-21q-111 0 -194 -25l-11 -2l-8 4q-98 49 -98 178z" />
<glyph unicode="&#x25fc;" horiz-adv-x="1382" d="M0 0v1382h1382v-1382h-1382z" />
</font>
</defs>
</svg>
